<?xml version="1.0" standalone="no"?>
<!DOCTYPE svg PUBLIC "-//W3C//DTD SVG 20010904//EN"
 "http://www.w3.org/TR/2001/REC-SVG-20010904/DTD/svg10.dtd">
<svg version="1.0" xmlns="http://www.w3.org/2000/svg"
 width="1024.000000pt" height="1024.000000pt" viewBox="0 0 1024.000000 1024.000000"
 preserveAspectRatio="xMidYMid meet">

<g transform="translate(0.000000,1024.000000) scale(0.100000,-0.100000)"
fill="#000000" stroke="none">
<path d="M762 9116 c1 -122 3 -135 19 -139 14 -4 19 0 20 16 0 12 1 67 2 122
l2 100 55 1 c30 1 90 2 133 3 61 1 77 4 77 16 0 13 -24 15 -155 15 l-155 0 2
-134z"/>
<path d="M1440 9235 c0 -12 20 -15 120 -15 100 0 120 3 120 15 0 13 -20 15
-120 15 -100 0 -120 -2 -120 -15z"/>
<path d="M2050 9235 c0 -13 23 -15 150 -15 l150 0 0 -485 c0 -423 2 -485 15
-485 13 0 15 63 17 483 l3 482 123 3 c99 2 122 5 122 17 0 13 -42 15 -290 15
-251 0 -290 -2 -290 -15z"/>
<path d="M3010 9236 c0 -10 21 -15 83 -19 45 -3 99 -7 120 -10 20 -2 37 0 37
5 0 4 32 8 70 8 56 0 70 3 70 15 0 13 -28 15 -190 15 -156 0 -190 -2 -190 -14z"/>
<path d="M3763 9235 c0 -10 11 -15 33 -15 32 0 33 -1 29 -37 -4 -33 -3 -34 3
-8 6 27 12 31 57 37 28 3 80 7 117 7 54 1 69 -2 77 -16 10 -17 10 -17 11 0 0
12 8 17 30 17 20 0 30 5 30 15 0 13 -28 15 -193 15 -166 0 -194 -2 -194 -15z"/>
<path d="M4520 9235 c0 -12 15 -15 75 -15 59 0 75 -3 75 -14 0 -8 4 -18 10
-21 5 -3 7 0 4 8 -4 11 3 15 23 16 144 6 203 14 203 27 0 12 -35 14 -195 14
-167 0 -195 -2 -195 -15z"/>
<path d="M5280 9235 c0 -13 22 -15 140 -15 l140 0 0 -420 c0 -365 2 -420 15
-420 13 0 15 56 17 418 l3 417 210 0 c242 0 266 -6 320 -83 28 -40 30 -52 33
-143 3 -74 7 -99 17 -99 19 0 29 113 16 173 -17 71 -54 122 -113 157 l-53 30
-372 0 c-325 0 -373 -2 -373 -15z"/>
<path d="M1400 8953 l5 -248 3 227 2 228 438 3 437 2 -437 3 c-382 2 -438 4
-438 17 0 8 -3 15 -7 15 -5 0 -6 -111 -3 -247z"/>
<path d="M2292 8948 c-2 -252 -2 -258 18 -258 19 0 20 7 20 255 0 140 -3 255
-7 255 -5 0 -7 -112 -5 -250 2 -165 -1 -250 -7 -250 -7 0 -12 90 -14 253 l-2
252 -3 -257z"/>
<path d="M2473 9193 c32 -2 81 -2 110 0 29 2 3 3 -58 3 -60 0 -84 -1 -52 -3z"/>
<path d="M2768 9193 c34 -2 88 -2 120 0 31 2 3 3 -63 3 -66 0 -92 -1 -57 -3z"/>
<path d="M3038 9193 c12 -2 30 -2 40 0 9 3 -1 5 -23 4 -22 0 -30 -2 -17 -4z"/>
<path d="M849 9153 l-34 -38 38 34 c20 19 37 36 37 38 0 8 -8 0 -41 -34z"/>
<path d="M3198 9173 c7 -3 16 -2 19 1 4 3 -2 6 -13 5 -11 0 -14 -3 -6 -6z"/>
<path d="M6970 9132 c-7 -3 -10 -231 -10 -662 0 -555 2 -659 14 -663 22 -9 26
2 26 65 l0 58 234 0 234 0 6 23 c3 12 5 87 4 167 l-2 145 -6 -150 -5 -150
-125 1 c-69 0 -173 1 -232 2 l-108 2 0 565 0 565 99 0 c91 0 99 1 94 18 -4 17
-15 19 -109 18 -57 -1 -108 -2 -114 -4z"/>
<path d="M7572 9118 c3 -23 6 -24 54 -27 33 -1 29 -30 -6 -48 -25 -12 -25 -13
-2 -13 12 0 22 5 22 10 0 6 7 10 15 10 8 0 15 -6 15 -13 0 -9 10 -12 31 -9 21
3 27 7 18 13 -7 4 -17 5 -21 2 -12 -7 -38 16 -38 33 0 10 18 13 75 11 41 -1
75 2 75 6 0 5 4 5 10 2 6 -4 10 -210 10 -571 l0 -564 -30 0 c-20 0 -30 -5 -30
-15 0 -13 38 -15 285 -15 233 0 285 2 285 14 0 17 -109 26 -307 26 l-143 0 0
100 0 100 165 0 164 0 4 -57 3 -58 2 63 2 62 -175 0 -174 0 -4 -107 c-1 -60
-4 147 -5 460 l-2 567 70 0 c63 0 70 2 70 20 0 19 -7 20 -221 20 l-220 0 3
-22z"/>
<path d="M8380 9120 c0 -19 7 -20 135 -20 128 0 135 1 135 20 0 19 -7 20 -135
20 -128 0 -135 -1 -135 -20z"/>
<path d="M9027 9134 c-4 -4 -7 -13 -7 -21 0 -10 23 -13 100 -13 l100 0 0 -570
0 -570 -290 0 -290 0 0 150 c0 93 -4 150 -10 150 -15 0 -13 -270 3 -303 l12
-27 208 0 207 0 2 -242 3 -243 2 238 c2 143 7 237 13 237 6 0 11 -94 13 -237
l2 -238 3 238 2 237 25 0 25 0 0 -256 0 -256 -27 2 c-16 1 -129 2 -253 1
l-225 -1 -11 -27 c-12 -28 -11 -289 0 -301 3 -3 6 61 6 141 l0 147 203 2 c217
3 369 -1 377 -9 3 -3 5 -50 6 -106 0 -126 1 -127 19 -127 13 0 15 116 13 1003
l-3 1002 -111 3 c-60 1 -113 -1 -117 -4z m191 -1466 l-3 -253 -27 -3 -28 -3 0
255 0 256 30 0 30 0 -2 -252z"/>
<path d="M3080 9120 c0 -5 5 -10 11 -10 5 0 7 5 4 10 -3 6 -8 10 -11 10 -2 0
-4 -4 -4 -10z"/>
<path d="M2442 9113 c29 -3 36 -8 32 -21 -5 -13 -4 -14 4 -3 5 7 16 17 23 22
9 5 -7 8 -41 7 -42 -1 -46 -2 -18 -5z"/>
<path d="M2598 9113 c6 -2 18 -2 25 0 6 3 1 5 -13 5 -14 0 -19 -2 -12 -5z"/>
<path d="M2718 9113 c7 -3 16 -2 19 1 4 3 -2 6 -13 5 -11 0 -14 -3 -6 -6z"/>
<path d="M3014 9101 c7 -9 16 -23 19 -31 3 -9 6 -4 6 12 1 14 7 28 14 31 6 3
-3 5 -21 4 -29 0 -31 -2 -18 -16z"/>
<path d="M5185 9100 c-3 -5 -1 -10 4 -10 6 0 11 5 11 10 0 6 -2 10 -4 10 -3 0
-8 -4 -11 -10z"/>
<path d="M7298 9103 c6 -2 18 -2 25 0 6 3 1 5 -13 5 -14 0 -19 -2 -12 -5z"/>
<path d="M7423 9103 c15 -2 37 -2 50 0 12 2 0 4 -28 4 -27 0 -38 -2 -22 -4z"/>
<path d="M2747 9037 c6 -93 11 -101 12 -20 0 39 -3 74 -7 77 -5 3 -7 -23 -5
-57z"/>
<path d="M5065 8990 c-54 -54 -97 -101 -94 -102 2 -2 49 43 103 99 55 57 98
103 95 103 -2 0 -49 -45 -104 -100z"/>
<path d="M9188 9083 c7 -3 16 -2 19 1 4 3 -2 6 -13 5 -11 0 -14 -3 -6 -6z"/>
<path d="M5211 9064 c15 -14 13 -19 -25 -57 -33 -33 -34 -35 -5 -8 27 24 44
32 60 28 20 -5 19 -4 -7 24 -15 16 -30 29 -33 29 -3 0 2 -7 10 -16z"/>
<path d="M7278 9073 c12 -2 30 -2 40 0 9 3 -1 5 -23 4 -22 0 -30 -2 -17 -4z"/>
<path d="M7448 9073 c7 -3 16 -2 19 1 4 3 -2 6 -13 5 -11 0 -14 -3 -6 -6z"/>
<path d="M7488 9073 c7 -3 16 -2 19 1 4 3 -2 6 -13 5 -11 0 -14 -3 -6 -6z"/>
<path d="M3824 8985 c0 -49 1 -71 3 -48 2 23 2 64 0 90 -2 26 -3 8 -3 -42z"/>
<path d="M5802 9061 c-11 -7 -10 -9 3 -14 9 -4 13 -3 10 2 -3 5 3 12 12 14 13
3 14 5 3 6 -8 0 -21 -3 -28 -8z"/>
<path d="M5858 9063 c7 -3 16 -2 19 1 4 3 -2 6 -13 5 -11 0 -14 -3 -6 -6z"/>
<path d="M7338 9062 c-10 -2 -18 -8 -18 -13 0 -5 6 -8 13 -6 8 1 14 -16 18
-48 l6 -50 1 50 c2 47 4 51 29 53 14 1 28 4 30 6 6 5 -59 12 -79 8z"/>
<path d="M2540 9049 c0 -5 5 -7 10 -4 6 3 10 8 10 11 0 2 -4 4 -10 4 -5 0 -10
-5 -10 -11z"/>
<path d="M2665 9050 c3 -5 8 -10 11 -10 2 0 4 5 4 10 0 6 -5 10 -11 10 -5 0
-7 -4 -4 -10z"/>
<path d="M2820 9050 c0 -5 5 -10 10 -10 6 0 10 5 10 10 0 6 -4 10 -10 10 -5 0
-10 -4 -10 -10z"/>
<path d="M2950 9049 c0 -5 5 -7 10 -4 6 3 10 8 10 11 0 2 -4 4 -10 4 -5 0 -10
-5 -10 -11z"/>
<path d="M3963 8995 c0 -38 2 -53 4 -32 2 20 2 52 0 70 -2 17 -4 1 -4 -38z"/>
<path d="M7553 8980 c0 -47 2 -66 4 -42 2 23 2 61 0 85 -2 23 -4 4 -4 -43z"/>
<path d="M7584 8955 c0 -60 1 -84 3 -52 2 32 2 81 0 110 -2 29 -3 3 -3 -58z"/>
<path d="M3033 9015 c0 -22 2 -30 4 -17 2 12 2 30 0 40 -3 9 -5 -1 -4 -23z"/>
<path d="M5913 9035 c0 -8 4 -12 9 -9 5 3 6 10 3 15 -9 13 -12 11 -12 -6z"/>
<path d="M7750 9040 c0 -5 5 -10 10 -10 6 0 10 5 10 10 0 6 -4 10 -10 10 -5 0
-10 -4 -10 -10z"/>
<path d="M8770 8723 c5 -325 7 -298 12 115 2 136 -1 212 -7 212 -7 0 -8 -113
-5 -327z"/>
<path d="M8848 9043 c7 -3 16 -2 19 1 4 3 -2 6 -13 5 -11 0 -14 -3 -6 -6z"/>
<path d="M7788 9033 c6 -2 18 -2 25 0 6 3 1 5 -13 5 -14 0 -19 -2 -12 -5z"/>
<path d="M7968 9033 c6 -2 18 -2 25 0 6 3 1 5 -13 5 -14 0 -19 -2 -12 -5z"/>
<path d="M988 9013 c7 -3 16 -2 19 1 4 3 -2 6 -13 5 -11 0 -14 -3 -6 -6z"/>
<path d="M7651 8983 c0 -29 2 -33 8 -18 7 18 4 55 -5 55 -2 0 -4 -17 -3 -37z"/>
<path d="M8304 8725 c0 -165 2 -234 3 -153 2 81 2 216 0 300 -1 84 -3 18 -3
-147z"/>
<path d="M4082 8980 c0 -19 2 -27 5 -17 2 9 2 25 0 35 -3 9 -5 1 -5 -18z"/>
<path d="M5926 8997 c3 -10 9 -15 12 -12 3 3 0 11 -7 18 -10 9 -11 8 -5 -6z"/>
<path d="M5745 8955 c0 -24 3 -39 7 -32 10 16 10 64 1 70 -5 3 -8 -15 -8 -38z"/>
<path d="M7600 8990 c0 -6 7 -10 15 -10 8 0 15 2 15 4 0 2 -7 6 -15 10 -8 3
-15 1 -15 -4z"/>
<path d="M7693 8983 c9 -2 23 -2 30 0 6 3 -1 5 -18 5 -16 0 -22 -2 -12 -5z"/>
<path d="M7911 8974 c0 -11 3 -14 6 -6 3 7 2 16 -1 19 -3 4 -6 -2 -5 -13z"/>
<path d="M5952 8955 c0 -16 2 -22 5 -12 2 9 2 23 0 30 -3 6 -5 -1 -5 -18z"/>
<path d="M9024 8880 c0 -58 1 -81 3 -52 2 28 2 76 0 105 -2 28 -3 5 -3 -53z"/>
<path d="M7695 8940 c-8 -13 8 -18 29 -10 19 6 19 7 -2 12 -12 4 -24 2 -27 -2z"/>
<path d="M7780 8935 c0 -8 8 -11 20 -8 11 3 20 7 20 8 0 1 -9 5 -20 8 -12 3
-20 0 -20 -8z"/>
<path d="M3031 8924 c0 -11 3 -14 6 -6 3 7 2 16 -1 19 -3 4 -6 -2 -5 -13z"/>
<path d="M5070 8894 c-25 -25 -38 -42 -30 -39 14 7 87 85 78 85 -2 0 -24 -21
-48 -46z"/>
<path d="M5930 8931 c0 -6 4 -13 10 -16 6 -3 7 1 4 9 -7 18 -14 21 -14 7z"/>
<path d="M7968 8933 c7 -3 16 -2 19 1 4 3 -2 6 -13 5 -11 0 -14 -3 -6 -6z"/>
<path d="M932 8912 l-23 -18 61 -58 c50 -48 63 -56 75 -46 19 16 19 21 0 14
-10 -4 -15 0 -15 12 0 9 -3 14 -7 11 -9 -9 -63 43 -63 60 0 8 -4 11 -10 8 -14
-9 -13 8 2 23 18 18 6 14 -20 -6z"/>
<path d="M2750 8902 c0 -33 -24 -58 -60 -65 -21 -4 -20 -4 7 -6 19 0 36 -8 42
-18 6 -10 11 -13 11 -7 0 5 -5 15 -11 21 -13 13 -2 36 15 30 8 -3 10 8 8 34
-5 45 -12 52 -12 11z"/>
<path d="M4011 8914 c0 -11 3 -14 6 -6 3 7 2 16 -1 19 -3 4 -6 -2 -5 -13z"/>
<path d="M7652 8900 c0 -14 2 -19 5 -12 2 6 2 18 0 25 -3 6 -5 1 -5 -13z"/>
<path d="M5915 8901 c-3 -5 -2 -12 3 -15 5 -3 9 1 9 9 0 17 -3 19 -12 6z"/>
<path d="M5750 8897 c0 -2 6 -10 14 -16 11 -9 16 -9 22 1 4 7 4 10 -1 6 -4 -4
-14 -3 -22 3 -7 6 -13 9 -13 6z"/>
<path d="M7268 8893 c12 -2 30 -2 40 0 9 3 -1 5 -23 4 -22 0 -30 -2 -17 -4z"/>
<path d="M7478 8893 c7 -3 16 -2 19 1 4 3 -2 6 -13 5 -11 0 -14 -3 -6 -6z"/>
<path d="M3824 8650 c0 -135 2 -190 3 -122 2 67 2 177 0 245 -1 67 -3 12 -3
-123z"/>
<path d="M4011 8874 c0 -11 3 -14 6 -6 3 7 2 16 -1 19 -3 4 -6 -2 -5 -13z"/>
<path d="M5400 8872 c0 -7 5 -12 11 -12 6 0 3 -7 -5 -16 -19 -18 -21 -31 -3
-17 6 6 18 12 25 14 10 3 8 10 -7 23 -12 11 -21 14 -21 8z"/>
<path d="M7670 8870 c0 -5 5 -10 10 -10 6 0 10 5 10 10 0 6 -4 10 -10 10 -5 0
-10 -4 -10 -10z"/>
<path d="M7781 8864 c0 -11 3 -14 6 -6 3 7 2 16 -1 19 -3 4 -6 -2 -5 -13z"/>
<path d="M2470 8862 c0 -6 6 -13 13 -16 10 -5 10 -7 0 -12 -7 -3 -13 -13 -13
-22 1 -15 2 -15 11 1 5 9 20 17 32 18 15 0 17 2 7 6 -8 3 -23 12 -32 21 -10 8
-18 10 -18 4z"/>
<path d="M5320 8859 c0 -5 5 -7 10 -4 6 3 10 8 10 11 0 2 -4 4 -10 4 -5 0 -10
-5 -10 -11z"/>
<path d="M5816 8862 c-3 -5 8 -6 25 -4 16 2 29 6 29 8 0 8 -49 4 -54 -4z"/>
<path d="M3962 8648 c-1 -120 1 -218 6 -218 4 0 6 64 4 142 -4 268 -8 293 -10
76z"/>
<path d="M4043 8785 c0 -44 2 -61 4 -37 2 23 2 59 0 80 -2 20 -4 1 -4 -43z"/>
<path d="M2583 8833 c15 -2 37 -2 50 0 12 2 0 4 -28 4 -27 0 -38 -2 -22 -4z"/>
<path d="M3030 8831 c0 -6 4 -13 10 -16 6 -3 7 1 4 9 -7 18 -14 21 -14 7z"/>
<path d="M4013 8780 c0 -36 2 -50 4 -32 2 17 2 47 0 65 -2 17 -4 3 -4 -33z"/>
<path d="M5458 8815 c5 -29 8 -31 15 -11 3 8 0 19 -7 25 -10 9 -12 6 -8 -14z"/>
<path d="M5080 8806 c0 -2 8 -10 18 -17 15 -13 16 -12 3 4 -13 16 -21 21 -21
13z"/>
<path d="M5359 8793 c-13 -16 -12 -17 4 -4 9 7 17 15 17 17 0 8 -8 3 -21 -13z"/>
<path d="M2540 8759 c0 -5 5 -7 10 -4 6 3 10 8 10 11 0 2 -4 4 -10 4 -5 0 -10
-5 -10 -11z"/>
<path d="M5140 8745 c13 -14 26 -25 28 -25 3 0 -5 11 -18 25 -13 14 -26 25
-28 25 -3 0 5 -11 18 -25z"/>
<path d="M5283 8720 c-28 -28 -48 -50 -44 -50 4 0 29 23 56 50 64 65 55 64
-12 0z"/>
<path d="M5409 8743 l-24 -28 28 24 c15 14 27 26 27 28 0 8 -8 1 -31 -24z"/>
<path d="M1538 8723 c67 -2 177 -2 245 0 67 1 12 3 -123 3 -135 0 -190 -2
-122 -3z"/>
<path d="M1983 8723 c26 -2 68 -2 95 0 26 2 4 3 -48 3 -52 0 -74 -1 -47 -3z"/>
<path d="M2168 8723 c23 -2 59 -2 80 0 20 2 1 4 -43 4 -44 0 -61 -2 -37 -4z"/>
<path d="M4010 8699 c0 -5 9 -9 20 -9 11 0 20 2 20 4 0 2 -9 6 -20 9 -11 3
-20 1 -20 -4z"/>
<path d="M5180 8706 c0 -2 8 -10 18 -17 15 -13 16 -12 3 4 -13 16 -21 21 -21
13z"/>
<path d="M5344 8678 l-29 -33 33 29 c30 28 37 36 29 36 -2 0 -16 -15 -33 -32z"/>
<path d="M9068 8703 c12 -2 30 -2 40 0 9 3 -1 5 -23 4 -22 0 -30 -2 -17 -4z"/>
<path d="M1378 8693 c7 -3 16 -2 19 1 4 3 -2 6 -13 5 -11 0 -14 -3 -6 -6z"/>
<path d="M7702 8503 c4 -186 23 -188 23 -3 0 107 -3 140 -13 140 -10 0 -12
-31 -10 -137z"/>
<path d="M9024 8555 c0 -49 1 -71 3 -48 2 23 2 64 0 90 -2 26 -3 8 -3 -42z"/>
<path d="M7217 8589 c4 -16 8 -17 14 -7 13 19 11 28 -5 28 -9 0 -12 -7 -9 -21z"/>
<path d="M760 8444 c0 -151 1 -155 21 -152 19 3 20 9 20 146 0 78 -1 147 -1
152 0 6 -9 10 -20 10 -19 0 -20 -7 -20 -156z"/>
<path d="M910 8439 c0 -91 4 -138 10 -134 6 4 10 62 10 141 0 83 -4 134 -10
134 -6 0 -10 -54 -10 -141z"/>
<path d="M7222 8495 c0 -44 2 -62 7 -50 4 11 5 43 1 70 -7 49 -7 49 -8 -20z"/>
<path d="M5453 8481 c0 -11 5 -18 9 -15 4 3 5 11 1 19 -7 21 -12 19 -10 -4z"/>
<path d="M4083 8440 c0 -25 2 -35 4 -22 2 12 2 32 0 45 -2 12 -4 2 -4 -23z"/>
<path d="M9037 8439 c7 -7 15 -10 18 -7 3 3 -2 9 -12 12 -14 6 -15 5 -6 -5z"/>
<path d="M7222 8386 c1 -20 6 -40 11 -43 4 -3 5 12 1 34 -9 51 -16 56 -12 9z"/>
<path d="M2473 8380 c0 -17 3 -26 7 -20 4 7 56 10 151 8 l144 -3 0 -32 c0 -17
3 -29 7 -26 13 8 9 50 -7 63 -10 8 -56 12 -149 11 -114 -2 -136 1 -144 14 -7
13 -9 9 -9 -15z"/>
<path d="M9170 8400 c0 -5 5 -10 11 -10 5 0 7 5 4 10 -3 6 -8 10 -11 10 -2 0
-4 -4 -4 -10z"/>
<path d="M9027 8373 c18 -2 50 -2 70 0 21 2 7 4 -32 4 -38 0 -55 -2 -38 -4z"/>
<path d="M7773 8363 c9 -2 23 -2 30 0 6 3 -1 5 -18 5 -16 0 -22 -2 -12 -5z"/>
<path d="M7379 8335 c-7 -37 0 -140 9 -143 9 -3 12 18 12 72 0 44 -4 76 -10
76 -5 0 -10 -2 -11 -5z"/>
<path d="M7990 8320 c0 -5 6 -10 13 -11 81 -3 123 -1 127 6 3 6 -26 11 -67 13
-46 2 -73 -1 -73 -8z"/>
<path d="M2465 8310 c-3 -5 -1 -10 4 -10 6 0 11 5 11 10 0 6 -2 10 -4 10 -3 0
-8 -4 -11 -10z"/>
<path d="M3948 8313 c7 -3 16 -2 19 1 4 3 -2 6 -13 5 -11 0 -14 -3 -6 -6z"/>
<path d="M7132 8292 c-10 -23 -10 -35 0 -59 14 -33 32 -33 61 0 21 24 22 41 2
60 -8 8 -11 17 -8 21 4 3 -5 6 -18 6 -17 0 -28 -8 -37 -28z m58 -21 c8 -16 6
-21 -11 -26 -25 -8 -44 7 -36 29 9 22 34 20 47 -3z"/>
<path d="M9078 8303 c7 -3 16 -2 19 1 4 3 -2 6 -13 5 -11 0 -14 -3 -6 -6z"/>
<path d="M8123 8255 c0 -22 2 -30 4 -17 2 12 2 30 0 40 -3 9 -5 -1 -4 -23z"/>
<path d="M3900 8245 c0 -2 6 -8 13 -14 10 -8 14 -7 14 2 0 8 -6 14 -14 14 -7
0 -13 -1 -13 -2z"/>
<path d="M3948 8213 c6 -2 18 -2 25 0 6 3 1 5 -13 5 -14 0 -19 -2 -12 -5z"/>
<path d="M7335 8140 c3 -5 8 -10 11 -10 2 0 4 5 4 10 0 6 -5 10 -11 10 -5 0
-7 -4 -4 -10z"/>
<path d="M7394 8113 c17 -18 25 -33 20 -33 -5 0 -14 -10 -19 -22 -6 -13 -20
-27 -32 -33 -13 -5 -23 -13 -23 -18 0 -4 -4 -5 -10 -2 -6 3 -7 -1 -4 -9 3 -9
9 -16 13 -16 9 0 106 99 100 102 -2 2 -20 17 -39 33 l-35 30 29 -32z"/>
<path d="M8060 8129 c-20 -6 -17 -7 19 -8 24 -1 41 2 37 6 -10 10 -27 11 -56
2z"/>
<path d="M7132 8097 c-16 -45 2 -87 38 -86 14 0 19 3 12 6 -10 4 -8 9 7 20 12
8 21 21 21 29 0 14 -46 64 -59 64 -4 0 -12 -15 -19 -33z m57 -25 c7 -14 4 -20
-15 -29 -13 -6 -22 -7 -18 -2 3 5 0 9 -5 9 -6 0 -11 9 -11 20 0 25 35 27 49 2z"/>
<path d="M8137 8110 c4 -13 0 -26 -8 -32 -12 -8 -11 -9 1 -5 18 5 26 35 11 50
-7 7 -8 3 -4 -13z"/>
<path d="M7974 8095 c1 -18 8 -20 66 -21 l65 0 -62 3 c-48 3 -63 8 -66 21 -3
12 -4 11 -3 -3z"/>
<path d="M5260 8088 c0 -5 68 -8 150 -8 l150 0 0 -30 0 -30 -349 0 c-309 0
-350 -2 -355 -16 -3 -9 -6 -18 -6 -20 0 -2 160 -4 355 -4 l355 0 0 -60 0 -59
-72 -4 -73 -3 72 -2 72 -2 0 -259 0 -260 -22 -4 -22 -4 23 -2 c22 -1 22 -2 22
-171 0 -149 -2 -170 -16 -170 -10 0 -14 5 -10 16 4 10 2 13 -6 8 -6 -4 -146
-6 -310 -6 -214 2 -297 -1 -292 -9 4 -7 -1 -10 -12 -7 -18 3 -19 20 -21 347
-1 188 -4 346 -8 349 -4 4 -77 7 -163 8 l-157 0 144 -5 143 -6 4 -343 c4 -337
4 -344 -16 -349 -11 -3 -20 -12 -20 -19 0 -12 73 -14 450 -14 434 0 450 1 460
19 6 12 9 81 8 168 l-2 148 -6 -150 -5 -150 -65 0 -65 0 -2 480 c-1 264 -3
510 -3 546 0 60 -2 67 -22 73 -33 9 -308 12 -308 4z"/>
<path d="M7270 8074 c0 -8 5 -12 10 -9 6 4 8 11 5 16 -9 14 -15 11 -15 -7z"/>
<path d="M7956 8012 c-3 -5 21 -7 52 -5 81 6 87 11 15 12 -34 1 -64 -3 -67 -7z"/>
<path d="M8155 8010 c3 -5 10 -10 16 -10 5 0 9 5 9 10 0 6 -7 10 -16 10 -8 0
-12 -4 -9 -10z"/>
<path d="M8037 7988 c15 -7 30 -7 50 0 26 10 24 10 -22 11 -42 0 -46 -2 -28
-11z"/>
<path d="M821 7954 c0 -11 3 -14 6 -6 3 7 2 16 -1 19 -3 4 -6 -2 -5 -13z"/>
<path d="M2050 7960 c0 -6 57 -10 150 -10 l150 0 0 -115 0 -115 -102 -2 -103
-2 98 -3 97 -4 2 -182 c3 -423 3 -523 0 -534 -3 -9 -81 -12 -320 -13 -173 0
-318 -3 -321 -6 -3 -3 -6 -76 -7 -162 l0 -157 3 148 4 147 324 0 325 0 0 -642
0 -641 -272 6 c-149 4 -498 7 -775 7 l-504 0 2 53 c3 46 1 52 -16 52 -18 0
-20 -8 -23 -72 l-3 -73 810 0 811 0 2 653 3 652 433 3 c373 2 432 4 432 17 0
13 -59 15 -432 17 l-433 3 -3 483 c-2 419 -4 482 -17 482 -8 0 -15 5 -15 10 0
6 -57 10 -150 10 -93 0 -150 -4 -150 -10z"/>
<path d="M850 7495 c0 -389 -2 -445 -15 -445 -9 0 -15 -9 -14 -22 1 -17 2 -19
6 -5 3 10 15 17 31 18 15 0 21 3 15 6 -10 4 -13 102 -13 444 l0 439 215 0 215
0 3 -252 2 -253 3 258 2 257 -225 0 -225 0 0 -445z"/>
<path d="M767 7913 c-4 -3 -7 -73 -7 -154 0 -138 1 -147 20 -152 19 -5 20 0
20 154 0 126 -3 159 -13 159 -8 0 -17 -3 -20 -7z"/>
<path d="M2188 7883 c17 -2 47 -2 65 0 17 2 3 4 -33 4 -36 0 -50 -2 -32 -4z"/>
<path d="M4114 7675 c0 -93 2 -133 3 -88 2 45 2 122 0 170 -1 48 -3 12 -3 -82z"/>
<path d="M5511 7753 c-1 -13 6 -23 17 -26 15 -4 15 -5 0 -6 -10 -1 -16 -9 -15
-20 1 -14 5 -17 13 -11 6 6 14 7 17 3 4 -3 7 8 7 25 0 17 -5 34 -12 38 -7 4
-8 3 -4 -4 4 -7 3 -12 -3 -12 -5 0 -12 8 -14 18 -4 13 -5 12 -6 -5z"/>
<path d="M5460 7720 c0 -5 5 -10 10 -10 6 0 10 5 10 10 0 6 -4 10 -10 10 -5 0
-10 -4 -10 -10z"/>
<path d="M2103 7713 c9 -2 23 -2 30 0 6 3 -1 5 -18 5 -16 0 -22 -2 -12 -5z"/>
<path d="M3632 7680 c0 -14 2 -19 5 -12 2 6 2 18 0 25 -3 6 -5 1 -5 -13z"/>
<path d="M2094 7510 c0 -96 2 -136 3 -87 2 48 2 126 0 175 -1 48 -3 8 -3 -88z"/>
<path d="M5511 7654 c0 -11 3 -14 6 -6 3 7 2 16 -1 19 -3 4 -6 -2 -5 -13z"/>
<path d="M2305 7650 c-3 -5 -1 -10 4 -10 6 0 11 5 11 10 0 6 -2 10 -4 10 -3 0
-8 -4 -11 -10z"/>
<path d="M2306 7616 c4 -12 -6 -16 -48 -19 l-53 -3 58 -2 c51 -2 57 0 57 18 0
11 -4 20 -10 20 -5 0 -7 -7 -4 -14z"/>
<path d="M2481 7604 c0 -11 3 -14 6 -6 3 7 2 16 -1 19 -3 4 -6 -2 -5 -13z"/>
<path d="M2582 7600 c0 -14 2 -19 5 -12 2 6 2 18 0 25 -3 6 -5 1 -5 -13z"/>
<path d="M5468 7613 c6 -2 18 -2 25 0 6 3 1 5 -13 5 -14 0 -19 -2 -12 -5z"/>
<path d="M1910 7525 c0 -50 4 -85 10 -85 11 0 11 3 11 85 0 82 0 85 -11 85 -6
0 -10 -35 -10 -85z"/>
<path d="M2549 7573 c-13 -16 -12 -17 4 -4 16 13 21 21 13 21 -2 0 -10 -8 -17
-17z"/>
<path d="M5430 7579 c0 -5 5 -7 10 -4 6 3 10 8 10 11 0 2 -4 4 -10 4 -5 0 -10
-5 -10 -11z"/>
<path d="M2062 7555 c0 -16 2 -22 5 -12 2 9 2 23 0 30 -3 6 -5 -1 -5 -18z"/>
<path d="M2497 7549 c7 -7 15 -10 18 -7 3 3 -2 9 -12 12 -14 6 -15 5 -6 -5z"/>
<path d="M5431 7544 c0 -11 3 -14 6 -6 3 7 2 16 -1 19 -3 4 -6 -2 -5 -13z"/>
<path d="M4903 7470 c0 -41 2 -58 4 -37 2 20 2 54 0 75 -2 20 -4 3 -4 -38z"/>
<path d="M2755 7519 c-9 -14 -2 -20 14 -10 8 6 9 11 3 15 -6 3 -14 1 -17 -5z"/>
<path d="M2644 7498 l-19 -23 23 19 c21 18 27 26 19 26 -2 0 -12 -10 -23 -22z"/>
<path d="M7000 7510 c0 -5 -9 -10 -20 -10 -20 0 -20 -7 -20 -480 l0 -480 435
0 434 0 3 -497 c3 -497 3 -498 26 -545 26 -53 88 -113 137 -134 19 -7 58 -17
88 -20 49 -6 55 -5 60 15 5 19 1 21 -35 21 -67 0 -120 22 -169 70 -57 55 -69
92 -69 223 l0 97 235 0 c194 0 235 2 235 14 0 10 -26 15 -107 20 -60 4 -126 6
-148 5 -22 -2 -78 -3 -124 -3 l-83 -1 -2 788 -2 789 91 -8 c49 -4 108 -7 130
-6 238 6 245 6 245 24 0 18 -24 20 -200 20 -310 0 -370 -3 -370 -17 0 -10 10
-15 30 -15 l30 0 0 -249 c0 -190 -3 -251 -12 -254 -10 -4 -10 -6 0 -6 9 -1 12
-37 12 -146 l0 -145 -49 0 c-30 0 -51 5 -54 13 -4 9 -7 9 -15 -1 -9 -13 -82
-25 -82 -14 0 7 -596 5 -615 -1 -7 -3 -11 122 -14 394 l-3 399 180 0 c179 0
181 0 185 -22 l4 -23 2 23 c1 20 6 22 51 22 l50 0 2 -152 2 -153 4 130 c2 72
0 149 -3 173 l-6 42 -235 0 -234 0 0 45 0 45 144 0 c86 0 147 4 151 10 4 6
-47 10 -144 10 -94 0 -151 -4 -151 -10z"/>
<path d="M2709 7473 l-24 -28 28 24 c25 23 32 31 24 31 -2 0 -14 -12 -28 -27z"/>
<path d="M2870 7435 c35 -36 67 -65 69 -65 3 0 -24 29 -59 65 -35 36 -67 65
-69 65 -3 0 24 -29 59 -65z"/>
<path d="M4950 7470 c0 -5 5 -10 10 -10 6 0 10 5 10 10 0 6 -4 10 -10 10 -5 0
-10 -4 -10 -10z"/>
<path d="M5077 7438 c2 -5 17 -8 33 -8 16 0 31 3 33 8 3 4 -12 7 -33 7 -21 0
-36 -3 -33 -7z"/>
<path d="M2564 7418 l-19 -23 23 19 c21 18 27 26 19 26 -2 0 -12 -10 -23 -22z"/>
<path d="M2659 7423 c-13 -16 -12 -17 4 -4 9 7 17 15 17 17 0 8 -8 3 -21 -13z"/>
<path d="M2775 7430 c3 -5 8 -10 11 -10 2 0 4 5 4 10 0 6 -5 10 -11 10 -5 0
-7 -4 -4 -10z"/>
<path d="M2610 7375 c-28 -30 -37 -31 -64 -8 -12 10 4 -8 34 -40 30 -31 56
-57 59 -57 5 0 -29 41 -48 58 -8 6 -10 12 -5 12 6 0 20 14 32 30 27 37 24 39
-8 5z"/>
<path d="M1293 7325 c0 -27 2 -38 4 -22 2 15 2 37 0 50 -2 12 -4 0 -4 -28z"/>
<path d="M5030 7356 c0 -8 4 -17 9 -20 5 -4 7 3 4 14 -6 23 -13 26 -13 6z"/>
<path d="M5431 7344 c0 -11 3 -14 6 -6 3 7 2 16 -1 19 -3 4 -6 -2 -5 -13z"/>
<path d="M2951 7335 c-1 -12 -36 -55 -80 -99 -71 -71 -82 -78 -107 -72 -24 6
-26 5 -15 -8 7 -9 17 -13 22 -10 5 3 8 2 7 -3 -2 -5 7 -21 20 -37 12 -16 22
-24 22 -19 0 6 -7 16 -15 23 -8 7 -15 17 -15 24 0 6 44 55 98 110 53 54 92 96
85 92 -6 -3 -14 0 -16 6 -3 7 -6 4 -6 -7z"/>
<path d="M2670 7330 c0 -5 5 -10 10 -10 6 0 10 5 10 10 0 6 -4 10 -10 10 -5 0
-10 -4 -10 -10z"/>
<path d="M7160 7300 c0 -5 5 -10 10 -10 6 0 10 5 10 10 0 6 -4 10 -10 10 -5 0
-10 -4 -10 -10z"/>
<path d="M2173 7293 c9 -2 25 -2 35 0 9 3 1 5 -18 5 -19 0 -27 -2 -17 -5z"/>
<path d="M4988 7293 c12 -2 30 -2 40 0 9 3 -1 5 -23 4 -22 0 -30 -2 -17 -4z"/>
<path d="M5268 7293 c17 -2 47 -2 65 0 17 2 3 4 -33 4 -36 0 -50 -2 -32 -4z"/>
<path d="M1910 7264 c0 -14 4 -23 10 -19 6 3 10 15 10 26 0 10 -4 19 -10 19
-5 0 -10 -12 -10 -26z"/>
<path d="M2292 7265 c0 -16 2 -22 5 -12 2 9 2 23 0 30 -3 6 -5 -1 -5 -18z"/>
<path d="M7081 7274 c0 -11 3 -14 6 -6 3 7 2 16 -1 19 -3 4 -6 -2 -5 -13z"/>
<path d="M4521 7132 l-1 -153 -262 4 c-145 2 -282 6 -305 9 -24 2 -43 0 -43
-4 0 -4 -80 -8 -177 -8 l-178 0 -12 -27 c-16 -33 -18 -303 -3 -303 6 0 10 57
10 150 l0 150 438 -2 437 -3 2 -60 c1 -33 2 -327 2 -652 l1 -593 885 0 886 0
-3 88 c-2 49 -7 87 -13 87 -5 0 -15 3 -20 7 -7 4 -9 -19 -7 -67 3 -59 1 -73
-12 -78 -9 -4 -166 -5 -348 -4 l-333 2 -3 58 c-2 41 1 57 10 57 9 0 9 3 -2 10
-13 9 -13 11 0 20 13 8 12 10 -2 10 -16 0 -18 -10 -18 -75 l0 -75 -120 0 -119
0 -4 108 -3 107 -2 -107 -2 -108 -30 0 c-23 0 -30 4 -30 20 0 11 -4 20 -9 20
-5 0 -7 -9 -4 -20 4 -15 0 -20 -16 -20 -16 0 -21 6 -21 25 0 16 6 25 15 25 8
0 15 5 15 10 0 6 7 10 15 10 8 0 12 6 9 14 -4 10 3 16 23 19 l28 4 -27 2 c-30
1 -36 18 -15 41 10 12 9 12 -4 2 -9 -6 -18 -9 -22 -6 -3 3 -3 -3 0 -15 4 -16
1 -21 -15 -21 -11 0 -23 6 -25 13 -4 10 -6 10 -6 0 -1 -9 -18 -13 -53 -13 -28
0 -49 -2 -46 -5 2 -3 37 -6 76 -6 74 -1 84 -7 56 -30 -11 -9 -18 -9 -22 -2 -5
7 -11 6 -20 -3 -7 -8 -8 -14 -2 -14 5 0 10 -11 10 -24 l0 -24 -310 -1 -309 -1
-1 465 0 466 125 -3 c69 -2 125 0 125 5 0 4 -56 7 -124 7 l-125 0 1 165 0 165
28 0 c20 0 30 6 35 23 11 34 15 264 5 290 -6 14 -9 -29 -9 -131z"/>
<path d="M1291 7254 c0 -11 3 -14 6 -6 3 7 2 16 -1 19 -3 4 -6 -2 -5 -13z"/>
<path d="M2063 7200 c0 -36 2 -50 4 -32 2 17 2 47 0 65 -2 17 -4 3 -4 -33z"/>
<path d="M2153 7215 c0 -27 2 -38 4 -22 2 15 2 37 0 50 -2 12 -4 0 -4 -28z"/>
<path d="M2685 7220 c21 -22 41 -40 44 -40 3 0 -13 18 -34 40 -21 22 -41 40
-44 40 -3 0 13 -18 34 -40z"/>
<path d="M4903 7185 c0 -44 2 -61 4 -37 2 23 2 59 0 80 -2 20 -4 1 -4 -43z"/>
<path d="M5123 7253 c9 -2 25 -2 35 0 9 3 1 5 -18 5 -19 0 -27 -2 -17 -5z"/>
<path d="M5293 7253 c9 -2 23 -2 30 0 6 3 -1 5 -18 5 -16 0 -22 -2 -12 -5z"/>
<path d="M2760 7240 c0 -5 5 -10 10 -10 6 0 10 5 10 10 0 6 -4 10 -10 10 -5 0
-10 -4 -10 -10z"/>
<path d="M7123 7243 c15 -2 39 -2 55 0 15 2 2 4 -28 4 -30 0 -43 -2 -27 -4z"/>
<path d="M7233 7180 c0 -41 2 -58 4 -37 2 20 2 54 0 75 -2 20 -4 3 -4 -38z"/>
<path d="M760 6985 l0 -245 210 0 210 0 0 28 c0 20 -3 23 -9 12 -6 -8 -8 -18
-5 -22 3 -4 -78 -7 -180 -7 l-184 0 1 97 2 97 278 1 c152 1 277 -2 277 -6 0
-5 11 -3 25 3 14 7 25 18 25 25 0 9 -68 12 -305 12 l-305 0 0 125 c0 118 -1
125 -20 125 -19 0 -20 -7 -20 -245z"/>
<path d="M7036 7221 c-4 -5 3 -7 14 -4 23 6 26 13 6 13 -8 0 -17 -4 -20 -9z"/>
<path d="M2093 7185 c0 -22 2 -30 4 -17 2 12 2 30 0 40 -3 9 -5 -1 -4 -23z"/>
<path d="M4963 7145 c0 -33 2 -45 4 -27 2 18 2 45 0 60 -2 15 -4 0 -4 -33z"/>
<path d="M6160 7085 l0 -105 -71 0 c-52 0 -70 -3 -67 -12 3 -8 29 -14 71 -16
l67 -3 0 -85 c0 -76 2 -85 18 -82 15 3 17 22 20 206 2 197 2 202 -18 202 -19
0 -20 -6 -20 -105z"/>
<path d="M7132 7150 c0 -14 2 -19 5 -12 2 6 2 18 0 25 -3 6 -5 1 -5 -13z"/>
<path d="M2292 7135 c0 -16 2 -22 5 -12 2 9 2 23 0 30 -3 6 -5 -1 -5 -18z"/>
<path d="M7703 7133 c9 -2 25 -2 35 0 9 3 1 5 -18 5 -19 0 -27 -2 -17 -5z"/>
<path d="M1910 7120 c0 -5 5 -10 10 -10 6 0 10 5 10 10 0 6 -4 10 -10 10 -5 0
-10 -4 -10 -10z"/>
<path d="M2290 7080 c0 -11 4 -20 9 -20 5 0 7 9 4 20 -3 11 -7 20 -9 20 -2 0
-4 -9 -4 -20z"/>
<path d="M7654 7005 c0 -55 1 -76 3 -47 2 29 2 74 0 100 -2 26 -3 2 -3 -53z"/>
<path d="M898 7043 c6 -2 18 -2 25 0 6 3 1 5 -13 5 -14 0 -19 -2 -12 -5z"/>
<path d="M1038 7043 c18 -2 45 -2 60 0 15 2 0 4 -33 4 -33 0 -45 -2 -27 -4z"/>
<path d="M1248 7043 c12 -2 32 -2 45 0 12 2 2 4 -23 4 -25 0 -35 -2 -22 -4z"/>
<path d="M2092 7020 c0 -14 2 -19 5 -12 2 6 2 18 0 25 -3 6 -5 1 -5 -13z"/>
<path d="M5018 7033 c7 -3 16 -2 19 1 4 3 -2 6 -13 5 -11 0 -14 -3 -6 -6z"/>
<path d="M5093 7033 c20 -2 54 -2 75 0 20 2 3 4 -38 4 -41 0 -58 -2 -37 -4z"/>
<path d="M5403 7033 c9 -2 23 -2 30 0 6 3 -1 5 -18 5 -16 0 -22 -2 -12 -5z"/>
<path d="M7780 7028 c0 -9 8 -19 18 -22 9 -3 5 -4 -10 -2 -16 2 -28 -1 -28 -5
0 -5 5 -9 10 -9 6 0 10 -10 11 -22 1 -22 1 -22 9 2 4 14 8 19 9 13 2 -30 21
-10 21 22 0 19 -4 35 -10 35 -5 0 -10 -6 -10 -12 0 -9 -4 -8 -10 2 -8 13 -10
13 -10 -2z"/>
<path d="M7735 7000 c3 -5 8 -10 11 -10 2 0 4 5 4 10 0 6 -5 10 -11 10 -5 0
-7 -4 -4 -10z"/>
<path d="M7903 6993 c9 -2 23 -2 30 0 6 3 -1 5 -18 5 -16 0 -22 -2 -12 -5z"/>
<path d="M8038 6993 c39 -2 105 -2 145 0 39 1 7 3 -73 3 -80 0 -112 -2 -72 -3z"/>
<path d="M7951 6964 c-1 -36 12 -45 62 -43 29 2 28 2 -8 8 -34 5 -41 10 -46
36 l-7 30 -1 -31z"/>
<path d="M8967 6933 c-3 -5 54 -7 125 -5 109 3 130 1 125 -11 -3 -8 -1 -20 4
-28 6 -10 9 -4 9 19 l0 32 -129 0 c-72 0 -132 -3 -134 -7z"/>
<path d="M8078 6923 c12 -2 32 -2 45 0 12 2 2 4 -23 4 -25 0 -35 -2 -22 -4z"/>
<path d="M8188 6923 c6 -2 18 -2 25 0 6 3 1 5 -13 5 -14 0 -19 -2 -12 -5z"/>
<path d="M1329 6903 c-13 -16 -12 -17 4 -4 9 7 17 15 17 17 0 8 -8 3 -21 -13z"/>
<path d="M7700 6869 c0 -4 5 -11 10 -14 6 -4 8 -11 5 -16 -4 -5 -1 -9 4 -9 6
0 11 11 11 23 0 14 -6 24 -15 24 -8 0 -15 -4 -15 -8z"/>
<path d="M7948 6451 c-2 -237 0 -431 5 -431 4 0 7 14 7 30 l0 30 147 0 c80 0
144 3 140 6 -3 3 -68 5 -145 5 l-140 -2 -1 124 c-2 98 1 126 13 136 10 9 49
11 129 9 71 -2 114 1 114 7 0 6 -43 9 -114 7 -78 -2 -119 1 -129 9 -11 9 -14
39 -14 124 0 85 3 115 14 124 10 8 51 11 129 9 63 -2 113 0 110 5 -7 12 -228
8 -240 -4 -8 -8 -11 23 -12 112 -1 68 -4 125 -6 127 -3 3 -6 -189 -7 -427z
m27 -80 c3 -5 1 -12 -5 -16 -5 -3 -10 1 -10 9 0 18 6 21 15 7z"/>
<path d="M8231 6854 c0 -11 3 -14 6 -6 3 7 2 16 -1 19 -3 4 -6 -2 -5 -13z"/>
<path d="M9220 6492 c-3 -211 -2 -386 2 -388 4 -3 9 39 10 93 2 72 6 97 16 96
9 -2 12 49 12 232 0 201 -2 234 -15 229 -11 -5 -15 7 -17 58 -2 34 -6 -110 -8
-320z"/>
<path d="M8010 6850 c0 -5 5 -10 10 -10 6 0 10 5 10 10 0 6 -4 10 -10 10 -5 0
-10 -4 -10 -10z"/>
<path d="M8165 6850 c3 -5 8 -10 11 -10 2 0 4 5 4 10 0 6 -5 10 -11 10 -5 0
-7 -4 -4 -10z"/>
<path d="M7223 6843 c59 -2 154 -2 210 0 56 1 8 3 -108 3 -115 0 -161 -2 -102
-3z"/>
<path d="M1239 6813 c-13 -16 -12 -17 4 -4 16 13 21 21 13 21 -2 0 -10 -8 -17
-17z"/>
<path d="M8233 6760 c0 -41 2 -58 4 -37 2 20 2 54 0 75 -2 20 -4 3 -4 -38z"/>
<path d="M7714 6710 c1 -55 4 -100 8 -100 5 0 8 45 7 100 0 55 -4 100 -8 100
-4 0 -7 -45 -7 -100z"/>
<path d="M7581 6784 c0 -11 3 -14 6 -6 3 7 2 16 -1 19 -3 4 -6 -2 -5 -13z"/>
<path d="M1199 6773 c-13 -16 -12 -17 4 -4 16 13 21 21 13 21 -2 0 -10 -8 -17
-17z"/>
<path d="M7063 6730 c0 -30 2 -43 4 -27 2 15 2 39 0 55 -2 15 -4 2 -4 -28z"/>
<path d="M7460 6730 c0 -5 5 -10 10 -10 6 0 10 5 10 10 0 6 -4 10 -10 10 -5 0
-10 -4 -10 -10z"/>
<path d="M8015 6720 c3 -5 8 -10 11 -10 2 0 4 5 4 10 0 6 -5 10 -11 10 -5 0
-7 -4 -4 -10z"/>
<path d="M8160 6719 c0 -5 5 -7 10 -4 6 3 10 8 10 11 0 2 -4 4 -10 4 -5 0 -10
-5 -10 -11z"/>
<path d="M5312 6703 c70 -2 187 -2 260 0 73 1 16 3 -127 3 -143 0 -203 -2
-133 -3z"/>
<path d="M8772 6685 c0 -16 2 -22 5 -12 2 9 2 23 0 30 -3 6 -5 -1 -5 -18z"/>
<path d="M7581 6684 c0 -11 3 -14 6 -6 3 7 2 16 -1 19 -3 4 -6 -2 -5 -13z"/>
<path d="M4530 6665 c13 -14 26 -25 28 -25 3 0 -5 11 -18 25 -13 14 -26 25
-28 25 -3 0 5 -11 18 -25z"/>
<path d="M8443 6510 c-1 -102 1 -179 4 -172 3 9 46 12 163 12 143 0 159 -2
163 -17 3 -10 4 59 4 152 l-1 170 -3 -147 -4 -148 -159 0 -160 0 -3 168 -3
167 -1 -185z"/>
<path d="M4660 6655 c13 -14 26 -25 28 -25 3 0 -5 11 -18 25 -13 14 -26 25
-28 25 -3 0 5 -11 18 -25z"/>
<path d="M5746 6667 c3 -10 9 -15 12 -12 3 3 0 11 -7 18 -10 9 -11 8 -5 -6z"/>
<path d="M5132 6630 c0 -19 2 -27 5 -17 2 9 2 25 0 35 -3 9 -5 1 -5 -18z"/>
<path d="M2300 6621 c0 -15 -8 -21 -32 -23 l-33 -3 38 -6 c35 -5 37 -4 37 23
0 15 -2 28 -5 28 -3 0 -5 -9 -5 -19z"/>
<path d="M8234 6505 c0 -60 1 -84 3 -52 2 32 2 81 0 110 -2 29 -3 3 -3 -58z"/>
<path d="M1593 6593 c48 -2 125 -2 170 0 45 1 6 3 -88 3 -93 0 -130 -2 -82 -3z"/>
<path d="M1890 6275 l0 -325 -192 -3 c-106 -1 -20 -2 192 -2 212 0 301 1 198
2 l-188 3 0 320 0 319 48 4 47 3 -52 2 -53 2 0 -325z"/>
<path d="M2023 6593 c15 -2 37 -2 50 0 12 2 0 4 -28 4 -27 0 -38 -2 -22 -4z"/>
<path d="M2128 6593 c6 -2 18 -2 25 0 6 3 1 5 -13 5 -14 0 -19 -2 -12 -5z"/>
<path d="M2208 6593 c7 -3 16 -2 19 1 4 3 -2 6 -13 5 -11 0 -14 -3 -6 -6z"/>
<path d="M5010 6576 c7 -7 13 -7 20 0 6 6 3 10 -10 10 -13 0 -16 -4 -10 -10z"/>
<path d="M5133 6545 c0 -27 2 -38 4 -22 2 15 2 37 0 50 -2 12 -4 0 -4 -28z"/>
<path d="M1984 6285 c0 -165 2 -234 3 -153 2 81 2 216 0 300 -1 84 -3 18 -3
-147z"/>
<path d="M5178 6558 c-10 -12 -18 -27 -18 -33 1 -18 38 -55 56 -55 9 0 14 3
11 7 -4 3 0 15 9 24 14 16 15 23 4 49 -15 35 -38 38 -62 8z m52 -27 c0 -25
-14 -34 -40 -26 -16 5 -18 10 -10 26 14 25 50 25 50 0z"/>
<path d="M5673 6573 c4 -3 -1 -15 -10 -25 -14 -16 -15 -23 -5 -38 7 -11 12
-27 12 -35 0 -8 5 -15 10 -15 6 0 10 5 10 10 0 6 7 10 15 10 9 0 20 11 26 24
9 20 8 29 -7 50 -11 14 -28 26 -38 26 -11 0 -16 -3 -13 -7z m45 -51 c3 -16 -2
-22 -17 -22 -24 0 -35 15 -27 36 9 23 40 13 44 -14z"/>
<path d="M5913 6574 c-9 -4 -9 -12 -2 -32 6 -15 8 -44 5 -64 -3 -20 -2 -40 4
-43 6 -4 10 21 10 69 0 42 -1 76 -2 75 -2 0 -8 -3 -15 -5z"/>
<path d="M8015 6570 c-3 -5 -1 -10 4 -10 6 0 11 5 11 10 0 6 -2 10 -4 10 -3 0
-8 -4 -11 -10z"/>
<path d="M8160 6570 c0 -5 5 -10 10 -10 6 0 10 5 10 10 0 6 -4 10 -10 10 -5 0
-10 -4 -10 -10z"/>
<path d="M2304 6425 c0 -82 2 -115 3 -72 2 43 2 110 0 150 -1 40 -3 5 -3 -78z"/>
<path d="M5838 6563 c7 -3 16 -2 19 1 4 3 -2 6 -13 5 -11 0 -14 -3 -6 -6z"/>
<path d="M5806 6552 c-3 -5 1 -9 9 -9 8 0 12 4 9 9 -3 4 -7 8 -9 8 -2 0 -6 -4
-9 -8z"/>
<path d="M4932 6531 c-8 -4 8 -26 42 -60 42 -41 55 -49 59 -37 4 9 2 16 -3 16
-13 0 -71 51 -66 58 7 12 -20 30 -32 23z"/>
<path d="M5078 6513 c7 -3 16 -2 19 1 4 3 -2 6 -13 5 -11 0 -14 -3 -6 -6z"/>
<path d="M5133 6425 c0 -33 2 -45 4 -27 2 18 2 45 0 60 -2 15 -4 0 -4 -33z"/>
<path d="M5821 6454 c0 -11 3 -14 6 -6 3 7 2 16 -1 19 -3 4 -6 -2 -5 -13z"/>
<path d="M8010 6440 c0 -5 5 -10 10 -10 6 0 10 5 10 10 0 6 -4 10 -10 10 -5 0
-10 -4 -10 -10z"/>
<path d="M8160 6440 c0 -5 5 -10 10 -10 6 0 10 5 10 10 0 6 -4 10 -10 10 -5 0
-10 -4 -10 -10z"/>
<path d="M5253 6426 c-13 -6 -23 -19 -23 -30 0 -11 3 -17 6 -13 4 3 13 0 21
-8 22 -22 49 -18 72 11 l21 27 -26 13 c-30 16 -40 16 -71 0z m55 -20 c5 -24
-10 -38 -31 -30 -20 7 -22 25 -5 42 16 16 32 10 36 -12z"/>
<path d="M5562 6426 l-22 -13 21 -26 c23 -30 66 -36 75 -12 4 8 10 12 15 9 5
-3 9 6 9 20 0 18 -4 24 -15 20 -8 -4 -15 -1 -15 5 0 14 -39 12 -68 -3z m56 -8
c7 -7 12 -17 12 -24 0 -19 -32 -26 -48 -10 -13 12 -13 18 -2 30 15 19 22 20
38 4z"/>
<path d="M9148 6413 c6 -2 18 -2 25 0 6 3 1 5 -13 5 -14 0 -19 -2 -12 -5z"/>
<path d="M6160 6300 c0 -103 1 -110 20 -110 19 0 20 7 20 110 0 103 -1 110
-20 110 -19 0 -20 -7 -20 -110z"/>
<path d="M4484 6225 c0 -88 1 -134 3 -102 2 33 8 55 14 52 5 -4 9 -2 9 4 0 5
24 12 53 14 l52 3 -52 2 -53 2 -2 83 -2 82 -5 -75 -5 -75 -6 85 c-5 66 -6 49
-6 -75z"/>
<path d="M4547 6373 c18 -2 50 -2 70 0 21 2 7 4 -32 4 -38 0 -55 -2 -38 -4z"/>
<path d="M767 6363 c-4 -3 -7 -51 -7 -105 0 -91 1 -98 20 -98 19 0 20 7 20
105 0 81 -3 105 -13 105 -8 0 -17 -3 -20 -7z"/>
<path d="M8234 6225 c0 -60 1 -84 3 -52 2 32 2 81 0 110 -2 29 -3 3 -3 -58z"/>
<path d="M4530 6300 c0 -5 5 -10 10 -10 6 0 10 5 10 10 0 6 -4 10 -10 10 -5 0
-10 -4 -10 -10z"/>
<path d="M8015 6290 c-3 -5 -1 -10 4 -10 6 0 11 5 11 10 0 6 -2 10 -4 10 -3 0
-8 -4 -11 -10z"/>
<path d="M8160 6290 c0 -5 5 -10 11 -10 5 0 7 5 4 10 -3 6 -8 10 -11 10 -2 0
-4 -4 -4 -10z"/>
<path d="M5545 6280 c-3 -5 -1 -10 4 -10 6 0 11 5 11 10 0 6 -2 10 -4 10 -3 0
-8 -4 -11 -10z"/>
<path d="M2300 6111 c0 -115 -3 -160 -12 -163 -7 -3 -6 -7 5 -11 16 -6 17 8
17 163 0 94 -2 170 -5 170 -3 0 -5 -72 -5 -159z"/>
<path d="M5660 6226 l0 -44 -52 0 c-73 0 -78 -1 -78 -12 0 -6 30 -10 70 -10
l70 0 0 55 c0 30 -2 55 -5 55 -3 0 -5 -20 -5 -44z"/>
<path d="M5221 6244 c0 -11 3 -14 6 -6 3 7 2 16 -1 19 -3 4 -6 -2 -5 -13z"/>
<path d="M2155 6239 c-4 -6 -5 -12 -2 -15 2 -3 7 2 10 11 7 17 1 20 -8 4z"/>
<path d="M5220 6173 c0 -9 20 -13 70 -13 40 0 70 4 70 10 0 12 3 11 -77 14
-45 1 -63 -2 -63 -11z"/>
<path d="M4618 6173 c7 -3 16 -2 19 1 4 3 -2 6 -13 5 -11 0 -14 -3 -6 -6z"/>
<path d="M8015 6160 c-3 -5 -1 -10 4 -10 6 0 11 5 11 10 0 6 -2 10 -4 10 -3 0
-8 -4 -11 -10z"/>
<path d="M8160 6160 c0 -5 5 -10 10 -10 6 0 10 5 10 10 0 6 -4 10 -10 10 -5 0
-10 -4 -10 -10z"/>
<path d="M4503 6120 c0 -25 2 -35 4 -22 2 12 2 32 0 45 -2 12 -4 2 -4 -23z"/>
<path d="M4530 6120 c0 -5 5 -10 10 -10 6 0 10 5 10 10 0 6 -4 10 -10 10 -5 0
-10 -4 -10 -10z"/>
<path d="M8967 6119 c7 -7 15 -10 18 -7 3 3 -2 9 -12 12 -14 6 -15 5 -6 -5z"/>
<path d="M4547 6043 c18 -2 50 -2 70 0 21 2 7 4 -32 4 -38 0 -55 -2 -38 -4z"/>
<path d="M7908 6013 c7 -3 16 -2 19 1 4 3 -2 6 -13 5 -11 0 -14 -3 -6 -6z"/>
<path d="M8032 6013 c37 -2 100 -2 140 0 40 1 10 3 -67 3 -77 0 -110 -1 -73
-3z"/>
<path d="M9068 6013 c6 -2 18 -2 25 0 6 3 1 5 -13 5 -14 0 -19 -2 -12 -5z"/>
<path d="M5323 5922 c-68 -1 -123 -6 -123 -10 0 -4 55 -5 121 -4 94 3 124 1
130 -10 7 -10 9 -9 9 4 0 9 -3 18 -7 20 -5 2 -63 2 -130 0z"/>
<path d="M9218 5865 l-3 -60 -285 -3 -285 -2 -12 -27 c-16 -33 -18 -303 -3
-303 6 0 10 57 10 150 l0 150 290 0 290 0 0 -107 c0 -83 -5 -117 -19 -148 -37
-81 -117 -134 -203 -135 -42 0 -48 -3 -48 -21 0 -20 3 -21 56 -15 73 8 113 26
164 72 78 71 84 92 88 314 4 192 3 196 -17 196 -18 0 -21 -7 -23 -61z"/>
<path d="M2148 5913 c12 -2 32 -2 45 0 12 2 2 4 -23 4 -25 0 -35 -2 -22 -4z"/>
<path d="M2228 5913 c6 -2 18 -2 25 0 6 3 1 5 -13 5 -14 0 -19 -2 -12 -5z"/>
<path d="M5001 5904 c0 -11 3 -14 6 -6 3 7 2 16 -1 19 -3 4 -6 -2 -5 -13z"/>
<path d="M5050 5900 c0 -5 5 -10 11 -10 5 0 7 5 4 10 -3 6 -8 10 -11 10 -2 0
-4 -4 -4 -10z"/>
<path d="M5105 5900 c-3 -5 -1 -10 4 -10 6 0 11 5 11 10 0 6 -2 10 -4 10 -3 0
-8 -4 -11 -10z"/>
<path d="M4758 5883 c34 -2 90 -2 125 0 34 2 6 3 -63 3 -69 0 -97 -1 -62 -3z"/>
<path d="M5026 5875 c-3 -9 0 -15 9 -15 9 0 12 6 9 15 -4 8 -7 15 -9 15 -2 0
-5 -7 -9 -15z"/>
<path d="M5132 5870 c0 -14 2 -19 5 -12 2 6 2 18 0 25 -3 6 -5 1 -5 -13z"/>
<path d="M5452 5860 c0 -14 2 -19 5 -12 2 6 2 18 0 25 -3 6 -5 1 -5 -13z"/>
<path d="M4614 5849 c-4 -8 -3 -9 4 -5 7 4 12 1 12 -7 0 -16 -40 -18 -53 -2
-5 6 -7 4 -4 -5 2 -8 10 -14 16 -12 6 1 11 -3 11 -8 0 -7 6 -7 20 0 21 11 27
35 11 45 -5 3 -13 0 -17 -6z"/>
<path d="M4993 5846 c-10 -11 -9 -15 2 -20 10 -4 15 1 15 14 0 23 -1 24 -17 6z"/>
<path d="M5060 5839 c0 -5 10 -9 22 -9 12 0 18 3 14 7 -10 11 -36 12 -36 2z"/>
<path d="M4703 5795 c0 -22 2 -30 4 -17 2 12 2 30 0 40 -3 9 -5 -1 -4 -23z"/>
<path d="M5653 5823 c81 -2 213 -2 295 0 81 1 14 3 -148 3 -162 0 -229 -2
-147 -3z"/>
<path d="M5025 5810 c-3 -5 -1 -10 4 -10 6 0 11 5 11 10 0 6 -2 10 -4 10 -3 0
-8 -4 -11 -10z"/>
<path d="M4743 5775 c0 -22 2 -30 4 -17 2 12 2 30 0 40 -3 9 -5 -1 -4 -23z"/>
<path d="M5663 5793 c87 -2 227 -2 310 0 84 1 13 3 -158 3 -170 0 -239 -2
-152 -3z"/>
<path d="M1068 5773 c7 -3 16 -2 19 1 4 3 -2 6 -13 5 -11 0 -14 -3 -6 -6z"/>
<path d="M1123 5773 c15 -2 39 -2 55 0 15 2 2 4 -28 4 -30 0 -43 -2 -27 -4z"/>
<path d="M1210 5776 c0 -9 30 -14 35 -6 4 6 -3 10 -14 10 -12 0 -21 -2 -21 -4z"/>
<path d="M1315 5773 c33 -2 62 -9 66 -14 4 -7 9 -4 12 5 6 14 -4 16 -66 14
l-72 -2 60 -3z"/>
<path d="M5025 5741 c-3 -5 -1 -12 5 -16 5 -3 10 1 10 9 0 18 -6 21 -15 7z"/>
<path d="M5150 5729 c0 -5 5 -7 10 -4 6 3 10 8 10 11 0 2 -4 4 -10 4 -5 0 -10
-5 -10 -11z"/>
<path d="M4798 5723 c23 -2 59 -2 80 0 20 2 1 4 -43 4 -44 0 -61 -2 -37 -4z"/>
<path d="M1532 5713 c70 -2 187 -2 260 0 73 1 16 3 -127 3 -143 0 -203 -2
-133 -3z"/>
<path d="M1955 5713 c11 -3 23 -10 27 -17 5 -7 8 -5 8 7 0 12 -7 17 -27 16
-22 -1 -23 -2 -8 -6z"/>
<path d="M8517 5360 c3 -13 14 -20 28 -20 14 0 25 7 28 20 4 17 0 20 -28 20
-28 0 -32 -3 -28 -20z"/>
<path d="M970 4890 c0 -82 3 -100 15 -100 12 0 15 16 15 85 l0 85 85 0 c69 0
85 3 85 15 0 12 -18 15 -100 15 l-100 0 0 -100z"/>
<path d="M1540 4975 c0 -13 22 -15 140 -15 118 0 140 2 140 15 0 13 -22 15
-140 15 -118 0 -140 -2 -140 -15z"/>
<path d="M2190 4973 c0 -16 13 -18 143 -18 132 0 143 1 139 18 -4 15 -19 17
-143 17 -126 0 -139 -2 -139 -17z"/>
<path d="M2843 4978 c1 -10 -33 -14 -133 -18 l-135 -6 107 -2 107 -2 4 -37 4
-38 1 38 2 37 100 0 100 0 -1 -280 0 -280 -150 0 c-93 0 -149 -4 -149 -10 0
-6 57 -10 150 -10 83 0 150 3 150 8 0 23 63 32 237 32 155 0 183 2 183 15 0
12 -31 15 -192 17 l-193 3 -2 210 c-1 116 -2 238 -3 273 l0 62 -95 0 c-71 0
-94 -3 -92 -12z"/>
<path d="M2695 4930 c-4 -6 -4 -14 -1 -17 3 -4 6 -1 6 5 0 7 15 12 34 12 27 0
36 -5 39 -20 4 -17 4 -16 3 2 -1 19 -8 24 -38 26 -20 2 -39 -2 -43 -8z"/>
<path d="M2820 4932 c0 -11 31 -40 45 -42 6 -1 9 -5 8 -10 -1 -4 9 -18 22 -30
l24 -23 -4 24 c-5 24 -42 59 -59 56 -6 -1 -10 4 -11 12 0 16 -25 29 -25 13z
m81 -69 c13 -16 12 -17 -3 -4 -17 13 -22 21 -14 21 2 0 10 -8 17 -17z"/>
<path d="M1252 4757 c-61 -62 -112 -118 -112 -125 0 -7 -4 -11 -9 -8 -4 3 -19
-7 -32 -22 -18 -20 -19 -22 -3 -9 28 23 33 22 74 -15 l35 -33 -29 32 c-21 23
-27 38 -23 56 7 24 173 192 179 179 2 -4 24 -25 48 -47 l45 -40 -42 45 c-48
51 -50 56 -26 82 9 10 14 18 12 18 -2 0 -55 -51 -117 -113z"/>
<path d="M2791 4854 c0 -11 3 -14 6 -6 3 7 2 16 -1 19 -3 4 -6 -2 -5 -13z"/>
<path d="M2195 4840 c4 -6 62 -10 141 -10 83 0 134 4 134 10 0 6 -54 10 -141
10 -91 0 -138 -4 -134 -10z"/>
<path d="M2930 4843 c0 -5 10 -18 23 -29 l22 -19 -20 25 c-11 14 -21 27 -22
29 -2 2 -3 0 -3 -6z"/>
<path d="M2700 4830 c-12 -8 -11 -10 8 -10 12 0 22 5 22 10 0 13 -11 13 -30 0z"/>
<path d="M1430 4805 c13 -14 26 -25 28 -25 3 0 -5 11 -18 25 -13 14 -26 25
-28 25 -3 0 5 -11 18 -25z"/>
<path d="M1310 4720 c0 -5 5 -10 10 -10 6 0 10 5 10 10 0 6 -4 10 -10 10 -5 0
-10 -4 -10 -10z"/>
<path d="M1510 4726 c0 -2 8 -10 18 -17 15 -13 16 -12 3 4 -13 16 -21 21 -21
13z"/>
<path d="M1461 4685 c20 -22 39 -47 41 -55 3 -8 7 -10 11 -4 3 6 -15 31 -41
55 -46 43 -46 43 -11 4z"/>
<path d="M2950 4690 c0 -5 5 -10 10 -10 6 0 10 5 10 10 0 6 -4 10 -10 10 -5 0
-10 -4 -10 -10z"/>
<path d="M2888 4585 c-2 -47 0 -85 5 -85 4 0 7 38 7 85 0 47 -2 85 -4 85 -3 0
-6 -38 -8 -85z"/>
<path d="M2640 4590 c0 -49 4 -70 13 -70 8 0 12 21 12 70 0 49 -4 70 -12 70
-9 0 -13 -21 -13 -70z"/>
<path d="M2831 4583 c1 -52 3 -61 9 -38 11 45 11 93 0 100 -6 4 -10 -19 -9
-62z"/>
<path d="M1220 4630 c0 -5 5 -10 10 -10 6 0 10 5 10 10 0 6 -4 10 -10 10 -5 0
-10 -4 -10 -10z"/>
<path d="M2748 4633 c7 -3 16 -2 19 1 4 3 -2 6 -13 5 -11 0 -14 -3 -6 -6z"/>
<path d="M1415 4620 c-3 -5 -1 -10 4 -10 6 0 11 5 11 10 0 6 -2 10 -4 10 -3 0
-8 -4 -11 -10z"/>
<path d="M2973 4590 c0 -25 2 -35 4 -22 2 12 2 32 0 45 -2 12 -4 2 -4 -23z"/>
<path d="M1469 4573 c-13 -16 -12 -17 4 -4 9 7 17 15 17 17 0 8 -8 3 -21 -13z"/>
<path d="M2750 4539 c0 -5 5 -7 10 -4 6 3 10 8 10 11 0 2 -4 4 -10 4 -5 0 -10
-5 -10 -11z"/>
<path d="M1259 4488 c37 -39 59 -54 70 -50 13 5 13 7 -4 10 -11 2 -42 25 -70
50 l-50 47 54 -57z"/>
<path d="M1325 4530 c-3 -5 -1 -10 4 -10 6 0 11 5 11 10 0 6 -2 10 -4 10 -3 0
-8 -4 -11 -10z"/>
<path d="M1404 4508 l-29 -33 33 29 c17 17 32 31 32 33 0 8 -8 1 -36 -29z"/>
<path d="M2950 4495 c0 -8 4 -15 10 -15 5 0 7 7 4 15 -4 8 -8 15 -10 15 -2 0
-4 -7 -4 -15z"/>
<path d="M6400 3850 c0 -513 2 -610 14 -610 21 0 43 145 24 156 -4 3 -8 14 -8
25 0 18 10 19 320 19 313 0 320 0 320 20 0 11 5 20 10 20 6 0 10 57 10 151 0
97 -4 148 -10 144 -6 -4 -10 -65 -10 -151 l0 -144 -316 0 -316 0 4 400 c3 343
5 402 18 410 8 5 10 10 4 10 -23 0 -24 31 -1 40 17 7 18 9 5 9 -10 1 -18 7
-18 14 0 6 -3 22 -6 35 l-7 23 124 -1 c166 -2 159 -3 159 20 0 19 -7 20 -160
20 l-160 0 0 -610z"/>
<path d="M7090 4440 c0 -15 7 -20 25 -20 l25 0 0 -128 c0 -108 2 -129 15 -129
11 0 13 6 8 21 -3 12 -6 68 -6 126 l1 105 113 0 114 0 3 -467 c1 -308 -1 -468
-8 -468 -5 0 -10 -9 -10 -20 0 -17 8 -19 73 -22 l72 -3 2 -143 c1 -79 4 -147
7 -150 3 -3 6 63 6 146 0 84 -4 152 -9 152 -5 0 -9 6 -8 13 3 83 -5 327 -10
327 -5 0 -8 -66 -8 -147 l0 -148 -32 -3 -33 -3 0 276 c0 218 3 275 13 269 9
-6 9 -4 -1 8 -9 12 -12 64 -12 202 l2 185 239 0 239 0 1 -202 c2 -404 2 -458
-4 -463 -3 -3 -2 -18 2 -32 3 -15 6 -34 5 -42 -1 -8 -2 -20 -3 -27 0 -6 -10
-10 -21 -8 -23 4 -23 -16 0 -28 9 -4 5 -6 -12 -4 -16 3 -28 0 -28 -4 0 -5 4
-9 9 -9 6 0 12 -17 14 -37 l4 -38 1 37 c2 35 3 37 20 23 15 -14 19 -44 13 -97
-1 -5 -24 -8 -52 -8 -43 0 -50 -3 -47 -17 3 -15 17 -18 96 -21 87 -3 92 -2 92
18 0 11 5 20 10 20 6 0 10 57 10 150 0 93 -4 150 -10 150 -6 0 -10 -57 -10
-150 l0 -150 -25 0 -25 0 0 471 0 470 53 -3 52 -3 0 -273 c0 -177 3 -271 10
-269 6 2 11 86 12 218 1 118 2 240 2 272 l1 57 95 0 c88 0 95 1 95 20 0 20 -7
20 -590 20 -583 0 -590 0 -590 -20z"/>
<path d="M8640 4440 c0 -19 6 -20 165 -20 l165 0 0 -470 0 -470 -335 0 c-327
0 -335 0 -335 -20 0 -18 8 -20 123 -22 l122 -3 1 -103 c1 -56 3 -104 5 -107 3
-2 11 0 18 4 9 6 14 30 13 75 l0 66 194 0 194 0 0 -62 c0 -35 1 -115 1 -178 1
-63 1 -184 0 -267 l-1 -153 -195 0 -195 0 1 73 c3 127 1 137 -21 137 -18 0
-19 -5 -14 -96 3 -58 1 -101 -6 -108 -7 -10 -61 -12 -214 -9 -112 2 -211 1
-220 -3 -24 -9 -19 -34 7 -34 12 0 210 0 440 0 l417 0 0 -105 c0 -98 1 -105
20 -105 19 0 19 11 17 998 l-2 997 -182 3 c-178 2 -183 2 -183 -18z m330
-1030 l0 -30 -195 0 -195 0 0 30 0 30 195 0 195 0 0 -30z"/>
<path d="M3790 4425 c0 -11 12 -15 48 -16 26 -1 51 -1 55 0 4 1 16 -3 27 -9
13 -7 21 -7 25 0 4 6 12 10 18 9 7 -1 33 -1 60 0 35 1 47 5 47 16 0 13 -22 15
-140 15 -118 0 -140 -2 -140 -15z"/>
<path d="M4443 4425 c0 -11 13 -15 46 -16 25 -1 50 -1 55 0 4 1 14 -3 22 -10
7 -6 19 -7 26 -3 16 10 19 11 85 12 42 2 51 5 47 17 -5 12 -31 15 -143 15
-116 0 -138 -2 -138 -15z"/>
<path d="M5094 4424 c1 -9 11 -21 21 -26 13 -8 16 -7 11 1 -5 8 33 11 139 11
l146 0 -3 -100 c-2 -55 -1 -100 2 -101 3 0 13 -2 23 -4 15 -3 17 8 17 116 l0
119 -179 0 c-159 0 -179 -2 -177 -16z"/>
<path d="M968 4278 c-3 -126 -1 -138 15 -138 15 0 17 13 17 138 0 114 -3 139
-14 139 -12 0 -16 -26 -18 -139z"/>
<path d="M8880 4395 c0 -8 2 -15 4 -15 2 0 6 7 10 15 3 8 1 15 -4 15 -6 0 -10
-7 -10 -15z"/>
<path d="M6540 4380 c0 -11 2 -20 4 -20 2 0 6 9 9 20 3 11 1 20 -4 20 -5 0 -9
-9 -9 -20z"/>
<path d="M6898 4393 c12 -2 32 -2 45 0 12 2 2 4 -23 4 -25 0 -35 -2 -22 -4z"/>
<path d="M6650 4370 c0 -5 5 -10 11 -10 5 0 7 5 4 10 -3 6 -8 10 -11 10 -2 0
-4 -4 -4 -10z"/>
<path d="M6682 4360 c0 -14 2 -19 5 -12 2 6 2 18 0 25 -3 6 -5 1 -5 -13z"/>
<path d="M6799 4363 c-13 -16 -12 -17 4 -4 16 13 21 21 13 21 -2 0 -10 -8 -17
-17z"/>
<path d="M8880 4360 c0 -6 -52 -10 -137 -10 -75 0 -134 -2 -132 -5 3 -2 64 -5
136 -6 l132 -1 0 -120 c0 -66 2 -122 5 -126 3 -3 6 58 6 136 0 78 -2 142 -5
142 -3 0 -5 -4 -5 -10z"/>
<path d="M6490 4344 c0 -8 5 -12 10 -9 6 4 8 11 5 16 -9 14 -15 11 -15 -7z"/>
<path d="M6532 4336 c7 -8 15 -10 18 -6 3 4 12 10 20 13 8 3 0 6 -18 6 -28 1
-31 -1 -20 -13z"/>
<path d="M6628 4343 c6 -2 18 -2 25 0 6 3 1 5 -13 5 -14 0 -19 -2 -12 -5z"/>
<path d="M6577 4318 c2 -5 13 -8 23 -8 10 0 21 3 23 8 3 4 -8 7 -23 7 -15 0
-26 -3 -23 -7z"/>
<path d="M6650 4320 c0 -5 5 -10 11 -10 5 0 7 5 4 10 -3 6 -8 10 -11 10 -2 0
-4 -4 -4 -10z"/>
<path d="M6681 4314 c0 -11 3 -14 6 -6 3 7 2 16 -1 19 -3 4 -6 -2 -5 -13z"/>
<path d="M7041 4304 c0 -11 3 -14 6 -6 3 7 2 16 -1 19 -3 4 -6 -2 -5 -13z"/>
<path d="M6489 4307 c-7 -19 -3 -47 8 -47 7 0 13 -7 13 -15 0 -8 -7 -15 -15
-15 -8 0 -15 5 -15 12 0 6 -3 9 -6 6 -3 -3 1 -16 8 -27 11 -18 11 -23 -2 -31
-11 -7 -3 -10 28 -10 37 0 42 2 41 23 -1 16 -2 18 -6 5 -5 -21 -43 -24 -43 -4
0 7 7 19 15 26 14 11 14 15 -2 32 -14 15 -14 21 -4 27 10 6 9 10 -3 14 -9 4
-16 5 -17 4z"/>
<path d="M6538 4303 c-2 -5 -1 -24 3 -43 7 -40 10 -38 12 8 2 32 -7 52 -15 35z"/>
<path d="M6874 4296 l-22 -12 20 -27 c22 -30 49 -35 71 -12 8 8 17 11 21 8 3
-4 6 6 6 21 0 15 -4 25 -9 21 -5 -3 -12 -1 -16 5 -8 13 -44 11 -71 -4z m56
-11 c15 -17 5 -35 -20 -35 -22 0 -33 23 -17 39 15 15 22 14 37 -4z"/>
<path d="M6650 4270 c0 -5 5 -10 11 -10 5 0 7 5 4 10 -3 6 -8 10 -11 10 -2 0
-4 -4 -4 -10z"/>
<path d="M6681 4264 c0 -11 3 -14 6 -6 3 7 2 16 -1 19 -3 4 -6 -2 -5 -13z"/>
<path d="M6584 4249 c-10 -17 13 -36 27 -22 12 12 4 33 -11 33 -5 0 -12 -5
-16 -11z m26 -9 c0 -5 -4 -10 -10 -10 -5 0 -10 5 -10 10 0 6 5 10 10 10 6 0
10 -4 10 -10z"/>
<path d="M6645 4240 c3 -5 8 -10 11 -10 2 0 4 5 4 10 0 6 -5 10 -11 10 -5 0
-7 -4 -4 -10z"/>
<path d="M6918 4203 c7 -3 16 -2 19 1 4 3 -2 6 -13 5 -11 0 -14 -3 -6 -6z"/>
<path d="M6867 4183 c-10 -10 -8 -23 4 -23 5 0 7 5 4 10 -4 6 12 10 40 10 32
0 44 -3 39 -12 -4 -7 -3 -8 5 -4 21 13 0 26 -43 26 -23 0 -46 -3 -49 -7z"/>
<path d="M4055 4160 c3 -5 8 -10 11 -10 2 0 4 5 4 10 0 6 -5 10 -11 10 -5 0
-7 -4 -4 -10z"/>
<path d="M3752 4140 c0 -14 2 -19 5 -12 2 6 2 18 0 25 -3 6 -5 1 -5 -13z"/>
<path d="M6970 4113 c0 -31 -3 -43 -9 -34 -6 9 -11 10 -15 2 -9 -13 -66 -15
-66 -2 0 5 -9 7 -20 4 -43 -11 -17 -23 50 -23 l70 0 0 50 c0 28 -2 50 -5 50
-3 0 -5 -21 -5 -47z"/>
<path d="M8393 4143 c9 -2 25 -2 35 0 9 3 1 5 -18 5 -19 0 -27 -2 -17 -5z"/>
<path d="M4588 4123 c7 -3 16 -2 19 1 4 3 -2 6 -13 5 -11 0 -14 -3 -6 -6z"/>
<path d="M3923 4113 c-73 -2 -133 -7 -133 -11 0 -4 55 -6 122 -4 103 3 124 1
134 -13 10 -13 12 -12 12 10 0 14 -1 24 -2 23 0 -1 -61 -4 -133 -5z"/>
<path d="M6513 4113 c20 -2 54 -2 75 0 20 2 3 4 -38 4 -41 0 -58 -2 -37 -4z"/>
<path d="M3000 3525 l0 -565 -545 0 -545 0 2 -52 c1 -36 2 -43 5 -20 l4 32
564 0 564 0 4 -77 3 -78 2 92 c2 70 -1 94 -12 100 -12 7 -13 91 -7 548 6 535
4 585 -26 585 -10 0 -13 -117 -13 -565z"/>
<path d="M8640 4081 c0 -5 9 -7 20 -4 11 3 20 7 20 9 0 2 -9 4 -20 4 -11 0
-20 -4 -20 -9z"/>
<path d="M8733 4083 c26 -2 67 -2 90 0 23 2 2 3 -48 3 -49 0 -68 -1 -42 -3z"/>
<path d="M6683 4005 c0 -44 2 -61 4 -37 2 23 2 59 0 80 -2 20 -4 1 -4 -43z"/>
<path d="M8880 4075 c-4 -47 0 -248 4 -253 3 -3 6 54 6 126 0 73 -2 132 -5
132 -3 0 -5 -2 -5 -5z"/>
<path d="M2807 4053 c18 -2 50 -2 70 0 21 2 7 4 -32 4 -38 0 -55 -2 -38 -4z"/>
<path d="M4445 4039 c-4 -6 -5 -12 -2 -15 2 -3 7 2 10 11 7 17 1 20 -8 4z"/>
<path d="M8300 4043 c0 -5 30 -7 67 -5 119 5 131 9 31 10 -54 1 -98 -1 -98 -5z"/>
<path d="M8508 3988 c5 -113 9 -125 10 -30 1 50 -1 92 -5 92 -5 0 -7 -28 -5
-62z"/>
<path d="M3840 4030 c0 -5 5 -10 10 -10 6 0 10 5 10 10 0 6 -4 10 -10 10 -5 0
-10 -4 -10 -10z"/>
<path d="M3295 3630 c0 -217 1 -306 2 -197 2 108 2 286 0 395 -1 108 -2 19 -2
-198z"/>
<path d="M7738 4010 c23 -10 28 -28 12 -48 -5 -7 -3 -6 6 2 22 19 9 56 -19 55
l-22 0 23 -9z"/>
<path d="M8815 4010 c3 -5 8 -10 11 -10 2 0 4 5 4 10 0 6 -5 10 -11 10 -5 0
-7 -4 -4 -10z"/>
<path d="M5326 3993 c-6 -14 -5 -15 5 -6 7 7 10 15 7 18 -3 3 -9 -2 -12 -12z"/>
<path d="M7711 3984 c0 -11 3 -14 6 -6 3 7 2 16 -1 19 -3 4 -6 -2 -5 -13z"/>
<path d="M3100 3750 c0 -135 -4 -220 -10 -220 -5 0 -11 47 -13 108 l-3 107 -2
-112 c-2 -94 1 -113 13 -113 12 0 15 -22 18 -112 1 -62 4 39 5 225 1 185 0
337 -3 337 -3 0 -5 -99 -5 -220z"/>
<path d="M6473 3963 c-7 -2 -13 -14 -13 -25 0 -14 5 -18 16 -14 9 3 36 6 60 6
24 0 44 5 44 10 0 6 -23 10 -51 10 -31 0 -48 4 -44 10 7 11 6 11 -12 3z"/>
<path d="M4503 3953 c48 -2 126 -2 175 0 48 1 8 3 -88 3 -96 0 -136 -2 -87 -3z"/>
<path d="M7818 3953 c12 -2 32 -2 45 0 12 2 2 4 -23 4 -25 0 -35 -2 -22 -4z"/>
<path d="M7778 3870 c-2 -39 0 -70 5 -70 4 0 7 32 7 70 0 39 -2 70 -4 70 -2 0
-6 -32 -8 -70z"/>
<path d="M6480 3910 c0 -5 7 -7 15 -4 8 4 15 8 15 10 0 2 -7 4 -15 4 -8 0 -15
-4 -15 -10z"/>
<path d="M6683 3880 c0 -25 2 -35 4 -22 2 12 2 32 0 45 -2 12 -4 2 -4 -23z"/>
<path d="M3840 3899 c0 -5 5 -7 10 -4 6 3 10 8 10 11 0 2 -4 4 -10 4 -5 0 -10
-5 -10 -11z"/>
<path d="M8815 3890 c3 -5 8 -10 11 -10 2 0 4 5 4 10 0 6 -5 10 -11 10 -5 0
-7 -4 -4 -10z"/>
<path d="M2955 3525 c0 -203 1 -285 2 -182 2 104 2 270 0 370 -1 100 -2 16 -2
-188z"/>
<path d="M7448 3883 c6 -2 18 -2 25 0 6 3 1 5 -13 5 -14 0 -19 -2 -12 -5z"/>
<path d="M7650 3866 c0 -14 4 -27 8 -30 5 -3 6 8 4 25 -5 35 -12 38 -12 5z"/>
<path d="M7835 3870 c-3 -5 -1 -10 4 -10 6 0 11 5 11 10 0 6 -2 10 -4 10 -3 0
-8 -4 -11 -10z"/>
<path d="M5328 3818 c2 -21 5 -38 7 -38 2 0 5 17 7 38 2 22 -1 39 -7 39 -6 0
-9 -17 -7 -39z"/>
<path d="M5400 3557 l5 -302 3 294 c1 162 -1 298 -5 302 -5 5 -6 -128 -3 -294z"/>
<path d="M2544 3535 c0 -176 2 -247 3 -157 2 90 2 234 0 320 -1 86 -3 13 -3
-163z"/>
<path d="M3800 3828 c0 -5 54 -8 120 -8 66 0 120 3 120 8 0 4 -54 7 -120 7
-66 0 -120 -3 -120 -7z"/>
<path d="M5420 3703 c0 -112 2 -133 15 -133 13 0 15 21 15 133 0 112 -2 134
-15 134 -13 0 -15 -22 -15 -134z"/>
<path d="M8636 3826 c5 -13 23 -16 115 -16 60 0 109 3 109 8 0 4 -45 6 -101 4
-68 -2 -105 1 -115 9 -12 10 -13 9 -8 -5z"/>
<path d="M2878 3813 c7 -3 16 -2 19 1 4 3 -2 6 -13 5 -11 0 -14 -3 -6 -6z"/>
<path d="M8496 3803 c-6 -14 -5 -15 5 -6 7 7 10 15 7 18 -3 3 -9 -2 -12 -12z"/>
<path d="M8881 3805 c-1 -5 -2 -58 -1 -116 1 -78 -3 -109 -13 -117 -7 -6 -61
-13 -123 -15 l-109 -3 123 0 122 1 0 -32 c0 -18 3 -33 8 -33 4 0 6 48 4 107
-3 136 -7 221 -11 208z"/>
<path d="M5070 3780 c0 -13 11 -13 30 0 12 8 11 10 -7 10 -13 0 -23 -4 -23
-10z"/>
<path d="M5158 3783 c23 -2 61 -2 85 0 23 2 4 4 -43 4 -47 0 -66 -2 -42 -4z"/>
<path d="M5314 3771 c15 -16 16 -49 15 -290 0 -150 2 -275 5 -278 3 -4 6 121
6 276 0 231 -3 285 -14 297 -21 21 -32 17 -12 -5z"/>
<path d="M968 3586 c-2 -100 -2 -290 0 -423 l3 -243 270 0 270 0 -1 -82 c-1
-46 -1 -455 -1 -910 l1 -828 410 0 c358 0 410 2 410 15 0 13 24 15 157 15 86
0 154 2 152 5 -3 2 -97 5 -209 6 -304 3 -368 8 -373 28 -4 14 -5 14 -6 -1 -1
-21 -37 -25 -44 -6 -2 7 -3 5 -2 -4 3 -16 -8 -18 -118 -18 -111 0 -123 2 -146
23 -24 20 -24 20 -8 1 l18 -22 -105 -1 -105 -2 1 481 c0 347 4 480 12 480 7 0
7 3 -1 8 -14 9 -15 212 -1 212 5 0 4 9 -2 21 -9 15 -8 24 1 35 8 10 8 14 0 14
-8 0 -11 76 -11 265 l0 265 35 0 35 0 0 -150 c0 -93 4 -150 10 -150 6 0 10 57
10 150 0 93 -4 150 -10 150 -5 0 -10 9 -10 20 0 20 -7 20 -305 20 l-305 0 0
403 c0 350 -2 404 -15 404 -12 0 -15 -30 -17 -181z"/>
<path d="M3840 3750 c0 -5 5 -10 10 -10 6 0 10 5 10 10 0 6 -4 10 -10 10 -5 0
-10 -4 -10 -10z"/>
<path d="M3985 3750 c3 -5 8 -10 11 -10 2 0 4 5 4 10 0 6 -5 10 -11 10 -5 0
-7 -4 -4 -10z"/>
<path d="M6503 3630 c0 -41 2 -58 4 -37 2 20 2 54 0 75 -2 20 -4 3 -4 -38z"/>
<path d="M6613 3630 c0 -41 2 -58 4 -37 2 20 2 54 0 75 -2 20 -4 3 -4 -38z"/>
<path d="M5125 3680 c3 -5 8 -10 11 -10 2 0 4 5 4 10 0 6 -5 10 -11 10 -5 0
-7 -4 -4 -10z"/>
<path d="M5250 3680 c0 -5 5 -10 10 -10 6 0 10 5 10 10 0 6 -4 10 -10 10 -5 0
-10 -4 -10 -10z"/>
<path d="M1108 3653 c6 -2 18 -2 25 0 6 3 1 5 -13 5 -14 0 -19 -2 -12 -5z"/>
<path d="M4498 3643 c45 -2 119 -2 165 0 45 1 8 3 -83 3 -91 0 -128 -2 -82 -3z"/>
<path d="M1108 3633 c6 -2 18 -2 25 0 6 3 1 5 -13 5 -14 0 -19 -2 -12 -5z"/>
<path d="M3840 3620 c0 -5 5 -10 10 -10 6 0 10 5 10 10 0 6 -4 10 -10 10 -5 0
-10 -4 -10 -10z"/>
<path d="M7820 3610 c0 -5 5 -10 10 -10 6 0 10 5 10 10 0 6 -4 10 -10 10 -5 0
-10 -4 -10 -10z"/>
<path d="M4440 3571 c0 -6 4 -13 10 -16 6 -3 7 1 4 9 -7 18 -14 21 -14 7z"/>
<path d="M1289 3543 l-24 -28 28 24 c25 23 32 31 24 31 -2 0 -14 -12 -28 -27z"/>
<path d="M2838 3543 c12 -2 32 -2 45 0 12 2 2 4 -23 4 -25 0 -35 -2 -22 -4z"/>
<path d="M3800 3543 c0 -5 54 -8 119 -8 66 0 117 3 114 8 -2 4 -56 7 -119 7
-63 0 -114 -3 -114 -7z"/>
<path d="M5120 3540 c0 -5 5 -10 10 -10 6 0 10 5 10 10 0 6 -4 10 -10 10 -5 0
-10 -4 -10 -10z"/>
<path d="M5250 3540 c0 -5 5 -10 10 -10 6 0 10 5 10 10 0 6 -4 10 -10 10 -5 0
-10 -4 -10 -10z"/>
<path d="M1108 3533 c6 -2 18 -2 25 0 6 3 1 5 -13 5 -14 0 -19 -2 -12 -5z"/>
<path d="M1336 3502 c-3 -5 10 -8 29 -8 18 1 31 4 28 9 -6 10 -51 9 -57 -1z"/>
<path d="M2838 3503 c12 -2 32 -2 45 0 12 2 2 4 -23 4 -25 0 -35 -2 -22 -4z"/>
<path d="M3840 3470 c0 -5 5 -10 11 -10 5 0 7 5 4 10 -3 6 -8 10 -11 10 -2 0
-4 -4 -4 -10z"/>
<path d="M1189 3443 c-13 -16 -12 -17 4 -4 9 7 17 15 17 17 0 8 -8 3 -21 -13z"/>
<path d="M1430 3456 c0 -2 8 -10 18 -17 15 -13 16 -12 3 4 -13 16 -21 21 -21
13z"/>
<path d="M1259 3423 l-24 -28 28 24 c25 23 32 31 24 31 -2 0 -14 -12 -28 -27z"/>
<path d="M1523 3364 c22 -26 22 -52 0 -78 -10 -12 -1 -5 20 13 36 34 52 56 22
31 -12 -10 -15 -10 -15 2 0 8 -10 23 -22 34 -23 19 -23 19 -5 -2z"/>
<path d="M6471 3344 c0 -11 3 -14 6 -6 3 7 2 16 -1 19 -3 4 -6 -2 -5 -13z"/>
<path d="M8890 3341 c0 -11 -6 -22 -12 -24 -7 -3 -3 -6 8 -6 17 -1 20 4 16 24
-5 30 -12 33 -12 6z"/>
<path d="M3840 3340 c0 -5 5 -10 10 -10 6 0 10 5 10 10 0 6 -4 10 -10 10 -5 0
-10 -4 -10 -10z"/>
<path d="M4723 3343 c9 -2 23 -2 30 0 6 3 -1 5 -18 5 -16 0 -22 -2 -12 -5z"/>
<path d="M1179 3316 c27 -29 33 -32 25 -13 -2 7 -14 19 -27 26 -21 13 -21 12
2 -13z"/>
<path d="M4703 3250 c0 -47 2 -66 4 -42 2 23 2 61 0 85 -2 23 -4 4 -4 -43z"/>
<path d="M4772 3300 c0 -19 2 -27 5 -17 2 9 2 25 0 35 -3 9 -5 1 -5 -18z"/>
<path d="M5067 3304 c-10 -14 -16 -35 -14 -47 4 -19 4 -18 6 5 0 15 10 33 22
41 11 8 17 17 12 20 -4 3 -16 -6 -26 -19z"/>
<path d="M5300 3320 c0 -5 5 -10 10 -10 6 0 10 5 10 10 0 6 -4 10 -10 10 -5 0
-10 -4 -10 -10z"/>
<path d="M4046 3284 c-5 -12 -26 -15 -131 -13 -70 1 -129 -1 -132 -4 -3 -3 58
-7 135 -9 139 -3 140 -3 140 20 -1 26 -4 28 -12 6z"/>
<path d="M8870 3289 c0 -5 5 -9 10 -9 6 0 12 0 15 0 14 0 8 13 -7 16 -10 1
-18 -2 -18 -7z"/>
<path d="M1220 3277 c0 -2 15 -16 33 -33 l32 -29 -29 33 c-28 30 -36 37 -36
29z"/>
<path d="M3137 3269 c7 -7 15 -10 18 -7 3 3 -2 9 -12 12 -14 6 -15 5 -6 -5z"/>
<path d="M4672 3255 c-8 -27 -2 -280 8 -315 10 -36 30 -56 30 -30 0 6 48 10
124 10 142 0 136 5 132 -103 -2 -34 -3 -113 -4 -174 l-2 -113 -131 0 -131 0 4
115 c3 63 1 115 -4 115 -4 0 -8 -54 -8 -120 l0 -120 55 0 55 0 0 -210 0 -210
-55 0 -55 0 0 -230 0 -230 155 0 155 0 0 640 0 640 225 0 225 0 0 140 c0 118
-2 140 -15 140 -11 0 -15 -14 -17 -57 l-1 -58 -7 45 -7 45 -1 -47 c-1 -27 3
-48 8 -48 6 0 10 -27 10 -60 l0 -59 -370 0 -369 0 -4 152 c-1 84 -4 148 -5
142z m288 -945 l0 -210 -75 0 -75 0 0 210 0 210 75 0 75 0 0 -210z m0 -430 l0
-211 -122 3 -123 3 -3 208 -2 207 125 0 125 0 0 -210z"/>
<path d="M4970 3250 c0 -5 5 -10 10 -10 6 0 10 5 10 10 0 6 -4 10 -10 10 -5 0
-10 -4 -10 -10z"/>
<path d="M5250 3250 c0 -5 5 -10 10 -10 6 0 10 5 10 10 0 6 -4 10 -10 10 -5 0
-10 -4 -10 -10z"/>
<path d="M3752 3225 c0 -16 2 -22 5 -12 2 9 2 23 0 30 -3 6 -5 -1 -5 -18z"/>
<path d="M2843 3233 c9 -2 23 -2 30 0 6 3 -1 5 -18 5 -16 0 -22 -2 -12 -5z"/>
<path d="M4055 3210 c-3 -5 -1 -10 4 -10 6 0 11 5 11 10 0 6 -2 10 -4 10 -3 0
-8 -4 -11 -10z"/>
<path d="M8324 3210 c43 -3 110 -3 150 0 54 5 35 7 -79 7 -121 0 -135 -1 -71
-7z"/>
<path d="M1290 3209 c0 -3 21 -26 48 -51 43 -41 47 -43 48 -22 1 16 -2 21 -13
17 -8 -3 -29 8 -49 28 -19 18 -34 31 -34 28z"/>
<path d="M3832 3193 c37 -2 100 -2 140 0 40 1 10 3 -67 3 -77 0 -110 -1 -73
-3z"/>
<path d="M4088 3193 c6 -2 18 -2 25 0 6 3 1 5 -13 5 -14 0 -19 -2 -12 -5z"/>
<path d="M4770 3124 c-5 -80 -4 -82 18 -82 19 0 20 2 8 12 -11 7 -16 34 -18
81 l-3 70 -5 -81z"/>
<path d="M8893 3125 c0 -44 2 -61 4 -37 2 23 2 59 0 80 -2 20 -4 1 -4 -43z"/>
<path d="M2858 3143 c6 -2 18 -2 25 0 6 3 1 5 -13 5 -14 0 -19 -2 -12 -5z"/>
<path d="M4970 3110 c0 -5 5 -10 11 -10 5 0 7 5 4 10 -3 6 -8 10 -11 10 -2 0
-4 -4 -4 -10z"/>
<path d="M5125 3110 c-3 -5 -1 -10 4 -10 6 0 11 5 11 10 0 6 -2 10 -4 10 -3 0
-8 -4 -11 -10z"/>
<path d="M5316 3055 c-16 -12 -17 -15 -4 -15 9 0 18 7 22 15 7 18 6 18 -18 0z"/>
<path d="M4702 3000 c0 -14 2 -19 5 -12 2 6 2 18 0 25 -3 6 -5 1 -5 -13z"/>
<path d="M8893 2915 c0 -38 2 -53 4 -32 2 20 2 52 0 70 -2 17 -4 1 -4 -38z"/>
<path d="M3623 2962 c-255 -2 -263 -3 -263 -22 0 -11 -4 -20 -10 -20 -6 0 -10
-57 -10 -150 0 -93 4 -150 10 -150 6 0 10 57 10 150 l0 150 35 0 35 0 0 -765
0 -765 -125 0 -125 0 2 -87 2 -88 3 78 4 77 119 0 120 0 0 -115 0 -115 -50 0
c-37 0 -50 -4 -50 -14 0 -22 33 -28 141 -24 68 2 99 7 99 15 0 6 12 14 28 16
15 2 -8 5 -50 6 l-78 1 0 260 0 259 113 4 112 3 -113 2 -112 2 0 625 1 625
322 0 322 0 0 -190 0 -190 -147 0 c-92 0 -148 -4 -148 -10 0 -6 57 -10 150
-10 93 0 150 4 150 10 0 6 7 10 15 10 13 0 15 28 15 190 l0 190 35 0 c21 0 35
-5 35 -12 0 -9 3 -8 10 2 7 11 12 12 21 3 8 -8 18 -9 28 -4 19 11 21 11 66 11
28 0 35 4 35 20 0 19 -7 20 -197 21 -109 1 -220 2 -248 3 -27 0 -168 0 -312
-2z"/>
<path d="M6430 2950 c0 -5 -7 -10 -15 -10 -13 0 -15 -106 -13 -917 l3 -918 78
-3 c62 -2 77 0 77 12 0 10 -18 16 -67 22 l-66 7 7 656 c3 361 6 702 6 759 -1
77 2 102 12 103 7 0 97 1 200 2 180 2 187 1 191 -18 4 -18 4 -17 6 3 l1 22
225 0 c193 0 225 2 225 15 0 13 -30 15 -207 16 -204 1 -640 6 -656 8 -9 1 -5
80 6 97 3 6 2 26 -3 45 -6 19 -10 46 -10 61 l0 28 150 0 c93 0 150 4 150 10 0
6 -57 10 -150 10 -93 0 -150 -4 -150 -10z"/>
<path d="M3948 2893 c7 -3 16 -2 19 1 4 3 -2 6 -13 5 -11 0 -14 -3 -6 -6z"/>
<path d="M4690 2855 c0 -14 3 -25 8 -25 4 0 7 11 7 25 0 14 -3 25 -7 25 -5 0
-8 -11 -8 -25z"/>
<path d="M2483 2820 c0 -30 2 -43 4 -27 2 15 2 39 0 55 -2 15 -4 2 -4 -28z"/>
<path d="M1912 2810 c0 -19 2 -27 5 -17 2 9 2 25 0 35 -3 9 -5 1 -5 -18z"/>
<path d="M6472 2820 c0 -14 2 -19 5 -12 2 6 2 18 0 25 -3 6 -5 1 -5 -13z"/>
<path d="M8870 2829 c0 -5 4 -8 9 -4 5 3 12 -3 14 -12 4 -14 5 -13 6 5 1 13
-5 22 -14 22 -8 0 -15 -5 -15 -11z"/>
<path d="M4690 2799 c0 -11 4 -18 10 -14 5 3 7 12 3 20 -7 21 -13 19 -13 -6z"/>
<path d="M4053 2755 c0 -27 2 -38 4 -22 2 15 2 37 0 50 -2 12 -4 0 -4 -28z"/>
<path d="M2328 2743 c7 -3 16 -2 19 1 4 3 -2 6 -13 5 -11 0 -14 -3 -6 -6z"/>
<path d="M2638 2743 c7 -3 16 -2 19 1 4 3 -2 6 -13 5 -11 0 -14 -3 -6 -6z"/>
<path d="M2948 2743 c7 -3 16 -2 19 1 4 3 -2 6 -13 5 -11 0 -14 -3 -6 -6z"/>
<path d="M2388 2693 c5 -21 7 -23 10 -9 2 10 0 22 -6 28 -6 6 -7 0 -4 -19z"/>
<path d="M7686 2713 c-2 -2 -22 -4 -45 -5 -23 0 -41 -4 -41 -9 0 -5 -1 -12 -2
-16 -2 -5 17 -10 42 -13 l45 -5 3 -741 2 -742 -61 -1 c-34 0 -64 -3 -67 -6 -5
-4 98 -10 121 -6 4 0 7 -3 7 -9 0 -5 -37 -10 -82 -12 -77 -3 -83 -5 -86 -25
l-3 -23 180 0 c174 0 181 1 181 20 0 18 -7 20 -80 20 l-80 0 0 765 0 765 35 0
35 0 0 -150 c0 -93 4 -150 10 -150 6 0 10 57 10 150 0 93 -4 150 -10 150 -5 0
-10 6 -10 14 0 8 -10 18 -22 22 -26 8 -76 12 -82 7z"/>
<path d="M7580 2520 c0 -93 4 -150 10 -150 6 0 10 57 10 150 0 93 -4 150 -10
150 -6 0 -10 -57 -10 -150z"/>
<path d="M6595 2640 c-3 -6 1 -7 9 -4 18 7 21 14 7 14 -6 0 -13 -4 -16 -10z"/>
<path d="M6678 2643 c12 -2 32 -2 45 0 12 2 2 4 -23 4 -25 0 -35 -2 -22 -4z"/>
<path d="M8431 2614 c0 -11 3 -14 6 -6 3 7 2 16 -1 19 -3 4 -6 -2 -5 -13z"/>
<path d="M3648 2593 c84 -2 219 -2 300 0 81 1 12 3 -153 3 -165 0 -231 -2
-147 -3z"/>
<path d="M6517 2582 c-22 -24 -21 -31 3 -29 10 1 17 3 15 6 -3 2 2 13 12 23
14 15 14 18 1 18 -8 0 -22 -8 -31 -18z"/>
<path d="M8378 2553 c100 -2 264 -2 365 0 100 1 18 2 -183 2 -201 0 -283 -1
-182 -2z"/>
<path d="M6668 2538 c-8 -5 2 -8 26 -8 22 0 36 3 32 7 -10 10 -43 11 -58 1z"/>
<path d="M6475 2520 c-10 -11 -16 -22 -13 -25 3 -3 13 6 22 20 20 30 16 32 -9
5z"/>
<path d="M6764 2508 l-19 -23 23 19 c21 18 27 26 19 26 -2 0 -12 -10 -23 -22z"/>
<path d="M6533 2463 c9 -2 23 -2 30 0 6 3 -1 5 -18 5 -16 0 -22 -2 -12 -5z"/>
<path d="M3623 2360 c0 -36 2 -50 4 -32 2 17 2 47 0 65 -2 17 -4 3 -4 -33z"/>
<path d="M6464 2396 c-3 -14 -3 -29 0 -35 4 -5 2 -12 -4 -16 -13 -8 -13 -72 0
-80 5 -3 7 -12 3 -20 -3 -8 0 -15 6 -15 7 0 10 32 9 95 0 52 -2 95 -4 95 -2 0
-6 -11 -10 -24z"/>
<path d="M1598 2383 c7 -3 16 -2 19 1 4 3 -2 6 -13 5 -11 0 -14 -3 -6 -6z"/>
<path d="M1630 2360 c0 -16 2 -30 4 -30 2 0 6 14 8 30 3 17 1 30 -4 30 -4 0
-8 -13 -8 -30z"/>
<path d="M6586 2343 c-3 -21 -1 -56 3 -78 8 -35 9 -31 10 38 1 83 -4 99 -13
40z"/>
<path d="M6533 2300 c0 -41 2 -58 4 -37 2 20 2 54 0 75 -2 20 -4 3 -4 -38z"/>
<path d="M6731 2361 l46 -6 -2 -62 c-2 -42 1 -63 9 -63 7 0 10 23 8 70 l-4 70
-51 -2 -52 -1 46 -6z"/>
<path d="M1630 2076 c0 -224 -1 -245 -17 -249 -13 -3 -14 -5 -3 -6 13 -1 15
-21 12 -126 -2 -84 0 -125 7 -125 8 0 11 117 11 375 0 206 -2 375 -5 375 -3 0
-5 -110 -5 -244z"/>
<path d="M2636 2269 c-27 -27 -47 -50 -45 -52 2 -1 22 -18 44 -37 l40 -35 -31
35 -32 35 34 35 c19 19 34 31 34 25 0 -14 20 17 20 33 0 21 -13 13 -64 -39z"/>
<path d="M3106 2303 c-4 -10 -4 -14 -1 -11 9 8 76 -52 70 -62 -4 -7 17 -20 31
-20 13 0 -1 24 -39 64 -47 51 -52 53 -61 29z"/>
<path d="M2928 2233 c7 -3 16 -2 19 1 4 3 -2 6 -13 5 -11 0 -14 -3 -6 -6z"/>
<path d="M3040 2230 c0 -6 7 -10 15 -10 8 0 15 2 15 4 0 2 -7 6 -15 10 -8 3
-15 1 -15 -4z"/>
<path d="M4120 2085 l0 -155 -64 0 -65 0 -3 -135 -3 -135 61 0 62 0 4 -38 c4
-50 -1 -79 -12 -62 -7 11 -11 10 -24 -3 -15 -14 -15 -16 1 -20 10 -2 1 -3 -19
-1 -23 3 -38 0 -38 -6 0 -6 5 -8 10 -5 6 4 21 0 34 -8 15 -10 27 -12 33 -6 12
12 10 28 19 -193 l7 -178 -57 0 -57 0 3 130 c2 99 0 130 -9 130 -10 0 -13 -34
-13 -135 0 -128 -1 -135 -20 -135 -11 0 -20 -4 -20 -10 0 -5 17 -10 39 -10 21
0 66 -3 99 -6 l62 -7 2 269 3 269 115 0 115 0 3 -147 c3 -191 22 -199 22 -10
0 89 -4 147 -12 165 l-13 27 -119 0 -119 0 6 248 c7 260 3 322 -19 322 -11 0
-14 -30 -14 -155z m-10 -290 l0 -125 -50 0 -50 0 0 125 0 125 50 0 50 0 0
-125z"/>
<path d="M6466 2205 c4 -8 8 -15 10 -15 2 0 4 7 4 15 0 8 -4 15 -10 15 -5 0
-7 -7 -4 -15z"/>
<path d="M6553 2213 c9 -2 23 -2 30 0 6 3 -1 5 -18 5 -16 0 -22 -2 -12 -5z"/>
<path d="M2726 2181 c-15 -16 -23 -31 -18 -35 9 -6 45 32 50 52 3 18 -1 15
-32 -17z"/>
<path d="M3059 2197 c6 -8 7 -18 3 -22 -4 -5 -1 -5 6 -1 10 6 10 11 1 22 -6 8
-14 14 -16 14 -3 0 0 -6 6 -13z"/>
<path d="M4183 2100 c0 -47 2 -66 4 -42 2 23 2 61 0 85 -2 23 -4 4 -4 -43z"/>
<path d="M2795 2162 c-11 -2 -25 -8 -31 -13 -18 -15 -23 -68 -7 -80 9 -8 13
-8 13 0 0 6 10 11 23 11 31 0 62 62 38 77 -9 5 -25 7 -36 5z m13 -36 c5 -24
-10 -38 -31 -30 -20 7 -22 25 -5 42 16 16 32 10 36 -12z"/>
<path d="M3110 2160 c0 -5 7 -10 16 -10 8 0 12 5 9 10 -3 6 -10 10 -16 10 -5
0 -9 -4 -9 -10z"/>
<path d="M2972 2152 c-8 -2 -10 -13 -6 -30 9 -36 23 -52 45 -52 11 0 19 -5 19
-11 0 -5 4 -8 9 -5 14 9 19 65 7 80 -12 15 -54 25 -74 18z m64 -27 c8 -20 -13
-45 -32 -38 -14 5 -19 34 -7 46 11 12 33 7 39 -8z"/>
<path d="M1580 2130 c0 -6 -5 -8 -12 -4 -7 4 -8 3 -4 -5 6 -9 11 -9 22 0 11 9
14 7 14 -11 0 -15 -4 -20 -15 -17 -8 4 -17 1 -21 -5 -4 -6 -3 -8 4 -4 5 3 12
0 15 -6 3 -10 10 -8 23 5 14 13 16 21 8 34 -13 21 -34 29 -34 13z"/>
<path d="M7293 2103 c59 -2 154 -2 210 0 56 1 8 3 -108 3 -115 0 -161 -2 -102
-3z"/>
<path d="M7623 2103 c9 -2 23 -2 30 0 6 3 -1 5 -18 5 -16 0 -22 -2 -12 -5z"/>
<path d="M1763 2030 c0 -41 2 -58 4 -37 2 20 2 54 0 75 -2 20 -4 3 -4 -38z"/>
<path d="M8970 1945 c0 -138 1 -145 20 -145 19 0 20 7 20 145 0 138 -1 145
-20 145 -19 0 -20 -7 -20 -145z"/>
<path d="M3593 1990 c0 -41 2 -58 4 -37 2 20 2 54 0 75 -2 20 -4 3 -4 -38z"/>
<path d="M3673 2023 c9 -2 25 -2 35 0 9 3 1 5 -18 5 -19 0 -27 -2 -17 -5z"/>
<path d="M3753 1990 c0 -25 2 -35 4 -22 2 12 2 32 0 45 -2 12 -4 2 -4 -23z"/>
<path d="M8660 1591 l0 -420 -47 -4 -48 -3 53 -2 52 -2 0 425 c0 234 -2 425
-5 425 -3 0 -5 -189 -5 -419z"/>
<path d="M3530 1989 c0 -5 5 -7 10 -4 6 3 10 8 10 11 0 2 -4 4 -10 4 -5 0 -10
-5 -10 -11z"/>
<path d="M7204 1795 c0 -115 2 -161 3 -102 2 59 2 154 0 210 -1 56 -3 8 -3
-108z"/>
<path d="M3668 1953 c7 -3 16 -2 19 1 4 3 -2 6 -13 5 -11 0 -14 -3 -6 -6z"/>
<path d="M2749 1943 c0 -5 -2 -20 -4 -34 -4 -34 5 -48 43 -58 22 -7 34 -6 42
4 20 24 -24 96 -50 80 -5 -3 -10 -1 -10 4 0 12 -20 15 -21 4z m57 -39 c8 -31
-11 -47 -37 -31 -16 10 -16 12 -1 34 22 29 30 29 38 -3z"/>
<path d="M3003 1935 c-22 -9 -33 -21 -33 -34 0 -11 -5 -23 -11 -27 -16 -9 9
-24 42 -24 34 0 48 17 45 57 -3 42 -5 44 -43 28z m27 -46 c0 -12 -7 -19 -20
-19 -26 0 -36 24 -18 43 16 18 38 4 38 -24z"/>
<path d="M3655 1875 c0 -13 3 -21 8 -18 4 2 7 10 7 18 0 8 -3 16 -7 18 -5 3
-8 -5 -8 -18z"/>
<path d="M4270 1867 c0 -10 8 -17 18 -17 9 0 13 4 7 8 -5 4 -13 11 -17 16 -5
5 -8 2 -8 -7z"/>
<path d="M2730 1845 c13 -14 26 -25 28 -25 3 0 -5 11 -18 25 -13 14 -26 25
-28 25 -3 0 5 -11 18 -25z"/>
<path d="M3096 1863 c-4 -5 -11 -8 -14 -8 -4 0 -16 -9 -28 -19 -27 -23 -21
-56 15 -88 l26 -23 -23 26 c-12 14 -19 28 -16 32 4 4 1 13 -6 22 -10 12 -10
15 2 15 8 0 23 9 33 20 12 14 21 17 25 9 5 -7 9 -5 13 5 7 16 -13 22 -27 9z"/>
<path d="M2668 1853 c6 -2 18 -2 25 0 6 3 1 5 -13 5 -14 0 -19 -2 -12 -5z"/>
<path d="M4240 1850 c-9 -6 -10 -10 -3 -10 6 0 15 5 18 10 8 12 4 12 -15 0z"/>
<path d="M1770 1706 l5 -123 35 -29 35 -28 -27 30 c-27 29 -28 33 -28 152 0
91 -3 122 -12 122 -10 0 -12 -29 -8 -124z"/>
<path d="M4219 1820 c-8 -21 10 -56 35 -68 25 -11 62 3 71 26 5 13 3 13 -13
-1 -36 -33 -76 -17 -84 33 -2 17 -5 20 -9 10z"/>
<path d="M4316 1815 c-3 -9 0 -15 9 -15 9 0 12 6 9 15 -4 8 -7 15 -9 15 -2 0
-5 -7 -9 -15z"/>
<path d="M2602 1803 l-22 -16 47 -48 c27 -27 51 -49 56 -49 16 0 5 19 -34 59
-34 34 -39 44 -29 56 16 19 11 18 -18 -2z"/>
<path d="M4270 1810 c0 -5 5 -10 11 -10 5 0 7 5 4 10 -3 6 -8 10 -11 10 -2 0
-4 -4 -4 -10z"/>
<path d="M3164 1776 c-5 -11 -18 -24 -29 -30 -31 -17 -47 -46 -26 -46 11 0
101 82 101 92 0 15 -38 2 -46 -16z"/>
<path d="M6538 1793 c7 -3 16 -2 19 1 4 3 -2 6 -13 5 -11 0 -14 -3 -6 -6z"/>
<path d="M2878 1773 c12 -2 30 -2 40 0 9 3 -1 5 -23 4 -22 0 -30 -2 -17 -4z"/>
<path d="M6512 1768 c-7 -7 -12 -16 -12 -22 0 -5 6 -3 13 6 6 9 21 18 32 21
20 5 20 5 0 6 -12 0 -26 -4 -33 -11z"/>
<path d="M6576 1772 c-3 -5 1 -9 9 -9 8 0 12 4 9 9 -3 4 -7 8 -9 8 -2 0 -6 -4
-9 -8z"/>
<path d="M6482 1740 c0 -14 2 -19 5 -12 2 6 2 18 0 25 -3 6 -5 1 -5 -13z"/>
<path d="M6581 1734 c0 -11 3 -14 6 -6 3 7 2 16 -1 19 -3 4 -6 -2 -5 -13z"/>
<path d="M6500 1721 c0 -6 4 -13 10 -16 6 -3 7 1 4 9 -7 18 -14 21 -14 7z"/>
<path d="M6576 1698 c3 -5 10 -6 15 -3 13 9 11 12 -6 12 -8 0 -12 -4 -9 -9z"/>
<path d="M6538 1693 c7 -3 16 -2 19 1 4 3 -2 6 -13 5 -11 0 -14 -3 -6 -6z"/>
<path d="M6538 1673 c7 -3 16 -2 19 1 4 3 -2 6 -13 5 -11 0 -14 -3 -6 -6z"/>
<path d="M6660 1565 c-47 -47 -90 -85 -96 -85 -6 0 -17 7 -24 15 -7 8 -17 15
-23 15 -5 0 3 -10 19 -22 16 -13 32 -22 37 -20 5 1 6 -1 3 -6 -3 -5 18 -31 47
-58 l52 -49 -43 45 c-23 25 -42 55 -42 66 0 20 141 167 170 177 13 5 13 6 0 6
-9 1 -53 -37 -100 -84z"/>
<path d="M3996 1632 c-2 -4 11 -6 30 -4 19 2 34 6 34 8 0 8 -59 4 -64 -4z"/>
<path d="M3704 1530 c0 -52 1 -74 3 -47 2 26 2 68 0 95 -2 26 -3 4 -3 -48z"/>
<path d="M3953 1530 c0 -25 2 -35 4 -22 2 12 2 32 0 45 -2 12 -4 2 -4 -23z"/>
<path d="M6760 1559 c0 -5 5 -7 10 -4 6 3 10 8 10 11 0 2 -4 4 -10 4 -5 0 -10
-5 -10 -11z"/>
<path d="M7635 1550 c3 -5 8 -10 11 -10 2 0 4 5 4 10 0 6 -5 10 -11 10 -5 0
-7 -4 -4 -10z"/>
<path d="M8011 1534 c0 -11 3 -14 6 -6 3 7 2 16 -1 19 -3 4 -6 -2 -5 -13z"/>
<path d="M7203 1480 c0 -30 2 -43 4 -27 2 15 2 39 0 55 -2 15 -4 2 -4 -28z"/>
<path d="M1850 1517 c0 -2 15 -16 33 -33 l32 -29 -29 33 c-28 30 -36 37 -36
29z"/>
<path d="M8048 1483 c7 -3 16 -2 19 1 4 3 -2 6 -13 5 -11 0 -14 -3 -6 -6z"/>
<path d="M6850 1470 c0 -5 5 -10 10 -10 6 0 10 5 10 10 0 6 -4 10 -10 10 -5 0
-10 -4 -10 -10z"/>
<path d="M6471 1460 c-1 -8 59 -74 132 -145 l132 -130 -126 130 c-70 72 -129
137 -132 145 -5 13 -6 13 -6 0z"/>
<path d="M3702 1400 c0 -19 2 -27 5 -17 2 9 2 25 0 35 -3 9 -5 1 -5 -18z"/>
<path d="M6999 1413 c-13 -16 -12 -17 4 -4 16 13 21 21 13 21 -2 0 -10 -8 -17
-17z"/>
<path d="M8970 1285 l0 -145 -80 0 c-74 0 -80 -2 -80 -20 0 -20 5 -21 98 -18
l97 3 3 163 c2 157 2 162 -18 162 -19 0 -20 -6 -20 -145z"/>
<path d="M2076 1375 c4 -9 0 -15 -10 -15 -9 0 -16 -8 -16 -21 0 -11 5 -17 10
-14 6 4 8 11 5 16 -4 5 1 9 9 9 9 0 16 9 16 20 0 11 -4 20 -10 20 -5 0 -7 -7
-4 -15z"/>
<path d="M2131 1373 c-1 -20 4 -23 33 -23 31 0 33 2 28 23 -5 18 -7 19 -10 5
-2 -10 -12 -18 -22 -18 -10 0 -21 8 -23 18 -4 13 -5 11 -6 -5z"/>
<path d="M2258 1383 c28 -2 76 -2 105 0 28 2 5 3 -53 3 -58 0 -81 -1 -52 -3z"/>
<path d="M2468 1383 c7 -3 16 -2 19 1 4 3 -2 6 -13 5 -11 0 -14 -3 -6 -6z"/>
<path d="M2838 1383 c23 -2 61 -2 85 0 23 2 4 4 -43 4 -47 0 -66 -2 -42 -4z"/>
<path d="M6930 1345 c-24 -25 -42 -45 -39 -45 3 0 25 20 49 45 24 25 42 45 39
45 -3 0 -25 -20 -49 -45z"/>
<path d="M7343 1383 c48 -2 126 -2 175 0 48 1 8 3 -88 3 -96 0 -136 -2 -87 -3z"/>
<path d="M2025 1360 c-3 -5 -1 -10 4 -10 6 0 11 5 11 10 0 6 -2 10 -4 10 -3 0
-8 -4 -11 -10z"/>
<path d="M7233 1305 c0 -38 2 -53 4 -32 2 20 2 52 0 70 -2 17 -4 1 -4 -38z"/>
<path d="M3703 1290 c0 -41 2 -58 4 -37 2 20 2 54 0 75 -2 20 -4 3 -4 -38z"/>
<path d="M7203 1315 c0 -27 2 -38 4 -22 2 15 2 37 0 50 -2 12 -4 0 -4 -28z"/>
<path d="M6735 1289 c33 -37 64 -67 69 -68 5 0 0 10 -12 22 l-22 24 22 29 c19
26 20 27 2 12 -29 -25 -43 -23 -83 15 -20 17 -9 2 24 -34z"/>
<path d="M7982 1273 l-2 -82 -77 -4 -78 -3 78 -2 c57 -1 79 2 83 11 3 8 3 47
1 88 l-3 74 -2 -82z"/>
<path d="M7813 1270 c0 -41 2 -58 4 -37 2 20 2 54 0 75 -2 20 -4 3 -4 -38z"/>
<path d="M2081 1297 c0 -12 3 -16 6 -9 2 6 9 10 13 7 5 -3 11 -1 14 4 3 5 -3
11 -14 14 -16 4 -20 0 -19 -16z"/>
<path d="M8118 1313 c28 -2 76 -2 105 0 28 2 5 3 -53 3 -58 0 -81 -1 -52 -3z"/>
<path d="M8428 1313 c28 -2 76 -2 105 0 28 2 5 3 -53 3 -58 0 -81 -1 -52 -3z"/>
<path d="M2001 1293 c0 -11 3 -13 6 -5 2 6 9 10 13 7 5 -3 11 -1 15 5 3 5 -3
10 -14 10 -14 0 -21 -6 -20 -17z"/>
<path d="M2205 1300 c3 -5 8 -10 11 -10 2 0 4 5 4 10 0 6 -5 10 -11 10 -5 0
-7 -4 -4 -10z"/>
<path d="M1580 1287 c0 -2 15 -16 33 -33 l32 -29 -29 33 c-28 30 -36 37 -36
29z"/>
<path d="M6844 1258 l-29 -33 33 29 c17 17 32 31 32 33 0 8 -8 1 -36 -29z"/>
<path d="M8051 1274 c0 -11 3 -14 6 -6 3 7 2 16 -1 19 -3 4 -6 -2 -5 -13z"/>
<path d="M2048 1250 c2 -16 5 -30 7 -30 2 0 5 14 7 30 3 19 0 30 -7 30 -7 0
-10 -11 -7 -30z"/>
<path d="M2873 1235 c0 -27 2 -38 4 -22 2 15 2 37 0 50 -2 12 -4 0 -4 -28z"/>
<path d="M2890 1224 c0 -54 1 -56 23 -50 12 3 40 7 62 7 35 2 33 3 -15 8 l-55
6 0 43 c0 23 -3 42 -7 42 -5 0 -8 -25 -8 -56z"/>
<path d="M2100 1250 c0 -5 5 -10 10 -10 6 0 10 5 10 10 0 6 -4 10 -10 10 -5 0
-10 -4 -10 -10z"/>
<path d="M2150 1249 c0 -5 5 -7 10 -4 6 3 10 8 10 11 0 2 -4 4 -10 4 -5 0 -10
-5 -10 -11z"/>
<path d="M8052 1230 c0 -14 2 -19 5 -12 2 6 2 18 0 25 -3 6 -5 1 -5 -13z"/>
<path d="M2150 1226 c0 -11 30 -39 36 -34 2 3 -5 13 -16 23 -11 10 -20 15 -20
11z"/>
<path d="M7538 1223 c12 -2 32 -2 45 0 12 2 2 4 -23 4 -25 0 -35 -2 -22 -4z"/>
<path d="M1650 1217 c0 -2 15 -16 33 -33 l32 -29 -29 33 c-28 30 -36 37 -36
29z"/>
<path d="M2045 1200 c-3 -5 -2 -10 4 -10 5 0 13 5 16 10 3 6 2 10 -4 10 -5 0
-13 -4 -16 -10z"/>
<path d="M2100 1200 c0 -5 5 -10 10 -10 6 0 10 5 10 10 0 6 -4 10 -10 10 -5 0
-10 -4 -10 -10z"/>
<path d="M2205 1201 c-3 -5 -1 -12 5 -16 5 -3 10 1 10 9 0 18 -6 21 -15 7z"/>
<path d="M7908 1203 c6 -2 18 -2 25 0 6 3 1 5 -13 5 -14 0 -19 -2 -12 -5z"/>
<path d="M8128 1193 c29 -2 74 -2 100 0 26 2 2 3 -53 3 -55 0 -76 -1 -47 -3z"/>
<path d="M8398 1193 c7 -3 16 -2 19 1 4 3 -2 6 -13 5 -11 0 -14 -3 -6 -6z"/>
<path d="M8503 1193 c15 -2 37 -2 50 0 12 2 0 4 -28 4 -27 0 -38 -2 -22 -4z"/>
<path d="M8709 1187 c4 -4 41 -7 82 -5 l74 3 -82 5 c-45 3 -78 1 -74 -3z"/>
<path d="M2733 1183 c9 -2 23 -2 30 0 6 3 -1 5 -18 5 -16 0 -22 -2 -12 -5z"/>
<path d="M7298 1173 c6 -2 18 -2 25 0 6 3 1 5 -13 5 -14 0 -19 -2 -12 -5z"/>
<path d="M7423 1173 c9 -2 23 -2 30 0 6 3 -1 5 -18 5 -16 0 -22 -2 -12 -5z"/>
<path d="M8358 1163 c7 -3 16 -2 19 1 4 3 -2 6 -13 5 -11 0 -14 -3 -6 -6z"/>
<path d="M3172 1144 c-11 -12 -2 -14 55 -12 60 1 62 2 18 5 -27 3 -52 8 -55
13 -3 4 -11 2 -18 -6z"/>
<path d="M8700 1150 c0 -6 -131 -11 -367 -12 -203 -1 -304 -4 -225 -5 117 -3
142 -6 142 -18 0 -12 18 -15 95 -15 78 0 95 3 95 15 0 13 22 15 135 15 113 0
135 2 135 15 0 8 -2 15 -5 15 -3 0 -5 -4 -5 -10z"/>
<path d="M7178 1143 c6 -2 18 -2 25 0 6 3 1 5 -13 5 -14 0 -19 -2 -12 -5z"/>
<path d="M7283 1143 c9 -2 25 -2 35 0 9 3 1 5 -18 5 -19 0 -27 -2 -17 -5z"/>
<path d="M7408 1143 c7 -3 16 -2 19 1 4 3 -2 6 -13 5 -11 0 -14 -3 -6 -6z"/>
<path d="M2707 1120 c5 -18 14 -20 87 -20 102 0 153 9 160 26 4 11 -18 14
-123 14 -124 0 -129 -1 -124 -20z"/>
<path d="M3008 1133 c18 -2 45 -2 60 0 15 2 0 4 -33 4 -33 0 -45 -2 -27 -4z"/>
<path d="M6968 1132 c-16 -2 -28 -9 -28 -18 0 -11 20 -14 105 -14 93 0 105 2
105 18 0 15 -10 17 -78 17 -42 0 -89 -1 -104 -3z"/>
</g>
</svg>
