<?xml version="1.0" standalone="no"?>
<!DOCTYPE svg PUBLIC "-//W3C//DTD SVG 20010904//EN"
 "http://www.w3.org/TR/2001/REC-SVG-20010904/DTD/svg10.dtd">
<svg version="1.0" xmlns="http://www.w3.org/2000/svg"
 width="717.000000pt" height="395.000000pt" viewBox="0 0 717.000000 395.000000"
 preserveAspectRatio="xMidYMid meet">

<g transform="translate(0.000000,395.000000) scale(0.100000,-0.100000)"
fill="#000000" stroke="none">
<path d="M792 3790 c-8 -13 -23 -20 -45 -21 -17 -1 -43 -5 -57 -9 -20 -6 -14
-8 27 -9 39 -1 57 -6 72 -22 l19 -21 21 21 c15 15 35 21 69 22 38 1 42 2 22 9
-14 4 -39 8 -56 9 -20 1 -37 9 -45 21 l-14 21 -13 -21z"/>
<path d="M2607 3804 c-4 -4 -7 -24 -7 -45 0 -44 11 -49 115 -49 107 0 117 5
113 54 l-3 41 -106 3 c-58 1 -108 -1 -112 -4z"/>
<path d="M1020 3765 c0 -29 7 -31 32 -8 16 14 18 15 18 0 0 -9 5 -19 10 -22 6
-4 10 6 10 22 0 25 -4 28 -35 30 -31 3 -35 0 -35 -22z"/>
<path d="M1100 3767 c0 -19 5 -24 24 -24 32 0 31 41 -1 45 -19 3 -23 -1 -23
-21z"/>
<path d="M1864 3775 c-4 -8 -3 -23 1 -32 5 -13 9 -14 12 -5 4 10 8 10 19 1 11
-9 14 -6 14 20 0 24 -4 31 -20 31 -11 0 -23 -7 -26 -15z"/>
<path d="M2034 3776 c-12 -9 -24 -12 -28 -8 -14 13 -78 9 -83 -5 -8 -21 14
-40 29 -25 8 8 15 9 25 1 9 -8 17 -8 26 0 10 8 17 7 25 -1 16 -16 35 3 30 31
-3 20 -5 20 -24 7z"/>
<path d="M2215 3781 c-11 -5 -35 -8 -53 -7 -32 1 -39 -8 -24 -31 6 -10 14 -9
35 2 20 10 27 11 27 2 0 -8 3 -7 9 2 7 11 11 10 20 -5 9 -17 10 -15 11 14 0
17 -1 32 -2 31 -2 0 -12 -4 -23 -8z"/>
<path d="M2300 3764 c0 -24 19 -35 21 -11 0 6 4 3 9 -8 8 -18 9 -17 9 6 1 19
-5 28 -19 32 -16 4 -20 0 -20 -19z"/>
<path d="M2941 3758 c0 -18 3 -27 6 -20 4 10 8 10 19 1 11 -9 14 -6 14 20 0
24 -4 31 -20 31 -16 0 -20 -6 -19 -32z"/>
<path d="M3140 3760 c0 -30 21 -42 35 -20 5 8 12 7 22 -1 12 -10 16 -10 24 2
8 12 10 12 19 -1 8 -13 10 -12 10 3 0 20 16 23 23 5 4 -10 6 -10 6 0 2 20 21
13 21 -8 0 -27 14 -25 28 4 10 22 8 25 -17 31 -15 3 -51 4 -81 1 -29 -3 -62
-1 -72 5 -16 8 -18 6 -18 -21z"/>
<path d="M3360 3765 c0 -29 7 -31 32 -8 17 15 18 15 18 0 0 -10 5 -17 10 -17
20 0 10 38 -12 44 -39 10 -48 7 -48 -19z"/>
<path d="M3532 3779 c-13 -5 -36 -7 -52 -5 -32 4 -35 0 -21 -23 5 -7 14 -10
20 -7 6 4 11 1 11 -6 1 -8 5 -7 14 5 11 14 15 15 19 5 4 -10 8 -10 16 2 9 13
11 13 11 -2 0 -19 28 -14 42 6 5 7 8 7 8 -1 0 -7 5 -13 10 -13 13 0 13 27 -1
35 -17 11 -54 12 -77 4z"/>
<path d="M4013 3760 c-2 -24 2 -30 17 -30 11 0 20 5 20 10 0 6 -5 10 -12 10
-9 0 -9 3 0 12 17 17 15 28 -5 28 -13 0 -19 -9 -20 -30z"/>
<path d="M1185 3770 c-11 -17 15 -42 30 -30 9 8 15 8 20 0 5 -8 11 -8 20 0 8
7 19 9 25 5 5 -3 10 0 10 7 0 10 3 9 10 -2 11 -18 25 -7 17 14 -6 16 -61 17
-86 1 -10 -5 -16 -4 -19 3 -5 15 -19 15 -27 2z"/>
<path d="M1332 3759 c1 -13 8 -23 13 -21 15 3 12 35 -3 40 -9 3 -13 -3 -10
-19z"/>
<path d="M1373 3763 c-8 -19 12 -37 29 -27 7 5 17 9 23 9 5 0 11 7 13 15 3 20
-57 23 -65 3z"/>
<path d="M2090 3761 c0 -12 6 -21 16 -21 9 0 14 7 12 17 -5 25 -28 28 -28 4z"/>
<path d="M2253 3764 c-8 -22 13 -42 29 -26 9 9 9 12 0 12 -6 0 -9 7 -6 15 4 8
1 15 -5 15 -7 0 -14 -7 -18 -16z"/>
<path d="M3000 3765 c0 -8 0 -18 0 -22 0 -4 6 -8 15 -9 10 -1 15 6 15 22 0 15
-6 24 -15 24 -8 0 -15 -7 -15 -15z"/>
<path d="M3047 3774 c-11 -11 5 -34 23 -34 10 0 20 -5 22 -10 2 -7 10 -5 22 3
12 9 17 20 13 31 -8 21 -37 21 -37 -1 -1 -17 -1 -17 -14 0 -14 18 -19 20 -29
11z"/>
<path d="M3657 3774 c-4 -4 -7 -18 -7 -31 0 -17 6 -23 21 -23 16 0 20 5 17 27
-3 26 -18 39 -31 27z"/>
<path d="M3705 3772 c-3 -3 -5 -14 -5 -24 0 -22 28 -24 36 -3 6 14 8 13 20 -2
12 -17 13 -16 14 8 0 22 -4 26 -30 26 -16 0 -32 -3 -35 -5z"/>
<path d="M3783 3763 c-3 -8 -1 -19 6 -26 8 -8 15 -6 26 9 8 10 15 14 15 8 0
-7 11 -14 24 -16 18 -4 26 0 29 14 3 10 0 18 -6 19 -7 0 -29 1 -50 3 -26 2
-41 -2 -44 -11z"/>
<path d="M3907 3774 c-15 -15 -7 -45 11 -42 9 2 17 12 17 22 0 20 -16 31 -28
20z"/>
<path d="M3963 3773 c-15 -5 -18 -53 -3 -53 9 0 26 48 19 54 -2 2 -10 1 -16
-1z"/>
<path d="M4072 3763 c-13 -13 -13 -14 31 -17 6 -1 15 -5 19 -11 4 -5 10 -2 14
8 3 10 4 20 1 23 -12 12 -53 10 -65 -3z"/>
<path d="M4160 3765 c0 -8 0 -18 0 -22 0 -4 6 -8 15 -9 10 -1 15 6 15 22 0 15
-6 24 -15 24 -8 0 -15 -7 -15 -15z"/>
<path d="M4200 3770 c0 -3 5 -12 10 -20 9 -13 11 -13 20 0 14 22 12 26 -10 26
-11 0 -20 -3 -20 -6z"/>
<path d="M4251 3766 c-8 -10 -8 -16 3 -25 10 -9 16 -8 26 3 12 15 6 36 -9 36
-5 0 -14 -6 -20 -14z"/>
<path d="M4865 3370 c-4 -6 -10 -8 -15 -5 -4 3 -10 -2 -14 -10 -4 -10 1 -15
15 -15 19 0 20 -6 18 -147 0 -99 3 -149 10 -151 6 -2 9 -8 5 -13 -3 -5 0 -9 6
-9 19 0 23 29 6 45 -20 21 -21 45 -1 45 8 0 15 -5 15 -12 0 -6 3 -8 7 -5 4 4
5 52 4 107 -3 109 3 140 25 140 15 0 15 21 -1 32 -15 11 -73 10 -80 -2z m45
-15 c0 -8 -7 -15 -15 -15 -8 0 -15 7 -15 15 0 8 7 15 15 15 8 0 15 -7 15 -15z"/>
<path d="M4970 3371 c0 -6 5 -11 11 -11 5 0 7 -4 4 -10 -3 -5 -1 -10 5 -10 15
0 9 32 -7 38 -7 2 -13 -1 -13 -7z"/>
<path d="M4797 3363 c-11 -11 -8 -23 6 -23 8 0 14 7 14 15 0 16 -9 19 -20 8z"/>
<path d="M3486 3311 c-4 -7 -5 -15 -2 -18 9 -9 19 4 14 18 -4 11 -6 11 -12 0z"/>
<path d="M3415 3250 c-25 -27 -10 -39 16 -13 12 11 17 23 11 27 -5 3 -17 -3
-27 -14z"/>
<path d="M5441 3248 c8 -7 27 -22 41 -34 39 -31 78 -93 78 -125 0 -16 -4 -29
-10 -29 -5 0 -10 -9 -10 -20 0 -12 7 -20 17 -20 9 0 13 3 10 7 -4 3 -2 12 3
19 8 8 7 27 -1 60 -13 50 -71 120 -120 143 -20 10 -21 10 -8 -1z"/>
<path d="M3345 3170 c-3 -5 -1 -10 4 -10 6 0 11 5 11 10 0 6 -2 10 -4 10 -3 0
-8 -4 -11 -10z"/>
<path d="M4838 3058 c-6 -16 1 -38 12 -38 5 0 7 10 5 21 -6 28 -11 33 -17 17z"/>
<path d="M5594 3045 c0 -26 11 -34 19 -12 5 14 -2 37 -12 37 -4 0 -7 -11 -7
-25z"/>
<path d="M190 1555 l0 -1495 3378 2 3377 3 3 1493 2 1492 -453 0 c-424 0 -453
-1 -454 -17 0 -10 -8 -61 -18 -113 -23 -119 -23 -247 -1 -370 20 -113 25 -130
36 -130 5 0 -1 33 -13 73 -30 102 -31 356 -2 470 l19 77 433 0 433 0 -2 -382
-3 -382 -71 -12 c-38 -6 -84 -19 -102 -28 -61 -32 -63 -40 -60 -287 l3 -224
118 -3 117 -3 0 -149 c0 -138 -1 -149 -17 -143 -15 6 -16 4 -5 -9 9 -11 12
-43 10 -105 l-3 -88 -131 -3 -131 -3 0 100 c1 90 -4 123 -17 110 -3 -3 -6 -25
-7 -51 -2 -26 -5 -47 -8 -46 -30 3 -33 -4 -13 -25 13 -14 22 -36 22 -56 0 -31
-1 -32 -37 -29 l-38 3 0 103 c0 56 -3 102 -7 102 -4 0 -8 -50 -10 -110 l-3
-110 168 0 167 0 -2 -367 -3 -368 -165 -3 -165 -2 3 -71 c2 -42 -1 -75 -8 -84
-8 -10 -8 -18 1 -32 16 -26 108 -26 127 0 7 9 19 17 26 17 8 0 19 6 25 14 6 8
33 17 59 20 26 4 61 10 79 13 l32 5 -32 40 c-35 42 -39 43 -159 22 -36 -6 -38
-5 -38 20 l0 27 133 -3 132 -3 0 -98 c0 -53 3 -97 8 -97 4 0 7 -43 7 -95 l0
-95 -3359 0 c-1866 0 -3362 4 -3365 9 -3 4 -3 11 0 13 7 8 6 330 -1 350 -4 9
-5 27 -3 40 l3 23 453 3 452 2 0 85 c1 47 1 193 1 325 0 132 0 278 -1 325 l0
85 -452 2 -453 3 -2 465 c-2 256 0 471 3 479 3 11 10 7 23 -15 10 -16 33 -38
52 -48 29 -17 28 -14 -14 26 l-48 45 3 159 c3 148 4 159 22 156 11 -2 15 1 11
7 -3 6 -13 11 -21 11 -11 0 -14 20 -14 100 l0 100 38 42 c32 36 34 39 9 23
-15 -10 -32 -26 -38 -36 -23 -44 -31 -18 -27 91 1 61 0 110 -4 110 -5 0 -8
-673 -8 -1495z m6715 665 c0 -31 -4 -36 -30 -41 -45 -10 -143 -10 -149 -1 -8
14 30 49 66 60 95 30 113 27 113 -18z m5 -65 c0 -10 -90 -185 -95 -185 -5 0
-95 175 -95 185 0 3 43 5 95 5 52 0 95 -2 95 -5z m-146 -115 c22 -44 39 -86
39 -93 0 -21 -73 -167 -83 -167 -6 0 -10 68 -10 170 0 94 3 170 8 170 4 -1 25
-37 46 -80z m156 -89 c0 -87 -3 -173 -6 -190 l-6 -31 -89 0 c-73 0 -89 3 -89
15 0 20 78 175 88 175 4 0 24 -34 46 -75 21 -42 40 -74 43 -71 2 2 -14 39 -36
81 -23 42 -41 84 -41 93 0 21 70 162 81 162 5 0 9 -71 9 -159z m-5830 -1031
l0 -400 -442 2 -443 3 -3 385 c-1 212 0 391 3 397 3 10 101 13 445 13 l440 0
0 -400z m5828 -77 c-3 -341 -4 -368 -20 -371 -17 -3 -18 20 -18 367 0 365 0
371 20 371 20 0 20 -5 18 -367z m-288 -430 c-1 -42 -2 -46 -14 -30 -13 17 -46
24 -46 10 0 -5 7 -17 15 -27 21 -28 19 -36 -10 -36 -24 0 -25 2 -25 65 l0 65
40 0 40 0 0 -47z m165 -3 c4 -6 -6 -10 -22 -9 -25 0 -26 1 -8 9 11 5 21 9 22
9 1 1 5 -3 8 -9z m-45 -30 c0 -5 -12 -10 -27 -9 -25 0 -26 1 -8 9 27 12 35 12
35 0z m-85 -10 c3 -5 1 -10 -4 -10 -6 0 -11 5 -11 10 0 6 2 10 4 10 3 0 8 -4
11 -10z m32 -26 c-3 -3 -12 -4 -19 -1 -8 3 -5 6 6 6 11 1 17 -2 13 -5z m-67
-38 c0 -24 -43 -34 -70 -16 -13 9 -13 11 0 20 23 15 70 12 70 -4z"/>
<path d="M602 960 c-10 -16 -24 -20 -70 -21 -43 -1 -51 -3 -32 -9 14 -4 42 -8
62 -9 28 -1 40 -7 49 -23 l12 -23 10 23 c8 16 19 22 46 23 20 1 50 5 66 9 24
6 17 8 -32 9 -51 1 -65 5 -75 21 -7 11 -15 20 -18 20 -3 0 -11 -9 -18 -20z"/>
<path d="M2150 2916 c0 -113 2 -135 16 -140 30 -12 72 -6 97 14 14 11 28 20
31 20 4 0 17 9 29 20 62 59 321 89 479 56 79 -16 168 -52 168 -67 0 -5 5 -9
11 -9 6 0 22 -9 36 -20 26 -20 78 -26 100 -12 8 5 13 51 15 140 l3 132 -492 0
-493 0 0 -134z m346 97 c-1 -15 7 -18 52 -17 l52 2 0 -34 c0 -19 5 -34 11 -34
5 0 7 -4 4 -10 -3 -5 -30 -10 -59 -10 -103 0 -246 -48 -315 -106 -53 -44 -61
-31 -61 99 0 63 3 117 7 120 3 4 75 7 159 7 138 0 152 -2 150 -17z m196 9 c-7
-5 -18 -28 -25 -52 -7 -24 -18 -45 -25 -48 -12 -4 -28 27 -34 69 -3 21 2 25
37 30 60 9 61 9 47 1z m406 -115 c3 -140 -3 -147 -75 -94 -27 19 -58 40 -70
46 -41 21 -177 51 -235 51 -32 0 -58 5 -58 10 0 6 5 10 10 10 6 0 10 16 10 35
0 36 0 36 35 29 47 -8 89 2 81 22 -5 12 15 14 147 12 l152 -3 3 -118z m-528
103 c0 -5 -13 -10 -30 -10 -16 0 -30 5 -30 10 0 6 14 10 30 10 17 0 30 -4 30
-10z m210 0 c0 -5 -16 -10 -35 -10 -19 0 -35 5 -35 10 0 6 16 10 35 10 19 0
35 -4 35 -10z"/>
<path d="M4640 2778 c-1 -150 -1 -427 0 -615 0 -292 -2 -343 -14 -343 -8 0
-18 5 -21 10 -4 6 -118 10 -311 10 -264 0 -304 2 -304 15 0 8 -5 15 -11 15 -5
0 -7 -4 -4 -10 3 -5 0 -10 -7 -10 -7 0 -24 -3 -38 -7 -15 -3 -22 -2 -17 3 5 5
13 10 18 10 22 3 23 5 10 13 -18 12 0 46 48 89 35 33 36 33 3 12 -65 -43 -114
-142 -78 -156 9 -3 16 -12 16 -20 0 -8 5 -14 11 -14 5 0 7 5 4 10 -3 6 3 10
15 10 12 0 18 -4 15 -10 -3 -5 -1 -10 4 -10 6 0 11 7 11 15 0 14 38 16 326 14
l326 -1 -4 -39 c-2 -24 0 -38 7 -36 5 2 11 22 13 45 3 37 6 42 28 42 14 0 22
-4 19 -10 -3 -5 -1 -10 4 -10 6 0 11 7 11 15 0 10 -11 15 -35 15 l-36 0 3 138
3 137 33 3 c32 3 40 21 12 30 -7 3 -10 0 -6 -7 5 -7 -1 -11 -14 -11 l-20 0 2
465 c2 367 0 465 -9 465 -10 0 -13 -61 -13 -272z m-657 -955 c-13 -2 -35 -2
-50 0 -16 2 -5 4 22 4 28 0 40 -2 28 -4z m590 0 c-13 -2 -33 -2 -45 0 -13 2
-3 4 22 4 25 0 35 -2 23 -4z"/>
<path d="M3714 3026 c-8 -21 -1 -59 12 -63 6 -2 8 10 6 32 l-4 35 220 0 c214
0 221 -1 227 -20 4 -12 1 -28 -7 -37 -11 -14 -11 -15 2 -11 9 3 16 20 18 41
l3 37 -236 0 c-195 0 -237 -2 -241 -14z"/>
<path d="M3925 2990 c-3 -5 -1 -10 4 -10 6 0 11 5 11 10 0 6 -2 10 -4 10 -3 0
-8 -4 -11 -10z"/>
<path d="M3970 2990 c0 -5 5 -10 11 -10 5 0 7 5 4 10 -3 6 -8 10 -11 10 -2 0
-4 -4 -4 -10z"/>
<path d="M3812 2917 c-24 -45 -21 -69 10 -107 17 -21 60 -50 73 -50 5 0 -4 9
-21 19 -37 23 -64 58 -64 84 0 10 9 36 20 57 11 22 17 40 13 40 -5 0 -18 -19
-31 -43z"/>
<path d="M3880 2950 c0 -6 30 -10 70 -10 40 0 70 4 70 10 0 6 -30 10 -70 10
-40 0 -70 -4 -70 -10z"/>
<path d="M4070 2928 c11 -18 20 -45 20 -60 0 -30 -41 -84 -71 -93 -11 -4 -18
-9 -15 -12 11 -11 65 33 86 69 l22 39 -23 45 c-13 24 -27 44 -31 44 -4 0 1
-15 12 -32z"/>
<path d="M3921 2907 c-11 -14 -6 -27 10 -27 5 0 6 7 3 15 -5 11 1 15 21 15 21
0 26 -4 21 -16 -4 -9 -1 -14 6 -12 6 2 12 12 14 21 2 13 -5 17 -31 17 -18 0
-38 -6 -44 -13z"/>
<path d="M3863 2898 c-15 -20 4 -74 33 -97 42 -33 48 -24 8 11 -30 27 -35 37
-32 65 4 37 4 38 -9 21z"/>
<path d="M4028 2876 c3 -27 -2 -38 -32 -64 -20 -18 -32 -32 -27 -32 38 0 93
98 67 119 -9 8 -11 2 -8 -23z"/>
<path d="M1032 2868 c21 -21 40 -52 43 -70 3 -18 5 -140 3 -272 l-3 -238 -50
-46 c-42 -39 -45 -43 -16 -26 19 10 43 32 55 47 20 27 21 42 24 286 3 254 3
257 -20 290 -13 19 -34 41 -48 50 -17 11 -13 4 12 -21z"/>
<path d="M930 2873 c69 -47 73 -64 68 -355 l-3 -217 -35 -37 c-27 -28 -30 -34
-12 -25 13 7 32 27 42 44 18 29 20 52 20 270 0 260 -3 276 -59 316 -16 12 -33
21 -37 21 -5 0 3 -8 16 -17z"/>
<path d="M338 2870 c-9 -6 -26 -25 -37 -44 -20 -31 -21 -48 -21 -267 0 -263 4
-280 70 -322 34 -21 34 -21 -7 19 l-43 41 0 130 0 131 28 -2 c15 0 28 4 29 9
1 6 -11 10 -27 10 l-30 0 0 117 c0 117 0 117 31 153 33 37 34 40 7 25z"/>
<path d="M445 2769 l-35 -31 0 -182 0 -183 27 -24 c21 -18 23 -19 10 -3 -16
19 -17 42 -15 215 l3 193 34 23 c19 13 29 23 23 23 -6 0 -27 -14 -47 -31z"/>
<path d="M817 2780 c17 -10 37 -28 42 -39 7 -12 11 -88 11 -189 0 -156 -2
-171 -21 -196 -13 -17 -15 -24 -6 -20 30 11 37 55 37 217 0 89 -3 172 -6 184
-6 21 -60 63 -80 63 -5 0 5 -9 23 -20z"/>
<path d="M2480 2776 c0 -3 9 -10 20 -16 11 -6 20 -8 20 -6 0 3 -9 10 -20 16
-11 6 -20 8 -20 6z"/>
<path d="M2760 2755 c-19 -14 -30 -25 -24 -25 10 1 73 50 63 50 -3 0 -20 -11
-39 -25z"/>
<path d="M2824 2764 c-18 -14 -18 -14 6 -3 31 14 36 19 24 19 -6 0 -19 -7 -30
-16z"/>
<path d="M2499 2731 c13 -12 28 -21 34 -21 12 0 11 0 -28 24 l-30 17 24 -20z"/>
<path d="M2765 2730 c-16 -11 -25 -20 -19 -20 11 0 64 39 54 40 -3 0 -18 -9
-35 -20z"/>
<path d="M2628 2693 c6 -2 18 -2 25 0 6 3 1 5 -13 5 -14 0 -19 -2 -12 -5z"/>
<path d="M3986 2651 c-3 -5 -3 -106 1 -225 l6 -216 316 2 316 3 -312 2 -313 3
0 140 c0 77 3 140 8 140 4 0 6 36 4 80 -3 73 -11 95 -26 71z"/>
<path d="M455 2571 c-3 -5 -2 -12 3 -15 5 -3 9 1 9 9 0 17 -3 19 -12 6z"/>
<path d="M490 2564 c0 -8 5 -12 10 -9 6 4 8 11 5 16 -9 14 -15 11 -15 -7z"/>
<path d="M3535 2244 c-7 -11 -32 -19 -75 -23 l-65 -7 64 -7 c47 -6 68 -14 81
-30 l17 -21 7 21 c6 18 18 23 74 29 l67 8 -64 7 c-42 4 -68 12 -76 23 -15 20
-18 20 -30 0z"/>
<path d="M400 2210 c8 -5 20 -10 25 -10 6 0 3 5 -5 10 -8 5 -19 10 -25 10 -5
0 -3 -5 5 -10z"/>
<path d="M588 2133 c7 -3 16 -2 19 1 4 3 -2 6 -13 5 -11 0 -14 -3 -6 -6z"/>
<path d="M688 2133 c6 -2 18 -2 25 0 6 3 1 5 -13 5 -14 0 -19 -2 -12 -5z"/>
<path d="M4590 2130 c0 -5 7 -10 15 -10 8 0 15 5 15 10 0 6 -7 10 -15 10 -8 0
-15 -4 -15 -10z"/>
<path d="M2180 1970 c0 -66 3 -120 8 -120 4 0 7 51 7 112 l0 113 303 3 303 2
-3 -115 c-2 -70 1 -117 7 -119 6 -3 3 -10 -5 -16 -11 -9 -12 -13 -2 -17 7 -2
12 -22 12 -44 0 -30 4 -39 17 -39 13 0 14 3 5 12 -8 8 -12 63 -12 180 l0 168
-320 0 -320 0 0 -120z"/>
<path d="M247 2063 c-10 -9 -9 -243 1 -243 4 0 7 56 7 125 0 69 0 125 -1 125
0 0 -4 -3 -7 -7z"/>
<path d="M568 2058 c-18 -4 -39 -5 -45 -3 -7 2 -13 0 -13 -5 0 -6 -35 -10 -80
-10 -48 0 -95 -6 -115 -14 l-35 -15 0 -75 c0 -66 3 -77 22 -90 12 -9 32 -17
43 -18 11 0 -2 -4 -30 -8 -27 -4 175 -7 450 -7 275 0 478 3 450 6 -47 6 -48 6
-19 13 53 12 64 31 64 113 0 78 -11 100 -53 110 -35 8 -603 11 -639 3z m112
-58 c0 -27 -4 -50 -10 -50 -5 0 -10 23 -10 50 0 28 5 50 10 50 6 0 10 -22 10
-50z m537 25 c22 -30 14 -152 -12 -171 -26 -19 -428 -20 -465 -1 -23 12 -25
19 -28 89 -1 52 2 79 10 84 28 17 93 22 281 21 186 -2 200 -3 214 -22z m-682
-40 c55 -14 102 -29 104 -31 2 -2 -25 -2 -60 0 -50 4 -55 3 -24 -3 30 -6 9 -9
-90 -12 l-130 -3 135 -6 c74 -3 130 -7 125 -8 -20 -4 -250 -32 -262 -32 -14 0
-19 76 -5 83 4 3 38 0 76 -5 37 -5 78 -8 90 -6 11 2 -21 9 -72 15 -98 11 -116
18 -92 34 21 14 91 5 205 -26z m30 15 c63 -24 49 -25 -40 -1 -49 14 -61 19
-40 20 17 1 53 -8 80 -19z m75 10 c28 -17 1 -22 -42 -7 l-43 15 35 1 c19 0 42
-3 50 -9z m60 -110 c0 -28 -4 -40 -15 -40 -10 0 -13 10 -10 38 2 20 4 38 4 40
1 1 6 2 11 2 6 0 10 -18 10 -40z m-175 -22 c-60 -16 -122 -32 -136 -35 -27 -5
-69 11 -69 26 0 9 208 38 275 39 30 0 13 -7 -70 -30z m30 -18 c-22 -10 -56
-18 -75 -18 -33 0 -32 1 20 18 73 24 107 24 55 0z m86 0 c-13 -11 -37 -20 -54
-20 -35 0 -29 10 16 27 50 18 66 15 38 -7z m109 -28 c29 -8 18 -10 -60 -10
-67 0 -85 2 -62 8 18 4 36 11 40 15 7 6 13 5 82 -13z"/>
<path d="M935 1997 c-10 -8 -15 -19 -11 -25 9 -15 75 -15 96 -2 13 9 12 12 -4
25 -25 19 -56 19 -81 2z m63 -14 c2 -8 -6 -13 -22 -13 -25 0 -33 10 -19 24 10
10 36 3 41 -11z"/>
<path d="M866 1972 c-6 -18 -15 -22 -49 -23 -70 -1 -92 -17 -25 -18 45 -1 60
-5 71 -21 l14 -20 18 20 c13 15 31 20 69 21 38 0 46 3 31 9 -11 5 -36 9 -56 9
-26 1 -41 7 -51 23 l-15 23 -7 -23z"/>
<path d="M1275 1945 c0 -69 4 -124 9 -122 10 3 8 229 -2 239 -4 4 -7 -49 -7
-117z"/>
<path d="M1343 2050 c-22 -9 -23 -15 -23 -105 0 -93 1 -96 26 -105 40 -16 763
-13 794 3 23 12 25 18 28 97 4 129 36 120 -422 119 -209 0 -391 -4 -403 -9z
m785 -9 c9 -6 13 -32 11 -95 -1 -73 -5 -88 -20 -97 -11 -5 -70 -8 -131 -7
-101 3 -113 5 -112 21 2 15 -10 17 -117 17 -112 0 -119 -1 -119 -20 0 -19 -7
-20 -131 -20 -72 0 -138 4 -148 9 -14 8 -18 26 -20 94 -2 74 0 87 16 96 22 13
751 15 771 2z m-436 -193 c-9 -9 -15 -9 -24 0 -9 9 -7 12 12 12 19 0 21 -3 12
-12z m150 0 c-9 -9 -15 -9 -24 0 -9 9 -7 12 12 12 19 0 21 -3 12 -12z"/>
<path d="M1463 2020 c-82 -19 -106 -66 -52 -99 66 -40 197 -34 255 11 l26 21
19 -24 18 -24 16 23 c20 28 36 28 79 -2 63 -42 179 -45 245 -5 40 24 40 54 0
78 -64 39 -191 34 -251 -9 -35 -26 -64 -25 -78 0 -11 21 -11 21 -29 -1 l-18
-22 -29 21 c-48 35 -132 49 -201 32z m122 -11 c61 -15 75 -34 33 -44 l-33 -8
34 -6 c28 -5 32 -8 20 -18 -22 -18 -108 -35 -143 -28 -121 24 -127 83 -11 108
35 8 55 7 100 -4z m419 1 c46 -10 79 -40 71 -62 -17 -43 -168 -58 -222 -23
-25 17 -26 19 -8 25 18 6 18 7 0 14 -16 6 -17 9 -4 21 15 14 71 33 104 34 11
0 38 -4 59 -9z"/>
<path d="M4110 2040 c-8 -5 -10 -10 -5 -10 6 0 17 5 25 10 8 5 11 10 5 10 -5
0 -17 -5 -25 -10z"/>
<path d="M2280 2003 c0 -20 3 -24 9 -14 6 9 11 10 15 2 13 -20 23 -12 18 14
-7 36 -42 34 -42 -2z"/>
<path d="M2384 2021 c-3 -3 -15 -6 -26 -6 -12 0 -23 -6 -25 -12 -7 -19 27 -29
38 -12 8 12 10 12 18 0 7 -11 10 -10 14 5 4 16 5 17 6 2 0 -10 5 -18 10 -18 5
0 12 8 14 18 4 16 5 16 6 0 2 -26 21 -22 21 5 0 18 -6 22 -35 23 -19 0 -38 -2
-41 -5z"/>
<path d="M2657 2023 c-12 -12 -7 -43 7 -43 9 0 12 8 8 25 -5 27 -6 28 -15 18z"/>
<path d="M2470 1989 c0 -24 4 -30 18 -27 10 2 18 14 20 31 3 22 -1 27 -17 27
-17 0 -21 -6 -21 -31z"/>
<path d="M2527 2014 c-14 -15 -6 -34 14 -34 14 0 19 5 17 17 -3 18 -20 27 -31
17z"/>
<path d="M2570 1997 c0 -20 0 -20 15 -1 13 17 14 17 15 2 0 -25 40 -24 40 1 0
15 -7 19 -35 19 -29 0 -35 -4 -35 -21z"/>
<path d="M2685 2010 c-10 -17 4 -29 34 -28 20 1 31 7 34 19 6 21 -18 27 -26 7
-4 -10 -6 -10 -6 0 -1 14 -27 16 -36 2z"/>
<path d="M4044 2004 c-18 -14 -18 -15 4 -4 12 6 22 13 22 15 0 8 -5 6 -26 -11z"/>
<path d="M2220 1840 c0 -5 5 -10 10 -10 6 0 10 5 10 10 0 6 -4 10 -10 10 -5 0
-10 -4 -10 -10z"/>
<path d="M2740 1840 c0 -5 7 -10 15 -10 8 0 15 5 15 10 0 6 -7 10 -15 10 -8 0
-15 -4 -15 -10z"/>
<path d="M2180 1820 c0 -5 5 -10 10 -10 6 0 10 5 10 10 0 6 -4 10 -10 10 -5 0
-10 -4 -10 -10z"/>
<path d="M2265 1800 c3 -5 11 -10 16 -10 6 0 7 5 4 10 -3 6 -11 10 -16 10 -6
0 -7 -4 -4 -10z"/>
<path d="M2305 1800 c-3 -5 -2 -10 4 -10 5 0 13 5 16 10 3 6 2 10 -4 10 -5 0
-13 -4 -16 -10z"/>
<path d="M1652 1748 c-15 -18 1 -41 24 -36 23 4 26 41 3 46 -9 1 -21 -3 -27
-10z m24 -25 c-10 -10 -19 5 -10 18 6 11 8 11 12 0 2 -7 1 -15 -2 -18z"/>
<path d="M775 1740 c-3 -6 2 -13 11 -17 16 -6 16 -7 -2 -14 -16 -6 -14 -8 10
-8 22 -1 27 3 22 15 -3 9 -6 20 -6 25 0 12 -27 12 -35 -1z"/>
<path d="M832 1725 c0 -16 2 -22 5 -12 2 9 2 23 0 30 -3 6 -5 -1 -5 -18z"/>
<path d="M900 1726 c0 -19 5 -24 20 -23 12 1 20 8 20 20 0 10 -4 15 -10 12 -5
-3 -10 -1 -10 4 0 6 -4 11 -10 11 -5 0 -10 -11 -10 -24z"/>
<path d="M1711 1738 c-1 -20 21 -37 27 -20 2 8 9 8 23 -1 16 -10 21 -9 29 3 9
13 11 13 20 0 9 -13 10 -13 10 0 0 13 1 13 10 0 11 -18 25 -7 17 14 -6 15 -91
18 -114 3 -6 -4 -14 -1 -16 5 -4 8 -6 7 -6 -4z"/>
<path d="M850 1720 c0 -11 5 -20 10 -20 6 0 10 6 10 13 0 8 4 7 10 -3 8 -12
10 -11 10 8 0 15 -6 22 -20 22 -13 0 -20 -7 -20 -20z"/>
<path d="M2870 1620 c0 -73 4 -120 10 -120 6 0 10 45 10 115 l0 115 403 -2
402 -3 5 -115 5 -115 5 123 5 122 -422 0 -423 0 0 -120z"/>
<path d="M3080 1665 c-6 -8 -9 -19 -5 -25 8 -13 45 -13 45 0 0 5 -7 7 -15 4
-10 -4 -15 0 -15 11 0 11 5 15 16 11 8 -3 12 -2 9 4 -9 14 -21 12 -35 -5z"/>
<path d="M3236 1671 c-3 -5 -15 -7 -26 -4 -23 6 -36 -17 -26 -44 6 -14 9 -15
16 -4 5 9 29 14 67 15 44 1 58 4 58 16 0 10 -10 15 -30 15 -17 1 -35 4 -42 8
-6 4 -14 3 -17 -2z"/>
<path d="M3418 1672 c-21 -2 -28 -9 -28 -25 0 -16 3 -18 9 -8 6 9 11 10 15 2
12 -19 46 -13 46 8 0 24 -7 28 -42 23z"/>
<path d="M3130 1650 c0 -13 7 -20 20 -20 14 0 20 6 19 23 0 21 -1 21 -9 2 -7
-17 -9 -17 -9 -2 -1 24 -21 22 -21 -3z"/>
<path d="M3340 1651 c0 -15 6 -21 21 -21 25 0 22 33 -4 38 -12 2 -17 -3 -17
-17z"/>
<path d="M3058 1493 c7 -3 16 -2 19 1 4 3 -2 6 -13 5 -11 0 -14 -3 -6 -6z"/>
<path d="M3508 1493 c6 -2 18 -2 25 0 6 3 1 5 -13 5 -14 0 -19 -2 -12 -5z"/>
<path d="M6710 1365 c0 -8 7 -15 15 -15 8 0 15 7 15 15 0 8 -7 15 -15 15 -8 0
-15 -7 -15 -15z"/>
<path d="M6819 1348 c15 -20 9 -23 -18 -8 -16 8 -17 6 -13 -16 3 -18 8 -22 15
-15 18 18 31 13 16 -6 -13 -15 -12 -15 9 -2 27 17 27 21 0 45 -19 15 -20 16
-9 2z"/>
<path d="M4452 1313 c-10 -4 -12 -105 -11 -474 0 -449 1 -469 19 -469 10 0 21
6 23 13 4 9 6 9 6 0 1 -8 14 -13 31 -13 17 0 30 5 30 13 0 8 4 7 10 -3 9 -13
11 -13 20 0 6 10 10 11 10 3 0 -7 7 -13 15 -13 8 0 15 6 15 13 0 8 4 7 10 -3
8 -12 11 -13 19 -1 7 11 9 11 14 0 4 -12 7 -11 16 1 7 10 11 11 11 3 0 -7 7
-13 15 -13 8 0 15 6 15 13 0 8 4 7 10 -3 9 -13 11 -13 20 0 6 10 10 11 10 3 0
-8 13 -13 30 -13 17 0 30 5 30 13 0 8 3 8 8 2 10 -16 62 -17 62 -2 0 8 4 7 10
-3 9 -13 11 -13 20 0 6 10 10 11 10 3 0 -7 7 -13 15 -13 8 0 15 6 15 13 0 8 4
7 10 -3 9 -13 11 -13 20 0 6 10 10 11 10 3 0 -8 13 -13 30 -13 17 0 30 5 30
13 0 8 4 7 10 -3 9 -13 11 -13 20 0 6 10 10 11 10 3 0 -7 7 -13 15 -13 8 0 15
6 15 13 0 8 4 7 10 -3 9 -13 11 -13 20 0 6 10 10 11 10 3 0 -8 13 -13 29 -13
16 0 32 6 34 13 4 10 6 10 6 0 1 -8 14 -13 31 -13 17 0 30 5 30 13 0 8 3 9 8
1 4 -6 25 -11 47 -11 22 0 43 5 47 11 5 8 8 7 8 -1 0 -15 52 -14 62 2 5 7 8 7
8 -1 0 -6 18 -11 40 -12 l40 -2 -2 38 c0 22 2 44 6 50 5 9 77 12 249 12 l242
1 205 164 c113 90 208 164 211 165 18 1 25 -249 9 -281 -8 -15 -7 -19 4 -19
13 0 15 19 13 130 -1 81 1 126 7 120 18 -18 29 -10 13 8 -8 9 -19 29 -22 45
-4 15 -11 27 -16 27 -5 0 -9 7 -9 15 0 8 4 15 9 15 14 0 91 74 91 88 0 7 -13
-2 -29 -20 -16 -18 -32 -31 -34 -28 -3 3 -7 51 -9 107 -3 99 -2 103 17 97 19
-6 19 -6 4 12 -9 11 -20 30 -24 42 -4 13 -16 33 -26 43 -18 18 -40 19 -464 19
l-445 0 0 45 c0 25 -3 45 -7 46 -45 7 -73 5 -73 -5 0 -7 -3 -7 -8 -1 -10 14
-62 15 -62 1 0 -7 -3 -7 -8 -1 -9 12 -92 15 -92 3 0 -5 -5 -6 -12 -2 -21 13
-58 13 -58 1 0 -9 -2 -9 -8 -1 -8 12 -40 13 -59 1 -6 -4 -14 -1 -17 5 -5 11
-7 11 -12 0 -3 -6 -11 -9 -17 -5 -19 11 -57 12 -57 1 0 -6 -5 -7 -12 -2 -19
14 -48 11 -58 -6 -8 -13 -10 -12 -10 3 0 9 -4 17 -10 17 -5 0 -10 -5 -10 -11
0 -8 -4 -8 -14 0 -11 9 -16 9 -21 0 -6 -8 -10 -7 -17 2 -7 11 -11 11 -15 1 -2
-6 -10 -9 -16 -5 -20 12 -57 12 -57 0 0 -9 -2 -9 -8 -1 -8 12 -40 13 -59 1 -6
-4 -14 -1 -16 5 -4 10 -8 10 -15 -1 -7 -9 -11 -10 -17 -2 -5 9 -10 9 -20 1
-10 -8 -14 -7 -18 2 -4 10 -8 10 -16 -2 -7 -10 -11 -11 -11 -2 0 19 -20 14
-20 -5 -1 -17 -1 -17 -11 0 -8 14 -14 16 -25 6 -10 -8 -14 -8 -14 0 0 6 -4 11
-10 11 -5 0 -10 -8 -10 -17 0 -15 -2 -15 -9 -4 -14 21 -59 23 -64 3 -4 -15 -5
-15 -6 1 -1 17 -6 19 -29 10z m1028 -63 c0 -20 -5 -30 -15 -30 -9 0 -15 9 -15
25 0 14 -4 25 -10 25 -5 0 -7 -6 -4 -14 12 -30 -33 -36 -270 -36 l-236 0 0
-121 0 -121 -39 35 c-22 19 -50 40 -63 46 -21 11 -21 10 2 -6 48 -33 100 -91
100 -110 0 -10 -26 -41 -59 -70 -57 -50 -111 -126 -111 -156 0 -20 37 -65 63
-78 12 -6 7 1 -10 16 -59 48 -43 102 56 200 l61 59 0 -152 c0 -84 -4 -152 -8
-152 -9 0 4 -129 13 -139 20 -20 25 56 22 382 l-2 357 620 -2 620 -3 0 -218
c0 -138 4 -217 10 -217 6 0 9 75 7 212 -2 164 0 213 10 220 15 9 189 11 212 2
14 -5 16 -32 16 -203 l-1 -196 -32 -31 c-18 -17 -88 -75 -157 -129 -69 -54
-134 -105 -144 -114 -18 -15 -19 -15 -11 14 10 38 10 45 -10 130 -9 39 -17 78
-18 88 -1 9 -5 17 -9 17 -10 0 -11 8 7 -80 27 -133 27 -132 3 -175 l-24 -40
-539 -5 c-297 -3 -522 -7 -500 -9 22 -2 125 -4 230 -5 177 -1 190 -2 193 -20
2 -10 -2 -23 -10 -28 -10 -8 -10 -9 2 -6 8 3 17 15 20 27 7 31 25 27 25 -6 l0
-28 -475 0 -475 0 -3 425 c-1 234 0 431 3 438 3 9 109 12 480 12 l475 0 0 -30z
m1007 -213 c5 -117 0 -172 -16 -163 -13 9 -13 288 0 284 8 -3 13 -46 16 -121z"/>
<path d="M4550 846 c0 -234 3 -427 8 -429 4 -3 6 33 4 79 -3 63 0 84 9 84 10
0 10 3 1 12 -15 15 -17 404 -2 413 6 3 10 -1 10 -9 0 -18 54 -82 82 -97 10 -5
-1 10 -25 34 -54 53 -70 109 -71 244 -1 51 -4 93 -8 93 -5 0 -8 -191 -8 -424z"/>
<path d="M5356 1130 c35 -14 39 -42 9 -67 -14 -13 -22 -23 -16 -23 6 0 19 10
31 22 l20 22 27 -24 c52 -46 82 -78 76 -83 -3 -3 4 -3 16 0 28 7 26 16 -6 30
-35 16 -118 92 -126 116 -4 10 -16 17 -29 16 -23 0 -23 0 -2 -9z"/>
<path d="M5267 1112 c6 -4 16 -20 22 -34 9 -24 7 -30 -15 -47 -13 -10 -21 -21
-16 -23 5 -1 5 -18 0 -35 -13 -50 -98 -85 -98 -40 0 7 -16 28 -35 47 -19 18
-33 36 -30 38 3 3 -9 13 -25 23 -17 11 -30 23 -30 29 0 5 -7 10 -15 10 -8 0
-15 -4 -15 -10 0 -5 4 -10 8 -10 15 0 102 -83 102 -96 0 -8 4 -14 9 -14 5 0
11 -10 13 -22 8 -60 128 -14 128 48 0 13 7 27 16 32 29 16 17 112 -14 112 -12
0 -13 -3 -5 -8z"/>
<path d="M5432 963 c-8 -3 4 -23 34 -59 26 -30 41 -54 35 -54 -6 0 -11 -4 -11
-10 0 -5 12 -10 27 -10 l27 0 -30 33 c-51 54 -76 95 -62 100 7 3 9 5 3 5 -5 0
-16 -2 -23 -5z"/>
<path d="M5040 938 c-14 -6 -20 -12 -13 -15 7 -2 23 3 35 11 25 18 15 20 -22
4z"/>
<path d="M5315 940 c-21 -4 -41 -13 -43 -19 -2 -6 -12 -11 -23 -11 -10 0 -19
-4 -19 -10 0 -5 9 -10 19 -10 33 0 44 -71 14 -89 -16 -9 -15 -10 7 -11 22 0
25 4 25 33 0 17 -4 43 -9 56 -10 30 13 51 56 51 15 0 28 5 28 10 0 6 -3 9 -7
9 -5 -1 -26 -5 -48 -9z"/>
<path d="M5104 870 c25 -27 51 -61 56 -75 5 -14 15 -25 22 -25 9 0 9 3 0 12
-7 7 -12 27 -12 45 0 25 6 36 28 47 15 8 23 15 18 16 -5 0 -25 -10 -44 -22
l-35 -22 -31 37 c-17 20 -35 37 -40 37 -5 0 12 -22 38 -50z"/>
<path d="M5740 881 c-11 -15 -31 -23 -80 -29 l-65 -8 65 -7 c50 -5 69 -12 81
-29 l17 -21 6 21 c6 17 18 22 64 27 83 9 84 11 11 19 -53 6 -68 11 -76 28 l-9
20 -14 -21z"/>
<path d="M4597 569 c7 -7 15 -10 18 -7 3 3 -2 9 -12 12 -14 6 -15 5 -6 -5z"/>
<path d="M5240 420 c0 -5 12 -10 28 -10 21 0 24 2 12 10 -20 13 -40 13 -40 0z"/>
<path d="M5068 413 c7 -3 16 -2 19 1 4 3 -2 6 -13 5 -11 0 -14 -3 -6 -6z"/>
<path d="M6711 1286 c-9 -10 -8 -15 2 -19 23 -9 41 8 24 22 -11 9 -17 8 -26
-3z"/>
<path d="M6755 1180 c-33 -3 -53 -9 -45 -12 40 -16 54 -17 82 -2 36 19 43 14
31 -23 -6 -15 -8 -68 -5 -117 l5 -89 -29 7 c-23 5 -26 4 -11 -4 9 -6 15 -15
12 -20 -3 -4 2 -10 10 -14 8 -3 15 -17 15 -31 0 -14 4 -25 10 -25 5 0 7 33 4
83 -8 142 -8 191 0 225 7 25 5 32 -5 30 -8 -1 -41 -4 -74 -8z"/>
<path d="M6518 1173 c7 -3 16 -2 19 1 4 3 -2 6 -13 5 -11 0 -14 -3 -6 -6z"/>
<path d="M1495 1065 c0 -78 3 -95 15 -95 12 0 15 17 15 95 0 78 -3 95 -15 95
-12 0 -15 -17 -15 -95z"/>
<path d="M1550 1066 c0 -57 4 -96 10 -96 6 0 10 36 10 89 0 50 -4 93 -10 96
-6 4 -10 -28 -10 -89z"/>
<path d="M2891 962 c-10 -18 -20 -22 -62 -22 -31 0 -48 -4 -44 -10 3 -5 26
-10 50 -10 35 0 47 -4 56 -22 l12 -22 15 22 c12 18 24 22 63 22 26 0 51 5 54
10 4 6 -14 10 -48 10 -45 0 -57 4 -69 22 l-15 22 -12 -22z"/>
<path d="M1495 775 c0 -78 3 -95 15 -95 12 0 15 17 15 95 0 78 -3 95 -15 95
-12 0 -15 -17 -15 -95z"/>
<path d="M1550 776 c0 -57 4 -96 10 -96 6 0 10 36 10 89 0 50 -4 93 -10 96 -6
4 -10 -28 -10 -89z"/>
<path d="M6790 820 c-11 -8 -7 -9 14 -4 26 6 28 5 20 -17 -4 -13 -7 -68 -5
-121 1 -59 -2 -98 -7 -98 -11 0 -10 -25 1 -36 4 -4 7 -16 7 -26 0 -10 7 -18
15 -18 11 0 12 5 6 23 -12 30 -16 233 -6 275 6 27 5 32 -11 32 -11 0 -26 -5
-34 -10z"/>
<path d="M6528 813 c7 -3 16 -2 19 1 4 3 -2 6 -13 5 -11 0 -14 -3 -6 -6z"/>
<path d="M6683 813 c9 -2 25 -2 35 0 9 3 1 5 -18 5 -19 0 -27 -2 -17 -5z"/>
<path d="M6760 590 c8 -5 20 -10 25 -10 6 0 3 5 -5 10 -8 5 -19 10 -25 10 -5
0 -3 -5 5 -10z"/>
<path d="M6768 503 c7 -3 16 -2 19 1 4 3 -2 6 -13 5 -11 0 -14 -3 -6 -6z"/>
<path d="M635 420 c3 -5 1 -10 -4 -10 -12 0 -16 -266 -5 -294 3 -9 12 -16 20
-16 11 0 14 31 14 165 0 143 -2 165 -16 165 -8 0 -12 -4 -9 -10z m2 -227 c-2
-38 -3 -7 -3 67 0 74 1 105 3 68 2 -38 2 -98 0 -135z"/>
<path d="M290 280 l0 -51 113 3 112 3 0 45 0 45 -112 3 -113 3 0 -51z"/>
</g>
</svg>
