<?xml version="1.0" encoding="UTF-8"?> <svg xmlns="http://www.w3.org/2000/svg" xmlns:xlink="http://www.w3.org/1999/xlink" id="Calque_1" data-name="Calque 1" width="797.49" height="771.85" viewBox="0 0 797.49 771.85"><defs><clipPath id="clip-path"><rect width="797.49" height="771.85" style="fill: none"></rect></clipPath><clipPath id="clip-path-62"><polygon points="223.53 496.62 223.53 669.43 1.5 669.43 1.5 770.35 769.06 770.35 769.06 644.31 744.21 569.77 347.43 570.29 347.43 496.62 223.53 496.62" style="fill: none"></polygon></clipPath><clipPath id="clip-path-64"><rect x="225.45" y="124.34" width="370.63" height="173.47" style="fill: none"></rect></clipPath><clipPath id="clip-path-65"><rect x="620.4" y="124.34" width="50.54" height="173.47" style="fill: none"></rect></clipPath><clipPath id="clip-path-66"><rect x="350.48" y="496.64" width="393.74" height="70.92" style="fill: none"></rect></clipPath></defs><title>plan_calepinage_pose_Plan de travail 1</title><rect x="1.41" y="0.43" width="768.24" height="768.23" style="fill: #fff"></rect><g style="clip-path: url(#clip-path)"><rect x="1.41" y="0.42" width="768.24" height="768.24" style="fill: none;stroke: #dadada;stroke-miterlimit: 10;stroke-width: 0.8489999771118164px"></rect></g><g style="clip-path: url(#clip-path)"><line x1="1.41" y1="743.88" x2="769.65" y2="743.88" style="fill: none;stroke: #dadada;stroke-miterlimit: 10;stroke-width: 0.8489999771118164px"></line></g><g style="clip-path: url(#clip-path)"><line x1="1.41" y1="719.1" x2="769.65" y2="719.1" style="fill: none;stroke: #dadada;stroke-miterlimit: 10;stroke-width: 0.8489999771118164px"></line></g><g style="clip-path: url(#clip-path)"><line x1="1.41" y1="694.32" x2="769.65" y2="694.32" style="fill: none;stroke: #dadada;stroke-miterlimit: 10;stroke-width: 0.8489999771118164px"></line></g><g style="clip-path: url(#clip-path)"><line x1="1.41" y1="669.53" x2="769.65" y2="669.53" style="fill: none;stroke: #dadada;stroke-miterlimit: 10;stroke-width: 0.8489999771118164px"></line></g><g style="clip-path: url(#clip-path)"><line x1="1.41" y1="644.75" x2="769.65" y2="644.75" style="fill: none;stroke: #dadada;stroke-miterlimit: 10;stroke-width: 0.8489999771118164px"></line></g><g style="clip-path: url(#clip-path)"><line x1="1.41" y1="619.97" x2="769.65" y2="619.97" style="fill: none;stroke: #dadada;stroke-miterlimit: 10;stroke-width: 0.8489999771118164px"></line></g><g style="clip-path: url(#clip-path)"><line x1="1.41" y1="595.19" x2="769.65" y2="595.19" style="fill: none;stroke: #dadada;stroke-miterlimit: 10;stroke-width: 0.8489999771118164px"></line></g><g style="clip-path: url(#clip-path)"><line x1="1.41" y1="570.41" x2="769.65" y2="570.41" style="fill: none;stroke: #dadada;stroke-miterlimit: 10;stroke-width: 0.8489999771118164px"></line></g><g style="clip-path: url(#clip-path)"><line x1="1.41" y1="545.62" x2="769.65" y2="545.62" style="fill: none;stroke: #dadada;stroke-miterlimit: 10;stroke-width: 0.8489999771118164px"></line></g><g style="clip-path: url(#clip-path)"><line x1="1.41" y1="520.84" x2="769.65" y2="520.84" style="fill: none;stroke: #dadada;stroke-miterlimit: 10;stroke-width: 0.8489999771118164px"></line></g><g style="clip-path: url(#clip-path)"><line x1="1.41" y1="496.06" x2="769.65" y2="496.06" style="fill: none;stroke: #dadada;stroke-miterlimit: 10;stroke-width: 0.8489999771118164px"></line></g><g style="clip-path: url(#clip-path)"><line x1="1.41" y1="471.28" x2="769.65" y2="471.28" style="fill: none;stroke: #dadada;stroke-miterlimit: 10;stroke-width: 0.8489999771118164px"></line></g><g style="clip-path: url(#clip-path)"><line x1="1.41" y1="446.5" x2="769.65" y2="446.5" style="fill: none;stroke: #dadada;stroke-miterlimit: 10;stroke-width: 0.8489999771118164px"></line></g><g style="clip-path: url(#clip-path)"><line x1="1.41" y1="421.72" x2="769.65" y2="421.72" style="fill: none;stroke: #dadada;stroke-miterlimit: 10;stroke-width: 0.8489999771118164px"></line></g><g style="clip-path: url(#clip-path)"><line x1="1.41" y1="396.93" x2="769.65" y2="396.93" style="fill: none;stroke: #dadada;stroke-miterlimit: 10;stroke-width: 0.8489999771118164px"></line></g><g style="clip-path: url(#clip-path)"><line x1="1.41" y1="372.15" x2="769.65" y2="372.15" style="fill: none;stroke: #dadada;stroke-miterlimit: 10;stroke-width: 0.8489999771118164px"></line></g><g style="clip-path: url(#clip-path)"><line x1="1.41" y1="347.37" x2="769.65" y2="347.37" style="fill: none;stroke: #dadada;stroke-miterlimit: 10;stroke-width: 0.8489999771118164px"></line></g><g style="clip-path: url(#clip-path)"><line x1="1.41" y1="322.59" x2="769.65" y2="322.59" style="fill: none;stroke: #dadada;stroke-miterlimit: 10;stroke-width: 0.8489999771118164px"></line></g><g style="clip-path: url(#clip-path)"><line x1="1.41" y1="297.81" x2="769.65" y2="297.81" style="fill: none;stroke: #dadada;stroke-miterlimit: 10;stroke-width: 0.8489999771118164px"></line></g><g style="clip-path: url(#clip-path)"><line x1="1.41" y1="273.02" x2="769.65" y2="273.02" style="fill: none;stroke: #dadada;stroke-miterlimit: 10;stroke-width: 0.8489999771118164px"></line></g><g style="clip-path: url(#clip-path)"><line x1="1.41" y1="248.24" x2="769.65" y2="248.24" style="fill: none;stroke: #dadada;stroke-miterlimit: 10;stroke-width: 0.8489999771118164px"></line></g><g style="clip-path: url(#clip-path)"><line x1="1.41" y1="223.46" x2="769.65" y2="223.46" style="fill: none;stroke: #dadada;stroke-miterlimit: 10;stroke-width: 0.8489999771118164px"></line></g><g style="clip-path: url(#clip-path)"><line x1="1.41" y1="198.68" x2="769.65" y2="198.68" style="fill: none;stroke: #dadada;stroke-miterlimit: 10;stroke-width: 0.8489999771118164px"></line></g><g style="clip-path: url(#clip-path)"><line x1="1.41" y1="173.9" x2="769.65" y2="173.9" style="fill: none;stroke: #dadada;stroke-miterlimit: 10;stroke-width: 0.8489999771118164px"></line></g><g style="clip-path: url(#clip-path)"><line x1="1.41" y1="149.12" x2="769.65" y2="149.12" style="fill: none;stroke: #dadada;stroke-miterlimit: 10;stroke-width: 0.8489999771118164px"></line></g><g style="clip-path: url(#clip-path)"><line x1="1.41" y1="124.33" x2="769.65" y2="124.33" style="fill: none;stroke: #dadada;stroke-miterlimit: 10;stroke-width: 0.8489999771118164px"></line></g><g style="clip-path: url(#clip-path)"><line x1="1.41" y1="99.55" x2="769.65" y2="99.55" style="fill: none;stroke: #dadada;stroke-miterlimit: 10;stroke-width: 0.8489999771118164px"></line></g><g style="clip-path: url(#clip-path)"><line x1="1.41" y1="74.77" x2="769.65" y2="74.77" style="fill: none;stroke: #dadada;stroke-miterlimit: 10;stroke-width: 0.8489999771118164px"></line></g><g style="clip-path: url(#clip-path)"><line x1="1.41" y1="49.99" x2="769.65" y2="49.99" style="fill: none;stroke: #dadada;stroke-miterlimit: 10;stroke-width: 0.8489999771118164px"></line></g><g style="clip-path: url(#clip-path)"><line x1="1.41" y1="25.21" x2="769.65" y2="25.21" style="fill: none;stroke: #dadada;stroke-miterlimit: 10;stroke-width: 0.8489999771118164px"></line></g><g style="clip-path: url(#clip-path)"><line x1="744.87" y1="0.42" x2="744.87" y2="768.66" style="fill: none;stroke: #dadada;stroke-miterlimit: 10;stroke-width: 0.8489999771118164px"></line></g><g style="clip-path: url(#clip-path)"><line x1="720.09" y1="0.42" x2="720.09" y2="768.66" style="fill: none;stroke: #dadada;stroke-miterlimit: 10;stroke-width: 0.8489999771118164px"></line></g><g style="clip-path: url(#clip-path)"><line x1="695.3" y1="0.42" x2="695.3" y2="768.66" style="fill: none;stroke: #dadada;stroke-miterlimit: 10;stroke-width: 0.8489999771118164px"></line></g><g style="clip-path: url(#clip-path)"><line x1="670.52" y1="0.42" x2="670.52" y2="768.66" style="fill: none;stroke: #dadada;stroke-miterlimit: 10;stroke-width: 0.8489999771118164px"></line></g><g style="clip-path: url(#clip-path)"><line x1="645.74" y1="0.42" x2="645.74" y2="768.66" style="fill: none;stroke: #dadada;stroke-miterlimit: 10;stroke-width: 0.8489999771118164px"></line></g><g style="clip-path: url(#clip-path)"><line x1="620.96" y1="0.42" x2="620.96" y2="768.66" style="fill: none;stroke: #dadada;stroke-miterlimit: 10;stroke-width: 0.8489999771118164px"></line></g><g style="clip-path: url(#clip-path)"><line x1="596.18" y1="0.42" x2="596.18" y2="768.66" style="fill: none;stroke: #dadada;stroke-miterlimit: 10;stroke-width: 0.8489999771118164px"></line></g><g style="clip-path: url(#clip-path)"><line x1="571.39" y1="0.42" x2="571.39" y2="768.66" style="fill: none;stroke: #dadada;stroke-miterlimit: 10;stroke-width: 0.8489999771118164px"></line></g><g style="clip-path: url(#clip-path)"><line x1="546.61" y1="0.42" x2="546.61" y2="768.66" style="fill: none;stroke: #dadada;stroke-miterlimit: 10;stroke-width: 0.8489999771118164px"></line></g><g style="clip-path: url(#clip-path)"><line x1="521.83" y1="0.42" x2="521.83" y2="768.66" style="fill: none;stroke: #dadada;stroke-miterlimit: 10;stroke-width: 0.8489999771118164px"></line></g><g style="clip-path: url(#clip-path)"><line x1="497.05" y1="0.42" x2="497.05" y2="768.66" style="fill: none;stroke: #dadada;stroke-miterlimit: 10;stroke-width: 0.8489999771118164px"></line></g><g style="clip-path: url(#clip-path)"><line x1="472.27" y1="0.42" x2="472.27" y2="768.66" style="fill: none;stroke: #dadada;stroke-miterlimit: 10;stroke-width: 0.8489999771118164px"></line></g><g style="clip-path: url(#clip-path)"><line x1="447.49" y1="0.42" x2="447.49" y2="768.66" style="fill: none;stroke: #dadada;stroke-miterlimit: 10;stroke-width: 0.8489999771118164px"></line></g><g style="clip-path: url(#clip-path)"><line x1="422.7" y1="0.42" x2="422.7" y2="768.66" style="fill: none;stroke: #dadada;stroke-miterlimit: 10;stroke-width: 0.8489999771118164px"></line></g><g style="clip-path: url(#clip-path)"><line x1="397.92" y1="0.42" x2="397.92" y2="768.66" style="fill: none;stroke: #dadada;stroke-miterlimit: 10;stroke-width: 0.8489999771118164px"></line></g><g style="clip-path: url(#clip-path)"><line x1="373.14" y1="0.42" x2="373.14" y2="768.66" style="fill: none;stroke: #dadada;stroke-miterlimit: 10;stroke-width: 0.8489999771118164px"></line></g><g style="clip-path: url(#clip-path)"><line x1="348.36" y1="0.42" x2="348.36" y2="768.66" style="fill: none;stroke: #dadada;stroke-miterlimit: 10;stroke-width: 0.8489999771118164px"></line></g><g style="clip-path: url(#clip-path)"><line x1="323.58" y1="0.42" x2="323.58" y2="768.66" style="fill: none;stroke: #dadada;stroke-miterlimit: 10;stroke-width: 0.8489999771118164px"></line></g><g style="clip-path: url(#clip-path)"><line x1="298.79" y1="0.42" x2="298.79" y2="768.66" style="fill: none;stroke: #dadada;stroke-miterlimit: 10;stroke-width: 0.8489999771118164px"></line></g><g style="clip-path: url(#clip-path)"><line x1="274.01" y1="0.42" x2="274.01" y2="768.66" style="fill: none;stroke: #dadada;stroke-miterlimit: 10;stroke-width: 0.8489999771118164px"></line></g><g style="clip-path: url(#clip-path)"><line x1="249.23" y1="0.42" x2="249.23" y2="768.66" style="fill: none;stroke: #dadada;stroke-miterlimit: 10;stroke-width: 0.8489999771118164px"></line></g><g style="clip-path: url(#clip-path)"><line x1="224.45" y1="0.42" x2="224.45" y2="768.66" style="fill: none;stroke: #dadada;stroke-miterlimit: 10;stroke-width: 0.8489999771118164px"></line></g><g style="clip-path: url(#clip-path)"><line x1="199.67" y1="0.42" x2="199.67" y2="768.66" style="fill: none;stroke: #dadada;stroke-miterlimit: 10;stroke-width: 0.8489999771118164px"></line></g><g style="clip-path: url(#clip-path)"><line x1="174.89" y1="0.42" x2="174.89" y2="768.66" style="fill: none;stroke: #dadada;stroke-miterlimit: 10;stroke-width: 0.8489999771118164px"></line></g><g style="clip-path: url(#clip-path)"><line x1="150.1" y1="0.42" x2="150.1" y2="768.66" style="fill: none;stroke: #dadada;stroke-miterlimit: 10;stroke-width: 0.8489999771118164px"></line></g><g style="clip-path: url(#clip-path)"><line x1="125.32" y1="0.42" x2="125.32" y2="768.66" style="fill: none;stroke: #dadada;stroke-miterlimit: 10;stroke-width: 0.8489999771118164px"></line></g><g style="clip-path: url(#clip-path)"><line x1="100.54" y1="0.42" x2="100.54" y2="768.66" style="fill: none;stroke: #dadada;stroke-miterlimit: 10;stroke-width: 0.8489999771118164px"></line></g><g style="clip-path: url(#clip-path)"><line x1="75.76" y1="0.42" x2="75.76" y2="768.66" style="fill: none;stroke: #dadada;stroke-miterlimit: 10;stroke-width: 0.8489999771118164px"></line></g><g style="clip-path: url(#clip-path)"><line x1="50.98" y1="0.42" x2="50.98" y2="768.66" style="fill: none;stroke: #dadada;stroke-miterlimit: 10;stroke-width: 0.8489999771118164px"></line></g><g style="clip-path: url(#clip-path)"><line x1="26.19" y1="0.42" x2="26.19" y2="768.66" style="fill: none;stroke: #dadada;stroke-miterlimit: 10;stroke-width: 0.8489999771118164px"></line></g><g style="clip-path: url(#clip-path-62)"><line x1="-20.41" y1="782.07" x2="91.2" y2="489.05" style="fill: none;stroke: #936037;stroke-miterlimit: 10"></line><line x1="15.46" y1="782.07" x2="127.07" y2="489.05" style="fill: none;stroke: #936037;stroke-miterlimit: 10"></line><line x1="51.34" y1="782.07" x2="162.95" y2="489.05" style="fill: none;stroke: #936037;stroke-miterlimit: 10"></line><line x1="87.21" y1="782.07" x2="198.82" y2="489.05" style="fill: none;stroke: #936037;stroke-miterlimit: 10"></line><line x1="123.09" y1="782.07" x2="234.69" y2="489.05" style="fill: none;stroke: #936037;stroke-miterlimit: 10"></line><line x1="158.96" y1="782.07" x2="270.57" y2="489.05" style="fill: none;stroke: #936037;stroke-miterlimit: 10"></line><line x1="194.83" y1="782.07" x2="306.44" y2="489.05" style="fill: none;stroke: #936037;stroke-miterlimit: 10"></line><line x1="230.71" y1="782.07" x2="342.32" y2="489.05" style="fill: none;stroke: #936037;stroke-miterlimit: 10"></line><line x1="266.58" y1="782.07" x2="378.19" y2="489.05" style="fill: none;stroke: #936037;stroke-miterlimit: 10"></line><line x1="302.46" y1="782.07" x2="414.06" y2="489.05" style="fill: none;stroke: #936037;stroke-miterlimit: 10"></line><line x1="338.33" y1="782.07" x2="449.94" y2="489.05" style="fill: none;stroke: #936037;stroke-miterlimit: 10"></line><line x1="374.2" y1="782.07" x2="485.81" y2="489.05" style="fill: none;stroke: #936037;stroke-miterlimit: 10"></line><line x1="410.08" y1="782.07" x2="521.69" y2="489.05" style="fill: none;stroke: #936037;stroke-miterlimit: 10"></line><line x1="445.95" y1="782.07" x2="557.56" y2="489.05" style="fill: none;stroke: #936037;stroke-miterlimit: 10"></line><line x1="481.83" y1="782.07" x2="593.43" y2="489.05" style="fill: none;stroke: #936037;stroke-miterlimit: 10"></line><line x1="517.7" y1="782.07" x2="629.31" y2="489.05" style="fill: none;stroke: #936037;stroke-miterlimit: 10"></line><line x1="553.57" y1="782.07" x2="665.18" y2="489.05" style="fill: none;stroke: #936037;stroke-miterlimit: 10"></line><line x1="589.45" y1="782.07" x2="701.06" y2="489.05" style="fill: none;stroke: #936037;stroke-miterlimit: 10"></line><line x1="625.32" y1="782.07" x2="736.93" y2="489.05" style="fill: none;stroke: #936037;stroke-miterlimit: 10"></line><line x1="661.2" y1="782.07" x2="772.8" y2="489.05" style="fill: none;stroke: #936037;stroke-miterlimit: 10"></line><line x1="697.07" y1="782.07" x2="808.68" y2="489.05" style="fill: none;stroke: #936037;stroke-miterlimit: 10"></line><line x1="732.94" y1="782.07" x2="844.55" y2="489.05" style="fill: none;stroke: #936037;stroke-miterlimit: 10"></line><line x1="768.82" y1="782.07" x2="880.43" y2="489.05" style="fill: none;stroke: #1d1d1b;stroke-miterlimit: 10"></line></g><g style="clip-path: url(#clip-path)"><polygon points="1.5 669.43 223.53 669.43 223.53 496.62 347.43 496.62 347.43 570.29 744.21 569.77 769.06 644.31 769.06 770.35 1.5 770.35 1.5 669.43" style="fill: none;stroke: #936037;stroke-miterlimit: 10;stroke-width: 3px"></polygon></g><g><path d="M336.45,673.94c-.25-4.7-.55-10.35-.5-14.55h-.15c-1.15,4-2.55,8.15-4.25,12.8l-6,16.35h-3.3l-5.45-16c-1.6-4.75-2.95-9.1-3.9-13.1h-.1c-.1,4.2-.35,9.85-.65,14.9l-.9,14.45h-4.15l2.35-33.7H315l5.75,16.3c1.4,4.15,2.55,7.85,3.4,11.35h.15c.85-3.4,2.06-7.1,3.56-11.35l6-16.3h5.55l2.1,33.7H337.3Z" style="fill: #1d1d1b"></path><path d="M353.69,678.14l-3.5,10.6h-4.5L357.14,655h5.25l11.5,33.7h-4.65l-3.6-10.6Zm11.05-3.4-3.3-9.7c-.75-2.2-1.25-4.2-1.75-6.15h-.1c-.5,2-1,4.05-1.7,6.1l-3.3,9.75Z" style="fill: #1d1d1b"></path><path d="M383.19,655v33.7h-4.35V655Z" style="fill: #1d1d1b"></path><path d="M390.19,683.44a15.42,15.42,0,0,0,7.8,2.2c4.45,0,7.05-2.35,7.05-5.75,0-3.15-1.8-4.95-6.35-6.7-5.5-2-8.9-4.8-8.9-9.55,0-5.25,4.35-9.15,10.9-9.15a15.31,15.31,0,0,1,7.45,1.65l-1.2,3.55a13.42,13.42,0,0,0-6.4-1.6c-4.6,0-6.35,2.75-6.35,5,0,3.15,2.05,4.7,6.7,6.5,5.7,2.2,8.6,5,8.6,9.9,0,5.2-3.85,9.7-11.8,9.7a17.42,17.42,0,0,1-8.6-2.15Z" style="fill: #1d1d1b"></path><path d="M444.24,671.54c0,11.6-7.05,17.75-15.65,17.75-8.9,0-15.15-6.9-15.15-17.1,0-10.7,6.65-17.7,15.65-17.7C438.29,654.49,444.24,661.54,444.24,671.54Zm-26.15.55c0,7.2,3.9,13.65,10.75,13.65s10.8-6.35,10.8-14c0-6.7-3.5-13.7-10.75-13.7S418.09,664.69,418.09,672.09Z" style="fill: #1d1d1b"></path><path d="M449.89,688.74V655h4.75l10.8,17.05A95.4,95.4,0,0,1,471.49,683l.1,0c-.4-4.5-.5-8.6-.5-13.85V655h4.1v33.7h-4.4l-10.7-17.1a107,107,0,0,1-6.3-11.25l-.15.05c.25,4.25.35,8.3.35,13.9v14.4Z" style="fill: #1d1d1b"></path></g><g style="clip-path: url(#clip-path-64)"><line x1="123.87" y1="365.98" x2="235.47" y2="72.96" style="fill: none;stroke: #009fe3;stroke-miterlimit: 10"></line><line x1="159.74" y1="365.98" x2="271.35" y2="72.96" style="fill: none;stroke: #009fe3;stroke-miterlimit: 10"></line><line x1="195.61" y1="365.98" x2="307.22" y2="72.96" style="fill: none;stroke: #009fe3;stroke-miterlimit: 10"></line><line x1="231.49" y1="365.98" x2="343.1" y2="72.96" style="fill: none;stroke: #009fe3;stroke-miterlimit: 10"></line><line x1="267.36" y1="365.98" x2="378.97" y2="72.96" style="fill: none;stroke: #009fe3;stroke-miterlimit: 10"></line><line x1="303.24" y1="365.98" x2="414.84" y2="72.96" style="fill: none;stroke: #009fe3;stroke-miterlimit: 10"></line><line x1="339.11" y1="365.98" x2="450.72" y2="72.96" style="fill: none;stroke: #009fe3;stroke-miterlimit: 10"></line><line x1="374.98" y1="365.98" x2="486.59" y2="72.96" style="fill: none;stroke: #009fe3;stroke-miterlimit: 10"></line><line x1="410.86" y1="365.98" x2="522.47" y2="72.96" style="fill: none;stroke: #009fe3;stroke-miterlimit: 10"></line><line x1="446.73" y1="365.98" x2="558.34" y2="72.96" style="fill: none;stroke: #009fe3;stroke-miterlimit: 10"></line><line x1="482.61" y1="365.98" x2="594.21" y2="72.96" style="fill: none;stroke: #009fe3;stroke-miterlimit: 10"></line><line x1="518.48" y1="365.98" x2="630.09" y2="72.96" style="fill: none;stroke: #009fe3;stroke-miterlimit: 10"></line><line x1="554.35" y1="365.98" x2="665.96" y2="72.96" style="fill: none;stroke: #009fe3;stroke-miterlimit: 10"></line><line x1="590.23" y1="365.98" x2="701.84" y2="72.96" style="fill: none;stroke: #1d1d1b;stroke-miterlimit: 10"></line></g><rect x="225.45" y="124.34" width="370.63" height="173.47" style="fill: none;stroke: #009fe3;stroke-miterlimit: 10;stroke-width: 4px"></rect><g><path d="M361.05,201.94a26.53,26.53,0,0,1,4.34-.33,7.24,7.24,0,0,1,4.92,1.45,4.72,4.72,0,0,1,1.53,3.67,5.17,5.17,0,0,1-1.35,3.74,7.26,7.26,0,0,1-5.36,1.93,7.8,7.8,0,0,1-1.82-.16v7h-2.26Zm2.26,8.45a7.61,7.61,0,0,0,1.88.19c2.73,0,4.39-1.33,4.39-3.75s-1.64-3.43-4.14-3.43a9.81,9.81,0,0,0-2.13.18Z" style="fill: #1d1d1b"></path><path d="M377.15,201.74v17.52h-2.27V201.74Z" style="fill: #1d1d1b"></path><path d="M380.78,216.5a8,8,0,0,0,4.06,1.15c2.31,0,3.67-1.22,3.67-3s-.94-2.58-3.3-3.49c-2.87-1-4.63-2.49-4.63-5,0-2.73,2.26-4.76,5.67-4.76a8,8,0,0,1,3.87.86l-.62,1.84a7.07,7.07,0,0,0-3.33-.83c-2.4,0-3.31,1.43-3.31,2.63,0,1.64,1.07,2.44,3.49,3.38,3,1.14,4.47,2.57,4.47,5.15s-2,5-6.14,5a9,9,0,0,1-4.47-1.12Z" style="fill: #1d1d1b"></path><path d="M406.16,218.69a11.31,11.31,0,0,1-4.63.83c-4.94,0-8.66-3.12-8.66-8.87,0-5.48,3.72-9.2,9.16-9.2a9.45,9.45,0,0,1,4.16.78l-.55,1.85a8.19,8.19,0,0,0-3.54-.73c-4.1,0-6.83,2.62-6.83,7.23,0,4.29,2.47,7,6.73,7a8.91,8.91,0,0,0,3.69-.73Z" style="fill: #1d1d1b"></path><path d="M411.26,201.74v17.52H409V201.74Z" style="fill: #1d1d1b"></path><path d="M415.21,219.26V201.74h2.47l5.61,8.86a49.42,49.42,0,0,1,3.15,5.7l.05,0c-.2-2.34-.26-4.47-.26-7.2v-7.33h2.14v17.52h-2.29l-5.57-8.89a55,55,0,0,1-3.27-5.85l-.08,0c.13,2.21.18,4.32.18,7.23v7.49Z" style="fill: #1d1d1b"></path><path d="M441.39,211h-6.81v6.32h7.59v1.9h-9.85V201.74h9.46v1.89h-7.2v5.54h6.81Z" style="fill: #1d1d1b"></path></g><g style="clip-path: url(#clip-path-65)"><line x1="508.83" y1="365.98" x2="620.44" y2="72.96" style="fill: none;stroke: #1d1d1b;stroke-miterlimit: 10"></line><line x1="544.7" y1="365.98" x2="656.31" y2="72.96" style="fill: none;stroke: #3aaa35;stroke-miterlimit: 10"></line><line x1="580.58" y1="365.98" x2="692.18" y2="72.96" style="fill: none;stroke: #3aaa35;stroke-miterlimit: 10"></line><line x1="616.45" y1="365.98" x2="728.06" y2="72.96" style="fill: none;stroke: #3aaa35;stroke-miterlimit: 10"></line><line x1="652.32" y1="365.98" x2="763.93" y2="72.96" style="fill: none;stroke: #1d1d1b;stroke-miterlimit: 10"></line></g><rect x="620.4" y="124.34" width="50.54" height="173.47" style="fill: none;stroke: #3aaa35;stroke-miterlimit: 10;stroke-width: 4px"></rect><g><path d="M645.92,234.33c-1.88.1-4.14.22-5.82.2v.06c1.58.46,3.26,1,5.12,1.7l6.54,2.38V240l-6.42,2.18c-1.9.64-3.64,1.18-5.24,1.56v0c1.68,0,3.94.14,6,.26l5.78.36v1.66l-13.48-.94v-2.22l6.52-2.3c1.66-.56,3.14-1,4.54-1.36v-.06c-1.36-.34-2.84-.82-4.54-1.42l-6.52-2.4v-2.22l13.48-.84V234Z" style="fill: #1d1d1b"></path><path d="M647.6,227.43l4.24,1.4v1.8l-13.48-4.58V224l13.48-4.6v1.86l-4.24,1.44ZM646.24,223l-3.88,1.32c-.88.3-1.68.5-2.46.7v0c.8.2,1.62.42,2.44.68l3.9,1.32Z" style="fill: #1d1d1b"></path><path d="M649.72,217.61a6.17,6.17,0,0,0,.88-3.12c0-1.78-.94-2.82-2.3-2.82s-2,.72-2.68,2.54c-.78,2.2-1.92,3.56-3.82,3.56-2.1,0-3.66-1.74-3.66-4.36a6.12,6.12,0,0,1,.66-3l1.42.48a5.37,5.37,0,0,0-.64,2.56c0,1.84,1.1,2.54,2,2.54,1.26,0,1.88-.82,2.6-2.68.88-2.28,2-3.44,4-3.44s3.88,1.54,3.88,4.72a7,7,0,0,1-.86,3.44Z" style="fill: #1d1d1b"></path><path d="M649.72,207.85a6.17,6.17,0,0,0,.88-3.12c0-1.78-.94-2.82-2.3-2.82s-2,.72-2.68,2.54c-.78,2.2-1.92,3.56-3.82,3.56-2.1,0-3.66-1.74-3.66-4.36a6.12,6.12,0,0,1,.66-3l1.42.48a5.37,5.37,0,0,0-.64,2.56c0,1.84,1.1,2.54,2,2.54,1.26,0,1.88-.82,2.6-2.68.88-2.28,2-3.44,4-3.44s3.88,1.54,3.88,4.72a7,7,0,0,1-.86,3.44Z" style="fill: #1d1d1b"></path><path d="M638.36,196h13.48v1.74H638.36Z" style="fill: #1d1d1b"></path><path d="M638.36,193v-7.26h1.46v5.52h4.48v-5.1h1.44v5.1h6.1V193Z" style="fill: #1d1d1b"></path></g><g style="clip-path: url(#clip-path-66)"><line x1="284.58" y1="782.07" x2="396.19" y2="489.05" style="fill: none;stroke: #e94e1b;stroke-miterlimit: 10"></line><line x1="320.46" y1="782.07" x2="432.07" y2="489.05" style="fill: none;stroke: #e94e1b;stroke-miterlimit: 10"></line><line x1="356.33" y1="782.07" x2="467.94" y2="489.05" style="fill: none;stroke: #e94e1b;stroke-miterlimit: 10"></line><line x1="392.21" y1="782.07" x2="503.81" y2="489.05" style="fill: none;stroke: #e94e1b;stroke-miterlimit: 10"></line><line x1="428.08" y1="782.07" x2="539.69" y2="489.05" style="fill: none;stroke: #e94e1b;stroke-miterlimit: 10"></line><line x1="463.95" y1="782.07" x2="575.56" y2="489.05" style="fill: none;stroke: #e94e1b;stroke-miterlimit: 10"></line><line x1="499.83" y1="782.07" x2="611.44" y2="489.05" style="fill: none;stroke: #e94e1b;stroke-miterlimit: 10"></line><line x1="535.7" y1="782.07" x2="647.31" y2="489.05" style="fill: none;stroke: #e94e1b;stroke-miterlimit: 10"></line><line x1="571.58" y1="782.07" x2="683.18" y2="489.05" style="fill: none;stroke: #e94e1b;stroke-miterlimit: 10"></line><line x1="607.45" y1="782.07" x2="719.06" y2="489.05" style="fill: none;stroke: #e94e1b;stroke-miterlimit: 10"></line><line x1="643.32" y1="782.07" x2="754.93" y2="489.05" style="fill: none;stroke: #e94e1b;stroke-miterlimit: 10"></line><line x1="661.2" y1="782.07" x2="772.8" y2="489.05" style="fill: none;stroke: #1d1d1b;stroke-miterlimit: 10"></line><line x1="697.07" y1="782.07" x2="808.68" y2="489.05" style="fill: none;stroke: #1d1d1b;stroke-miterlimit: 10"></line><line x1="732.94" y1="782.07" x2="844.55" y2="489.05" style="fill: none;stroke: #1d1d1b;stroke-miterlimit: 10"></line></g><rect x="350.48" y="496.64" width="393.73" height="70.92" style="fill: none;stroke: #e6332a;stroke-miterlimit: 10;stroke-width: 3px"></rect><g><path d="M482.48,528.31h-4.1v-1.48h10v1.48h-4.12v12h-1.76Z" style="fill: #1d1d1b"></path><path d="M496.84,534H491.6v4.86h5.84v1.46h-7.58V526.83h7.28v1.46H491.6v4.26h5.24Z" style="fill: #1d1d1b"></path><path d="M499.7,527a18.12,18.12,0,0,1,3.34-.28,5.51,5.51,0,0,1,3.9,1.1,3.36,3.36,0,0,1,1.06,2.56,3.54,3.54,0,0,1-2.54,3.44v.06a3.36,3.36,0,0,1,2,2.72,21.45,21.45,0,0,0,1,3.7h-1.8a17.46,17.46,0,0,1-.9-3.22c-.4-1.86-1.12-2.56-2.7-2.62h-1.64v5.84H499.7Zm1.74,6.14h1.78c1.86,0,3-1,3-2.56,0-1.74-1.26-2.5-3.1-2.52a7.16,7.16,0,0,0-1.72.16Z" style="fill: #1d1d1b"></path><path d="M510.46,527a18.12,18.12,0,0,1,3.34-.28,5.51,5.51,0,0,1,3.9,1.1,3.36,3.36,0,0,1,1.06,2.56,3.54,3.54,0,0,1-2.54,3.44v.06a3.36,3.36,0,0,1,2,2.72,21.45,21.45,0,0,0,1,3.7h-1.8a17.46,17.46,0,0,1-.9-3.22c-.4-1.86-1.12-2.56-2.7-2.62H512.2v5.84h-1.74Zm1.74,6.14H514c1.86,0,3-1,3-2.56,0-1.74-1.26-2.5-3.1-2.52a7.16,7.16,0,0,0-1.72.16Z" style="fill: #1d1d1b"></path><path d="M523.4,536.07l-1.4,4.24h-1.8l4.58-13.48h2.1l4.6,13.48h-1.86l-1.44-4.24Zm4.42-1.36-1.32-3.88c-.3-.88-.5-1.68-.7-2.46h0c-.2.8-.42,1.62-.68,2.44l-1.32,3.9Z" style="fill: #1d1d1b"></path><path d="M533.22,538.19a6.17,6.17,0,0,0,3.12.88c1.78,0,2.82-.94,2.82-2.3s-.72-2-2.54-2.68c-2.2-.78-3.56-1.92-3.56-3.82,0-2.1,1.74-3.66,4.36-3.66a6.12,6.12,0,0,1,3,.66l-.48,1.42a5.37,5.37,0,0,0-2.56-.64c-1.84,0-2.54,1.1-2.54,2,0,1.26.82,1.88,2.68,2.6,2.28.88,3.44,2,3.44,4s-1.54,3.88-4.72,3.88a7,7,0,0,1-3.44-.86Z" style="fill: #1d1d1b"></path><path d="M543,538.19a6.17,6.17,0,0,0,3.12.88c1.78,0,2.82-.94,2.82-2.3s-.72-2-2.54-2.68c-2.2-.78-3.56-1.92-3.56-3.82,0-2.1,1.74-3.66,4.36-3.66a6.12,6.12,0,0,1,3,.66l-.48,1.42a5.37,5.37,0,0,0-2.56-.64c-1.84,0-2.54,1.1-2.54,2,0,1.26.82,1.88,2.68,2.6,2.28.88,3.44,2,3.44,4s-1.54,3.88-4.72,3.88a7,7,0,0,1-3.44-.86Z" style="fill: #1d1d1b"></path><path d="M560,534H554.8v4.86h5.84v1.46h-7.58V526.83h7.28v1.46H554.8v4.26H560Z" style="fill: #1d1d1b"></path></g><g style="clip-path: url(#clip-path)"><path d="M743.65,569.77V50.14H124.85V224.35H50v65.84a104.38,104.38,0,0,0,16.46,56.27l1.87,2.91a106.82,106.82,0,0,1,3,110.28l-12.57,22.2A67,67,0,0,0,50,514.92V670.36" style="fill: none;stroke: #1d1d1b;stroke-miterlimit: 10;stroke-width: 4px"></path><path d="M322.54,573.54A48.4,48.4,0,1,1,370.94,622a48.4,48.4,0,0,1-48.4-48.41" style="fill: #fff"></path><circle cx="370.94" cy="573.54" r="48.4" style="fill: none;stroke: #b2b2b2;stroke-miterlimit: 10;stroke-width: 8px"></circle><path d="M387.52,575.49c0,4-7.11,7.27-15.88,7.27s-15.88-3.26-15.88-7.27,7.11-7.27,15.88-7.27,15.88,3.26,15.88,7.27" style="fill: #1d1d1b"></path><path d="M392.54,579.68c-2.7-6.53-11-11.3-20.9-11.3-10.14,0-18.66,5-21.11,11.86" style="fill: none;stroke: #1d1d1b;stroke-linecap: round;stroke-linejoin: round;stroke-width: 4px"></path><line x1="350.53" y1="580.24" x2="336.99" y2="566.69" style="fill: none;stroke: #1d1d1b;stroke-linecap: round;stroke-linejoin: round;stroke-width: 4px"></line><path d="M392.54,579.68l-6.25,6.26a21.28,21.28,0,0,1-30.06,0l-5.7-5.7" style="fill: none;stroke: #1d1d1b;stroke-linecap: round;stroke-linejoin: round;stroke-width: 4px"></path><line x1="406.3" y1="565.92" x2="392.54" y2="579.68" style="fill: none;stroke: #1d1d1b;stroke-linecap: round;stroke-linejoin: round;stroke-width: 4px"></line><line x1="355.72" y1="563.57" x2="349.49" y2="554.71" style="fill: none;stroke: #1d1d1b;stroke-linecap: round;stroke-linejoin: round;stroke-width: 4px"></line><line x1="387.57" y1="563.57" x2="393.79" y2="554.71" style="fill: none;stroke: #1d1d1b;stroke-linecap: round;stroke-linejoin: round;stroke-width: 4px"></line><line x1="372.24" y1="562.37" x2="372.24" y2="550.4" style="fill: none;stroke: #1d1d1b;stroke-linecap: round;stroke-linejoin: round;stroke-width: 4px"></line><line x1="175.7" y1="99.17" x2="162.73" y2="118.2" style="fill: #95c11f"></line><line x1="175.7" y1="99.17" x2="162.73" y2="118.2" style="fill: none;stroke: #009640;stroke-linecap: round;stroke-linejoin: round;stroke-width: 5px"></line><line x1="175.7" y1="118.29" x2="162.73" y2="137.32" style="fill: #95c11f"></line><line x1="175.7" y1="118.29" x2="162.73" y2="137.32" style="fill: none;stroke: #009640;stroke-linecap: round;stroke-linejoin: round;stroke-width: 5px"></line><line x1="175.7" y1="137.41" x2="162.73" y2="156.44" style="fill: #95c11f"></line><line x1="175.7" y1="137.41" x2="162.73" y2="156.44" style="fill: none;stroke: #009640;stroke-linecap: round;stroke-linejoin: round;stroke-width: 5px"></line><line x1="175.7" y1="156.52" x2="162.73" y2="175.55" style="fill: #95c11f"></line><line x1="175.7" y1="156.52" x2="162.73" y2="175.55" style="fill: none;stroke: #009640;stroke-linecap: round;stroke-linejoin: round;stroke-width: 5px"></line><line x1="175.7" y1="175.64" x2="162.73" y2="194.67" style="fill: #95c11f"></line><line x1="175.7" y1="175.64" x2="162.73" y2="194.67" style="fill: none;stroke: #009640;stroke-linecap: round;stroke-linejoin: round;stroke-width: 5px"></line><line x1="175.7" y1="194.76" x2="162.73" y2="213.79" style="fill: #95c11f"></line><line x1="175.7" y1="194.76" x2="162.73" y2="213.79" style="fill: none;stroke: #009640;stroke-linecap: round;stroke-linejoin: round;stroke-width: 5px"></line><line x1="175.7" y1="213.88" x2="162.73" y2="232.91" style="fill: #95c11f"></line><line x1="175.7" y1="213.88" x2="162.73" y2="232.91" style="fill: none;stroke: #009640;stroke-linecap: round;stroke-linejoin: round;stroke-width: 5px"></line><line x1="175.7" y1="233" x2="162.73" y2="252.03" style="fill: #95c11f"></line><line x1="175.7" y1="233" x2="162.73" y2="252.03" style="fill: none;stroke: #009640;stroke-linecap: round;stroke-linejoin: round;stroke-width: 5px"></line><line x1="175.7" y1="252.12" x2="162.73" y2="271.15" style="fill: #95c11f"></line><line x1="175.7" y1="252.12" x2="162.73" y2="271.15" style="fill: none;stroke: #009640;stroke-linecap: round;stroke-linejoin: round;stroke-width: 5px"></line><line x1="175.7" y1="271.23" x2="162.73" y2="290.26" style="fill: #95c11f"></line><line x1="175.7" y1="271.23" x2="162.73" y2="290.26" style="fill: none;stroke: #009640;stroke-linecap: round;stroke-linejoin: round;stroke-width: 5px"></line><line x1="175.7" y1="290.35" x2="162.73" y2="309.38" style="fill: #95c11f"></line><line x1="175.7" y1="290.35" x2="162.73" y2="309.38" style="fill: none;stroke: #009640;stroke-linecap: round;stroke-linejoin: round;stroke-width: 5px"></line><line x1="175.7" y1="309.47" x2="162.73" y2="328.5" style="fill: #95c11f"></line><line x1="175.7" y1="309.47" x2="162.73" y2="328.5" style="fill: none;stroke: #009640;stroke-linecap: round;stroke-linejoin: round;stroke-width: 5px"></line><line x1="175.7" y1="328.59" x2="162.73" y2="347.62" style="fill: #95c11f"></line><line x1="175.7" y1="328.59" x2="162.73" y2="347.62" style="fill: none;stroke: #009640;stroke-linecap: round;stroke-linejoin: round;stroke-width: 5px"></line><line x1="175.7" y1="347.71" x2="162.73" y2="366.74" style="fill: #95c11f"></line><line x1="175.7" y1="347.71" x2="162.73" y2="366.74" style="fill: none;stroke: #009640;stroke-linecap: round;stroke-linejoin: round;stroke-width: 5px"></line><line x1="175.7" y1="366.82" x2="162.73" y2="385.85" style="fill: #95c11f"></line><line x1="175.7" y1="366.82" x2="162.73" y2="385.85" style="fill: none;stroke: #009640;stroke-linecap: round;stroke-linejoin: round;stroke-width: 5px"></line><line x1="175.7" y1="385.94" x2="162.73" y2="404.97" style="fill: #95c11f"></line><line x1="175.7" y1="385.94" x2="162.73" y2="404.97" style="fill: none;stroke: #009640;stroke-linecap: round;stroke-linejoin: round;stroke-width: 5px"></line><line x1="175.7" y1="405.06" x2="162.73" y2="424.09" style="fill: #95c11f"></line><line x1="175.7" y1="405.06" x2="162.73" y2="424.09" style="fill: none;stroke: #009640;stroke-linecap: round;stroke-linejoin: round;stroke-width: 5px"></line><line x1="175.7" y1="424.18" x2="162.73" y2="443.21" style="fill: #95c11f"></line><line x1="175.7" y1="424.18" x2="162.73" y2="443.21" style="fill: none;stroke: #009640;stroke-linecap: round;stroke-linejoin: round;stroke-width: 5px"></line><line x1="175.7" y1="443.3" x2="162.73" y2="462.33" style="fill: #95c11f"></line><line x1="175.7" y1="443.3" x2="162.73" y2="462.33" style="fill: none;stroke: #009640;stroke-linecap: round;stroke-linejoin: round;stroke-width: 5px"></line><line x1="175.7" y1="462.41" x2="162.73" y2="481.44" style="fill: #95c11f"></line><line x1="175.7" y1="462.41" x2="162.73" y2="481.44" style="fill: none;stroke: #009640;stroke-linecap: round;stroke-linejoin: round;stroke-width: 5px"></line><line x1="175.7" y1="481.53" x2="162.73" y2="500.56" style="fill: #95c11f"></line><line x1="175.7" y1="481.53" x2="162.73" y2="500.56" style="fill: none;stroke: #009640;stroke-linecap: round;stroke-linejoin: round;stroke-width: 5px"></line><line x1="175.7" y1="500.65" x2="162.73" y2="519.68" style="fill: #95c11f"></line><line x1="175.7" y1="500.65" x2="162.73" y2="519.68" style="fill: none;stroke: #009640;stroke-linecap: round;stroke-linejoin: round;stroke-width: 5px"></line><line x1="175.7" y1="519.77" x2="162.73" y2="538.8" style="fill: #95c11f"></line><line x1="175.7" y1="519.77" x2="162.73" y2="538.8" style="fill: none;stroke: #009640;stroke-linecap: round;stroke-linejoin: round;stroke-width: 5px"></line><line x1="175.7" y1="538.89" x2="162.73" y2="557.92" style="fill: #95c11f"></line><line x1="175.7" y1="538.89" x2="162.73" y2="557.92" style="fill: none;stroke: #009640;stroke-linecap: round;stroke-linejoin: round;stroke-width: 5px"></line><line x1="539.29" y1="469.73" x2="526.31" y2="450.7" style="fill: #95c11f"></line><line x1="539.29" y1="469.73" x2="526.31" y2="450.7" style="fill: none;stroke: #009640;stroke-linecap: round;stroke-linejoin: round;stroke-width: 5px"></line><line x1="539.29" y1="452.05" x2="526.31" y2="433.02" style="fill: #95c11f"></line><line x1="539.29" y1="452.05" x2="526.31" y2="433.02" style="fill: none;stroke: #009640;stroke-linecap: round;stroke-linejoin: round;stroke-width: 5px"></line><line x1="539.29" y1="434.37" x2="526.31" y2="415.34" style="fill: #95c11f"></line><line x1="539.29" y1="434.37" x2="526.31" y2="415.34" style="fill: none;stroke: #009640;stroke-linecap: round;stroke-linejoin: round;stroke-width: 5px"></line><line x1="539.29" y1="416.69" x2="526.31" y2="397.66" style="fill: #95c11f"></line><line x1="539.29" y1="416.69" x2="526.31" y2="397.66" style="fill: none;stroke: #009640;stroke-linecap: round;stroke-linejoin: round;stroke-width: 5px"></line><line x1="539.29" y1="399.01" x2="526.31" y2="379.98" style="fill: #95c11f"></line><line x1="539.29" y1="399.01" x2="526.31" y2="379.98" style="fill: none;stroke: #009640;stroke-linecap: round;stroke-linejoin: round;stroke-width: 5px"></line><line x1="539.29" y1="381.33" x2="526.31" y2="362.3" style="fill: #95c11f"></line><line x1="539.29" y1="381.33" x2="526.31" y2="362.3" style="fill: none;stroke: #009640;stroke-linecap: round;stroke-linejoin: round;stroke-width: 5px"></line><path d="M49.61,126.26a50.79,50.79,0,1,1,50.79,50.79,50.79,50.79,0,0,1-50.79-50.79" style="fill: #fff"></path><path d="M49.61,126.26a50.79,50.79,0,1,1,50.79,50.79A50.79,50.79,0,0,1,49.61,126.26Z" style="fill: none;stroke: #706f6f;stroke-miterlimit: 10;stroke-width: 10px"></path><polyline points="79.8 121 95.92 151.38 119.99 107.85" style="fill: #fff"></polyline><polyline points="79.8 121 95.92 151.38 119.99 107.85" style="fill: none;stroke: #3aaa35;stroke-linecap: round;stroke-linejoin: round;stroke-width: 18px"></polyline><path d="M412.19,389.33A50.79,50.79,0,1,1,463,440.12a50.79,50.79,0,0,1-50.79-50.79" style="fill: #fff"></path><path d="M412.19,389.33A50.79,50.79,0,1,1,463,440.12,50.79,50.79,0,0,1,412.19,389.33Z" style="fill: none;stroke: #706f6f;stroke-miterlimit: 10;stroke-width: 10px"></path><line x1="482.68" y1="410.35" x2="443.62" y2="371.29" style="fill: #fff"></line><line x1="482.68" y1="410.35" x2="443.62" y2="371.29" style="fill: none;stroke: #e30613;stroke-linecap: round;stroke-linejoin: round;stroke-width: 18px"></line><line x1="443.62" y1="410.35" x2="482.68" y2="371.29" style="fill: #fff"></line><line x1="443.62" y1="410.35" x2="482.68" y2="371.29" style="fill: none;stroke: #e30613;stroke-linecap: round;stroke-linejoin: round;stroke-width: 18px"></line><line x1="539.98" y1="474.26" x2="539.98" y2="338.21" style="fill: none;stroke: #dadada;stroke-miterlimit: 10;stroke-width: 5px"></line><polygon points="549.24 345.23 539.98 341.3 530.72 345.23 539.98 323.28 549.24 345.23" style="fill: #dadada"></polygon><line x1="176.03" y1="79.27" x2="176.03" y2="581.29" style="fill: none;stroke: #dadada;stroke-miterlimit: 10;stroke-width: 5px"></line><polygon points="166.77 574.27 176.03 578.2 185.28 574.27 176.03 596.21 166.77 574.27" style="fill: #dadada"></polygon><line x1="321.38" y1="323.28" x2="308.4" y2="342.31" style="fill: #95c11f"></line><line x1="321.38" y1="323.28" x2="308.4" y2="342.31" style="fill: none;stroke: #009640;stroke-linecap: round;stroke-linejoin: round;stroke-width: 5px"></line><line x1="321.38" y1="342.37" x2="308.4" y2="361.4" style="fill: #95c11f"></line><line x1="321.38" y1="342.37" x2="308.4" y2="361.4" style="fill: none;stroke: #009640;stroke-linecap: round;stroke-linejoin: round;stroke-width: 5px"></line><line x1="321.38" y1="361.46" x2="308.4" y2="380.49" style="fill: #95c11f"></line><line x1="321.38" y1="361.46" x2="308.4" y2="380.49" style="fill: none;stroke: #009640;stroke-linecap: round;stroke-linejoin: round;stroke-width: 5px"></line><line x1="321.38" y1="380.55" x2="308.4" y2="399.58" style="fill: #95c11f"></line><line x1="321.38" y1="380.55" x2="308.4" y2="399.58" style="fill: none;stroke: #009640;stroke-linecap: round;stroke-linejoin: round;stroke-width: 5px"></line><line x1="321.38" y1="399.64" x2="308.4" y2="418.67" style="fill: #95c11f"></line><line x1="321.38" y1="399.64" x2="308.4" y2="418.67" style="fill: none;stroke: #009640;stroke-linecap: round;stroke-linejoin: round;stroke-width: 5px"></line><line x1="321.38" y1="418.72" x2="308.4" y2="437.75" style="fill: #95c11f"></line><line x1="321.38" y1="418.72" x2="308.4" y2="437.75" style="fill: none;stroke: #009640;stroke-linecap: round;stroke-linejoin: round;stroke-width: 5px"></line><line x1="321.7" y1="323.28" x2="321.7" y2="460.73" style="fill: none;stroke: #dadada;stroke-miterlimit: 10;stroke-width: 5px"></line><polygon points="312.44 453.71 321.7 457.64 330.96 453.71 321.7 475.65 312.44 453.71" style="fill: #dadada"></polygon><line x1="718.21" y1="99.17" x2="705.24" y2="118.2" style="fill: #95c11f"></line><line x1="718.21" y1="99.17" x2="705.24" y2="118.2" style="fill: none;stroke: #009640;stroke-linecap: round;stroke-linejoin: round;stroke-width: 5px"></line><line x1="718.21" y1="118.04" x2="705.24" y2="137.07" style="fill: #95c11f"></line><line x1="718.21" y1="118.04" x2="705.24" y2="137.07" style="fill: none;stroke: #009640;stroke-linecap: round;stroke-linejoin: round;stroke-width: 5px"></line><line x1="718.21" y1="136.92" x2="705.24" y2="155.95" style="fill: #95c11f"></line><line x1="718.21" y1="136.92" x2="705.24" y2="155.95" style="fill: none;stroke: #009640;stroke-linecap: round;stroke-linejoin: round;stroke-width: 5px"></line><line x1="718.21" y1="155.79" x2="705.24" y2="174.82" style="fill: #95c11f"></line><line x1="718.21" y1="155.79" x2="705.24" y2="174.82" style="fill: none;stroke: #009640;stroke-linecap: round;stroke-linejoin: round;stroke-width: 5px"></line><line x1="718.21" y1="174.66" x2="705.24" y2="193.69" style="fill: #95c11f"></line><line x1="718.21" y1="174.66" x2="705.24" y2="193.69" style="fill: none;stroke: #009640;stroke-linecap: round;stroke-linejoin: round;stroke-width: 5px"></line><line x1="718.21" y1="193.53" x2="705.24" y2="212.56" style="fill: #95c11f"></line><line x1="718.21" y1="193.53" x2="705.24" y2="212.56" style="fill: none;stroke: #009640;stroke-linecap: round;stroke-linejoin: round;stroke-width: 5px"></line><line x1="718.21" y1="212.41" x2="705.24" y2="231.44" style="fill: #95c11f"></line><line x1="718.21" y1="212.41" x2="705.24" y2="231.44" style="fill: none;stroke: #009640;stroke-linecap: round;stroke-linejoin: round;stroke-width: 5px"></line><line x1="718.21" y1="231.28" x2="705.24" y2="250.31" style="fill: #95c11f"></line><line x1="718.21" y1="231.28" x2="705.24" y2="250.31" style="fill: none;stroke: #009640;stroke-linecap: round;stroke-linejoin: round;stroke-width: 5px"></line><line x1="718.21" y1="250.15" x2="705.24" y2="269.18" style="fill: #95c11f"></line><line x1="718.21" y1="250.15" x2="705.24" y2="269.18" style="fill: none;stroke: #009640;stroke-linecap: round;stroke-linejoin: round;stroke-width: 5px"></line><line x1="718.21" y1="269.03" x2="705.24" y2="288.06" style="fill: #95c11f"></line><line x1="718.21" y1="269.03" x2="705.24" y2="288.06" style="fill: none;stroke: #009640;stroke-linecap: round;stroke-linejoin: round;stroke-width: 5px"></line><line x1="718.21" y1="287.9" x2="705.24" y2="306.93" style="fill: #95c11f"></line><line x1="718.21" y1="287.9" x2="705.24" y2="306.93" style="fill: none;stroke: #009640;stroke-linecap: round;stroke-linejoin: round;stroke-width: 5px"></line><line x1="718.21" y1="306.77" x2="705.24" y2="325.8" style="fill: #95c11f"></line><line x1="718.21" y1="306.77" x2="705.24" y2="325.8" style="fill: none;stroke: #009640;stroke-linecap: round;stroke-linejoin: round;stroke-width: 5px"></line><line x1="718.21" y1="325.64" x2="705.24" y2="344.67" style="fill: #95c11f"></line><line x1="718.21" y1="325.64" x2="705.24" y2="344.67" style="fill: none;stroke: #009640;stroke-linecap: round;stroke-linejoin: round;stroke-width: 5px"></line><line x1="718.21" y1="344.52" x2="705.24" y2="363.55" style="fill: #95c11f"></line><line x1="718.21" y1="344.52" x2="705.24" y2="363.55" style="fill: none;stroke: #009640;stroke-linecap: round;stroke-linejoin: round;stroke-width: 5px"></line><line x1="718.21" y1="363.39" x2="705.24" y2="382.42" style="fill: #95c11f"></line><line x1="718.21" y1="363.39" x2="705.24" y2="382.42" style="fill: none;stroke: #009640;stroke-linecap: round;stroke-linejoin: round;stroke-width: 5px"></line><line x1="718.21" y1="382.26" x2="705.24" y2="401.29" style="fill: #95c11f"></line><line x1="718.21" y1="382.26" x2="705.24" y2="401.29" style="fill: none;stroke: #009640;stroke-linecap: round;stroke-linejoin: round;stroke-width: 5px"></line><line x1="718.21" y1="401.14" x2="705.24" y2="420.17" style="fill: #95c11f"></line><line x1="718.21" y1="401.14" x2="705.24" y2="420.17" style="fill: none;stroke: #009640;stroke-linecap: round;stroke-linejoin: round;stroke-width: 5px"></line><line x1="718.21" y1="420.01" x2="705.24" y2="439.04" style="fill: #95c11f"></line><line x1="718.21" y1="420.01" x2="705.24" y2="439.04" style="fill: none;stroke: #009640;stroke-linecap: round;stroke-linejoin: round;stroke-width: 5px"></line><line x1="718.21" y1="438.88" x2="705.24" y2="457.91" style="fill: #95c11f"></line><line x1="718.21" y1="438.88" x2="705.24" y2="457.91" style="fill: none;stroke: #009640;stroke-linecap: round;stroke-linejoin: round;stroke-width: 5px"></line><line x1="718.54" y1="79.27" x2="718.54" y2="475.8" style="fill: none;stroke: #dadada;stroke-miterlimit: 10;stroke-width: 5px"></line><polygon points="709.28 468.78 718.54 472.71 727.8 468.78 718.54 490.73 709.28 468.78" style="fill: #dadada"></polygon><path d="M690.91,126.26a50.79,50.79,0,1,1,50.79,50.79,50.79,50.79,0,0,1-50.79-50.79" style="fill: #fff"></path><path d="M690.91,126.26a50.79,50.79,0,1,1,50.79,50.79A50.79,50.79,0,0,1,690.91,126.26Z" style="fill: none;stroke: #706f6f;stroke-miterlimit: 10;stroke-width: 10px"></path><polyline points="721.1 121 737.22 151.38 761.29 107.85" style="fill: #fff"></polyline><polyline points="721.1 121 737.22 151.38 761.29 107.85" style="fill: none;stroke: #3aaa35;stroke-linecap: round;stroke-linejoin: round;stroke-width: 18px"></polyline><path d="M195.28,384.12a50.79,50.79,0,1,1,50.79,50.79,50.79,50.79,0,0,1-50.79-50.79" style="fill: #fff"></path><path d="M195.28,384.12a50.79,50.79,0,1,1,50.79,50.79A50.79,50.79,0,0,1,195.28,384.12Z" style="fill: none;stroke: #706f6f;stroke-miterlimit: 10;stroke-width: 10px"></path><polyline points="225.48 378.86 241.59 409.24 265.67 365.71" style="fill: #fff"></polyline><polyline points="225.48 378.86 241.59 409.24 265.67 365.71" style="fill: none;stroke: #3aaa35;stroke-linecap: round;stroke-linejoin: round;stroke-width: 18px"></polyline><path d="M22.07,642.88a49.37,49.37,0,1,1,49.37,49.37,49.36,49.36,0,0,1-49.37-49.37" style="fill: #fff"></path><path d="M71.44,693.89a51,51,0,1,1,51-51,51.06,51.06,0,0,1-51,51m0-98.74a47.73,47.73,0,1,0,47.73,47.73,47.79,47.79,0,0,0-47.73-47.73" style="fill: #95c11f"></path><path d="M71.44,696.39A53.51,53.51,0,1,1,125,642.88a53.57,53.57,0,0,1-53.51,53.51m0-98.74a45.23,45.23,0,1,0,45.23,45.23,45.28,45.28,0,0,0-45.23-45.23" style="fill: #95c11f"></path><path d="M79,664.53a3,3,0,0,1-3-2.95V638.45A16.84,16.84,0,0,0,69,624.77a15.81,15.81,0,0,0-14.47-2.17c-.28.1-.56.2-.84.32a13.29,13.29,0,0,0-7.37,17.3,10.05,10.05,0,0,0,13.07,5.57,7.46,7.46,0,0,0,4.13-9.69,5.37,5.37,0,0,0-7-3,3.71,3.71,0,0,0-2,4.82,2.95,2.95,0,1,1-5.47,2.2,9.61,9.61,0,0,1,5.32-12.49A11.27,11.27,0,0,1,69,633.9a13.36,13.36,0,0,1-7.4,17.36,16,16,0,0,1-20.75-8.84,19.19,19.19,0,0,1,10.65-25c.37-.15.74-.29,1.12-.42A21.6,21.6,0,0,1,72.44,620,22.75,22.75,0,0,1,82,638.45v23.13a3,3,0,0,1-3,2.95" style="fill: #008d36"></path><rect x="90.82" y="627.38" width="3.28" height="37.26" style="fill: #95c11f"></rect><polygon points="98.01 633.9 92.46 628.35 86.91 633.9 86.91 629.19 92.46 623.63 98.01 629.19 98.01 633.9" style="fill: #95c11f"></polygon></g></svg> 