<?xml version="1.0" standalone="no"?>
<!DOCTYPE svg PUBLIC "-//W3C//DTD SVG 20010904//EN"
 "http://www.w3.org/TR/2001/REC-SVG-20010904/DTD/svg10.dtd">
<svg version="1.0" xmlns="http://www.w3.org/2000/svg"
 width="817.000000pt" height="526.000000pt" viewBox="0 0 817.000000 526.000000"
 preserveAspectRatio="xMidYMid meet">

<g transform="translate(0.000000,526.000000) scale(0.100000,-0.100000)"
fill="#000000" stroke="none">
<path d="M5630 5140 c0 -5 -9 -10 -21 -10 -11 0 -17 -5 -14 -10 9 -15 -24 -25
-38 -11 -8 8 -8 11 2 11 7 0 9 5 6 10 -9 15 -25 2 -25 -21 0 -18 6 -20 43 -17
l42 3 3 -201 c2 -195 2 -202 -18 -207 -11 -3 -20 -12 -20 -21 0 -14 -40 -16
-382 -18 -331 -2 -347 -3 -115 -5 l267 -3 0 -410 -1 -410 -364 0 -365 0 0 115
0 115 358 3 357 2 -365 2 c-201 2 -371 -1 -378 -5 -10 -7 -11 -77 -6 -345 l7
-337 378 0 378 0 1 -300 c0 -289 0 -300 -19 -300 -10 0 -21 7 -25 15 -3 8 -10
15 -17 15 -6 0 -9 -7 -5 -15 4 -12 -4 -15 -40 -15 -28 0 -43 4 -39 10 3 6 -1
10 -9 10 -9 0 -144 0 -301 0 -157 0 -290 0 -296 0 -5 0 -7 -4 -4 -10 4 -6 -14
-10 -46 -10 -43 0 -50 2 -40 14 9 11 9 15 -1 19 -7 2 -10 8 -5 12 4 5 16 -1
27 -13 25 -27 36 -28 50 -3 20 38 13 51 -30 51 -22 0 -40 3 -40 8 1 20 91 135
135 172 28 23 95 64 150 91 55 28 89 48 75 44 -65 -17 -197 -92 -253 -144 -69
-64 -97 -105 -120 -178 -23 -71 -22 -83 8 -83 22 0 25 -3 19 -25 -5 -20 -2
-25 12 -25 16 0 16 2 4 10 -12 8 -12 10 2 15 20 8 41 -2 33 -16 -4 -5 -1 -9 4
-9 6 0 11 11 11 25 l0 25 348 0 c265 0 351 -3 361 -12 11 -10 14 -10 18 0 3 6
11 12 20 12 12 0 14 -12 11 -65 -2 -47 0 -65 10 -65 11 0 18 66 14 123 -1 12
6 17 23 17 27 0 42 -16 23 -23 -8 -3 -6 -6 5 -6 11 -1 17 6 17 19 0 14 -7 20
-24 20 -52 0 -51 -5 -48 220 l3 210 35 0 c31 0 35 3 32 22 -2 12 -10 24 -18
26 -13 4 -13 3 -2 -11 11 -13 10 -16 -7 -22 -12 -3 -25 -4 -31 0 -6 4 -9 259
-7 708 l2 702 101 3 c95 2 102 1 107 -18 3 -11 10 -20 15 -20 6 0 8 9 5 20 -4
16 0 20 17 20 17 0 21 -4 17 -20 -3 -13 0 -20 9 -20 8 0 14 6 14 14 0 8 3 21
6 30 5 12 0 16 -17 16 -26 0 -15 16 16 22 18 3 19 11 16 185 -1 100 0 191 4
203 5 16 15 20 46 20 31 0 39 4 39 18 0 10 5 23 12 30 9 9 3 12 -27 12 l-40 0
23 -18 c23 -18 21 -32 -5 -32 -7 0 -13 7 -13 15 0 8 -7 15 -16 15 -8 0 -12 5
-9 10 4 6 -10 10 -34 10 -23 0 -41 -4 -41 -10z m50 -25 c0 -35 -34 -35 -36 0
-2 18 3 25 17 25 14 0 19 -7 19 -25z m0 -400 c0 -18 -5 -25 -20 -25 -15 0 -20
7 -20 25 0 18 5 25 20 25 15 0 20 -7 20 -25z m-50 -55 c0 -5 -4 -10 -10 -10
-5 0 -10 5 -10 10 0 6 5 10 10 10 6 0 10 -4 10 -10z m-270 -1070 l0 -210 -375
0 -375 0 0 210 0 210 375 0 375 0 0 -210z m-775 -759 c3 -5 1 -13 -5 -16 -15
-9 -43 3 -35 15 8 13 32 13 40 1z"/>
<path d="M5898 5123 c7 -3 16 -2 19 1 4 3 -2 6 -13 5 -11 0 -14 -3 -6 -6z"/>
<path d="M5950 5110 c34 -11 60 -11 35 0 -11 5 -29 8 -40 8 -16 0 -15 -2 5 -8z"/>
<path d="M6025 5090 c27 -12 43 -12 25 0 -8 5 -22 9 -30 9 -10 0 -8 -3 5 -9z"/>
<path d="M6155 5037 c163 -81 271 -207 283 -328 4 -44 3 -49 -16 -49 -17 0
-19 -4 -13 -27 4 -16 15 -29 23 -31 12 -2 15 2 11 17 -4 16 -1 21 16 21 23 0
29 -25 9 -33 -8 -3 -5 -6 5 -6 11 -1 21 8 24 19 5 19 14 20 260 20 l255 0 -6
-27 c-36 -180 -41 -237 -40 -453 0 -185 4 -246 22 -344 12 -66 27 -123 34
-127 15 -10 27 -1 12 9 -6 4 -19 57 -30 117 -27 158 -27 530 1 698 16 102 22
118 40 123 11 2 238 3 505 2 l485 -3 0 -478 c0 -262 3 -477 8 -477 10 0 9
-208 -1 -214 -5 -3 -40 -10 -78 -16 -92 -15 -162 -55 -189 -107 -19 -39 -20
-54 -15 -379 l5 -339 140 -5 140 -5 0 -223 0 -223 -230 -2 -230 -2 -3 -158 -3
-157 -568 0 c-643 0 -578 -10 -576 87 1 52 -9 71 -18 36 -4 -14 -5 -12 -6 5
-1 28 -19 28 -31 0 l-9 -23 0 23 c-1 12 -6 22 -11 22 -6 0 -15 -10 -20 -22
l-9 -23 0 23 c-1 12 -6 22 -11 22 -6 0 -15 -10 -20 -22 l-9 -23 0 23 c-1 12
-6 22 -11 22 -6 0 -15 -10 -20 -22 l-9 -23 0 23 c-1 28 -19 28 -31 -1 l-9 -22
0 23 c-1 28 -19 28 -31 0 l-9 -23 0 23 c-1 12 -6 22 -11 22 -6 0 -15 -10 -20
-22 l-9 -23 0 23 c-1 28 -19 28 -31 0 l-9 -23 0 23 c-1 28 -19 28 -31 -1 l-9
-22 0 23 c-1 28 -19 28 -31 0 l-9 -23 0 23 c-1 12 -6 22 -11 22 -6 0 -15 -10
-20 -22 l-9 -23 0 23 c-1 12 -6 22 -11 22 -6 0 -15 -10 -20 -22 l-9 -23 0 23
c-1 12 -6 22 -11 22 -6 0 -15 -10 -20 -22 l-9 -23 0 23 c-1 12 -6 22 -11 22
-6 0 -15 -10 -20 -22 l-9 -23 0 23 c-1 12 -6 22 -11 22 -6 0 -15 -10 -20 -22
l-9 -23 0 23 c-1 12 -6 22 -11 22 -6 0 -15 -10 -20 -22 l-9 -23 0 23 c-1 12
-6 22 -11 22 -6 0 -15 -10 -20 -22 l-9 -23 0 23 c-1 12 -6 22 -11 22 -6 0 -15
-10 -20 -22 l-9 -23 0 23 c-1 12 -6 22 -11 22 -6 0 -15 -10 -20 -22 l-9 -23 0
23 c-1 28 -19 28 -31 0 l-9 -23 0 23 c-1 12 -6 22 -11 22 -6 0 -15 -10 -20
-22 l-9 -23 0 23 c-1 28 -19 28 -31 -1 l-9 -22 0 23 c-1 12 -6 22 -11 22 -6 0
-15 -10 -20 -22 l-9 -23 0 23 c-1 28 -19 28 -31 -1 l-9 -22 0 23 c-1 28 -19
28 -31 -1 l-9 -22 0 23 c-1 28 -19 28 -31 0 l-9 -23 0 23 c-1 27 -21 30 -21 2
0 -11 -4 -20 -10 -20 -5 0 -10 8 -10 18 0 14 -8 19 -30 19 -22 0 -30 -5 -30
-19 0 -10 -4 -18 -10 -18 -5 0 -10 8 -10 19 0 15 -7 18 -32 17 -25 -2 -32 -6
-30 -19 2 -9 -2 -17 -8 -17 -5 0 -10 9 -10 21 0 15 -4 19 -16 15 -9 -3 -20 -6
-26 -6 -7 0 -8 -15 -4 -39 8 -52 8 -1307 0 -1359 -6 -40 -5 -42 20 -42 16 0
26 5 26 15 0 8 4 15 10 15 5 0 9 -5 7 -12 -1 -7 12 -12 31 -14 21 -1 32 3 32
12 0 8 5 14 10 14 6 0 10 -6 10 -13 0 -8 12 -14 30 -14 18 0 30 6 30 14 0 7 5
13 10 13 6 0 10 -7 10 -15 0 -23 18 -18 23 7 l4 23 2 -22 c1 -27 27 -31 34 -5
4 16 5 16 6 0 0 -10 7 -18 15 -18 8 0 17 8 19 18 4 16 5 16 6 0 0 -10 7 -18
15 -18 8 0 17 8 19 18 4 16 5 16 6 0 1 -23 28 -23 34 -1 4 17 5 17 6 1 1 -23
28 -23 34 -1 4 17 5 17 6 1 1 -23 28 -23 34 -1 4 17 5 17 6 1 0 -10 7 -18 15
-18 8 0 17 8 19 18 4 16 5 16 6 0 0 -10 7 -18 15 -18 8 0 17 8 19 18 4 16 5
16 6 0 2 -26 29 -22 34 4 l4 23 2 -22 c1 -27 27 -31 34 -6 4 17 5 17 6 1 0
-10 7 -18 15 -18 8 0 17 8 19 18 4 16 5 16 6 0 0 -10 7 -18 15 -18 8 0 17 8
19 18 4 16 5 16 6 0 1 -23 28 -23 34 0 4 16 5 16 6 0 1 -23 28 -23 34 -1 4 17
5 17 6 1 0 -10 7 -18 15 -18 8 0 17 8 19 18 4 16 5 16 6 0 0 -10 7 -18 15 -18
8 0 17 8 19 18 4 16 5 16 6 0 0 -10 7 -18 15 -18 8 0 17 8 19 18 4 16 5 16 6
0 1 -23 28 -23 34 0 4 16 5 16 6 0 0 -10 7 -18 15 -18 8 0 17 8 19 18 4 16 5
16 6 0 1 -23 28 -23 34 -1 4 17 5 17 6 1 0 -10 7 -18 15 -18 8 0 17 8 19 18 4
16 5 16 6 0 1 -23 28 -23 34 0 4 16 5 16 6 0 1 -23 28 -23 34 -1 4 17 5 17 6
1 0 -10 7 -18 15 -18 8 0 17 8 19 18 4 16 5 16 6 0 2 -26 29 -22 34 5 l4 22 2
-22 c1 -27 31 -31 32 -5 0 15 1 15 8 -2 12 -30 18 -7 16 59 -1 35 3 63 9 67 6
4 140 8 299 8 205 0 287 3 287 11 0 6 69 82 153 168 83 86 191 197 239 247 61
64 89 86 91 75 10 -42 8 -411 -3 -430 -9 -18 -8 -21 10 -21 19 0 20 5 17 198
-2 188 -1 197 15 178 21 -26 24 -9 3 21 -8 11 -17 39 -21 62 -4 25 -12 41 -20
41 -22 0 -16 37 7 43 12 3 18 10 15 16 -4 5 -2 13 4 16 16 10 90 105 90 116 0
20 -16 6 -43 -36 -16 -25 -33 -45 -38 -45 -5 0 -9 53 -9 119 0 65 -3 140 -6
167 l-7 49 22 -19 c24 -21 28 -11 7 19 -7 11 -17 35 -21 53 -6 30 -5 32 22 33
24 1 22 3 -12 10 -22 5 -46 18 -53 29 -12 20 -10 20 230 18 l243 -3 3 -562 2
-563 -196 -2 -197 -3 2 -112 c1 -71 -2 -118 -10 -130 -9 -15 -8 -26 5 -51 15
-29 36 -43 36 -24 0 4 18 8 40 9 22 2 40 -2 40 -7 0 -6 6 -10 14 -10 9 0 12 7
9 20 -3 11 -1 20 4 20 5 0 27 15 49 33 31 27 56 37 123 50 46 9 86 19 89 21 2
3 -15 32 -38 65 -45 68 -32 65 -151 35 -78 -19 -79 -19 -79 26 l0 40 155 0
156 0 -3 -155 c-3 -143 -2 -155 15 -155 16 0 17 -12 15 -142 l-3 -143 -3937
-3 c-3787 -2 -3938 -1 -3938 16 0 10 5 23 11 29 8 8 8 13 0 17 -17 11 -15 476
2 476 50 1 484 1 492 0 6 0 2 -5 -7 -11 -16 -9 -18 -31 -18 -227 1 -165 4
-221 14 -234 33 -44 36 -22 36 237 l0 255 -265 0 -265 0 0 55 0 55 530 0 530
0 0 130 c0 94 3 130 12 130 9 0 9 3 0 12 -8 8 -12 54 -12 140 l0 128 226 0
226 0 -4 -140 c-3 -134 -2 -140 17 -140 19 0 20 7 20 137 0 125 2 138 18 141
17 4 18 -5 15 -137 -2 -78 0 -141 5 -141 4 0 7 65 7 145 l0 145 -265 0 -266 0
3 78 3 77 263 3 262 2 0 140 c0 77 -3 140 -7 140 -5 0 -7 -61 -5 -136 3 -126
2 -135 -15 -132 -16 3 -18 16 -18 141 0 129 -1 138 -19 135 -17 -3 -18 -13
-17 -140 l2 -138 -226 0 -226 0 1 137 c1 76 1 198 1 270 l-1 133 -527 2 -528
3 -2 728 c-2 400 -1 727 2 727 2 0 14 -18 26 -40 12 -21 40 -53 61 -70 43 -35
147 -86 193 -95 17 -3 1 5 -34 19 -110 42 -189 107 -229 186 -9 18 -12 71 -10
185 3 157 3 160 26 163 12 2 22 10 22 17 0 7 -10 15 -22 17 -18 2 -24 11 -26
37 -4 40 17 89 29 69 4 -7 11 -9 14 -6 11 11 -5 28 -26 28 -18 0 -19 8 -19
145 0 128 2 149 21 182 34 62 89 112 164 149 39 19 59 32 45 28 -79 -21 -183
-99 -227 -170 -9 -15 -12 15 -12 149 l-1 167 1134 0 c1051 0 1134 -1 1140 -17
4 -9 6 -100 6 -201 -2 -204 -3 -202 63 -202 31 0 44 7 70 35 l33 35 63 -25
c72 -30 122 -60 168 -103 31 -29 99 -59 109 -49 3 3 -8 8 -24 12 -16 3 -55 28
-88 56 -35 30 -89 62 -136 81 -43 18 -78 36 -78 41 0 26 157 -43 226 -99 61
-50 91 -67 107 -60 7 2 6 5 -4 5 -9 1 -43 23 -77 50 -60 48 -142 93 -195 106
-15 4 -27 11 -27 17 0 15 120 67 198 84 152 34 379 6 487 -60 35 -22 38 -25
20 -32 -67 -23 -167 -80 -208 -119 -67 -61 -44 -57 27 5 63 55 88 70 159 94
80 27 74 6 -8 -29 -42 -18 -101 -53 -133 -77 -31 -24 -65 -48 -77 -55 -11 -7
-16 -12 -12 -13 14 0 50 22 102 63 55 44 162 97 196 97 11 0 34 -13 49 -30 33
-35 86 -41 116 -12 18 16 19 30 14 195 -3 97 -2 177 3 177 4 0 7 7 7 15 0 13
47 15 343 18 188 1 -587 2 -1723 2 l-2065 0 -3 -2282 -2 -2283 3955 0 3955 0
0 2285 0 2285 -780 0 c-645 0 -780 2 -780 13 0 8 -11 19 -25 25 -18 8 -25 19
-25 40 0 51 -57 147 -122 206 -56 51 -181 125 -238 141 -14 3 16 -14 65 -38z
m325 -377 c0 -5 -4 -10 -10 -10 -5 0 -10 5 -10 10 0 6 5 10 10 10 6 0 10 -4
10 -10z m-3637 -66 c-4 -11 1 -22 12 -30 22 -16 71 -18 80 -4 3 6 12 10 20 10
10 0 15 -16 17 -52 2 -28 8 -53 14 -55 11 -4 11 33 -1 105 -6 32 -5 32 33 32
43 0 56 -8 43 -24 -5 -6 -11 -33 -13 -61 -4 -40 -9 -51 -24 -53 -10 -2 -23 -8
-28 -13 -6 -5 -28 -9 -51 -9 -60 0 -201 -38 -269 -72 -32 -16 -80 -52 -107
-80 -78 -82 -83 -75 -87 127 -1 93 0 175 2 182 4 10 48 13 185 13 163 0 180
-2 174 -16z m709 9 c2 -5 2 -88 0 -185 -3 -208 -3 -208 -91 -125 -31 29 -81
65 -111 80 -70 34 -199 67 -262 67 -47 0 -63 12 -33 24 11 4 15 20 15 56 0 37
4 50 14 50 8 0 18 -4 21 -10 8 -13 48 -13 80 2 18 8 24 17 19 30 -5 17 5 18
170 18 96 0 176 -3 178 -7z m-612 -18 c0 -15 -35 -20 -64 -9 -25 10 -8 24 30
24 24 0 34 -5 34 -15z m245 0 c0 -5 -19 -11 -42 -13 -34 -3 -43 0 -43 13 0 13
9 16 43 13 23 -2 42 -7 42 -13z m4820 -1211 l0 -59 -98 -3 c-81 -2 -98 0 -103
13 -8 19 28 60 69 82 29 15 104 32 122 29 6 -2 10 -29 10 -62z m25 -64 c0 -5
-5 -10 -11 -10 -5 0 -7 5 -4 10 3 6 8 10 11 10 2 0 4 -4 4 -10z m-16 -28 c6
-9 -96 -282 -105 -282 -4 0 -26 48 -49 108 -40 102 -60 140 -60 115 0 -10 22
-69 40 -108 6 -11 21 -50 35 -87 l25 -68 -46 -122 c-25 -68 -50 -127 -55 -133
-7 -7 -9 91 -8 288 l2 297 108 0 c59 0 110 -4 113 -8z m16 -324 c0 -232 -2
-260 -15 -242 -8 10 -15 25 -15 32 0 8 -6 28 -14 45 -26 56 -66 160 -66 170 0
30 94 257 106 257 2 0 4 -118 4 -262z m-84 -110 c15 -40 37 -95 50 -123 38
-86 40 -82 -34 -89 -103 -9 -152 -7 -157 7 -3 6 17 70 45 142 27 71 50 131 50
132 0 2 4 3 9 3 5 0 22 -33 37 -72z m-258 -765 c-1 -43 -4 -70 -6 -60 -4 17
-5 17 -22 2 -18 -17 -18 -18 6 -43 19 -22 24 -37 24 -80 l0 -53 -42 3 -43 3
-3 140 c-1 76 0 145 2 152 3 8 22 13 46 13 l40 0 -2 -77z m330 -75 l-3 -153
-150 0 -150 0 -3 43 c-2 27 1 42 9 42 8 0 8 4 -1 15 -16 19 -11 19 31 0 25
-10 29 -14 14 -15 -17 -1 -17 -2 4 -11 14 -5 39 -7 55 -3 28 6 29 8 11 15 -14
5 -15 8 -5 9 10 1 9 4 -5 10 -11 4 -30 6 -42 3 -55 -12 -86 50 -40 82 22 16
22 16 -8 10 -29 -6 -29 -6 -11 9 17 14 18 16 3 16 -13 0 -17 9 -17 40 l0 40
155 0 156 0 -3 -152z m-6820 -615 l2 -613 -515 0 -515 0 0 608 c0 335 3 612 7
615 3 4 234 6 512 5 l506 -3 3 -612z m4032 577 c0 -5 -4 -10 -10 -10 -5 0 -10
5 -10 10 0 6 5 10 10 10 6 0 10 -4 10 -10z m80 0 c0 -5 -4 -10 -10 -10 -5 0
-10 5 -10 10 0 6 5 10 10 10 6 0 10 -4 10 -10z m1030 -76 c0 -54 -22 -57 -30
-3 l-5 34 -525 0 -525 0 0 -650 0 -650 527 -3 527 -2 3 37 c4 52 23 43 23 -9
l0 -43 -552 -3 -553 -2 0 670 0 670 555 0 555 0 0 -46z m-44 15 c3 -6 -3 -21
-15 -33 -21 -20 -32 -21 -299 -26 l-277 -5 -5 -178 -5 -177 -42 49 c-51 58
-153 129 -286 197 l-97 49 0 61 c0 33 3 64 7 67 12 12 1011 8 1019 -4z m881
-90 c17 -14 19 -609 3 -640 -10 -18 -7 -19 47 -17 50 1 52 2 16 5 l-43 4 0
324 c0 285 2 324 16 329 23 9 237 7 252 -2 9 -7 12 -76 10 -312 l-3 -304 -45
-18 c-41 -17 -42 -18 -10 -12 l35 7 -49 -54 c-27 -30 -114 -120 -193 -201
-139 -143 -161 -156 -132 -81 7 19 7 40 0 68 -5 22 -17 88 -27 148 -9 59 -22
107 -27 107 -5 0 -7 -12 -3 -27 3 -16 10 -59 16 -98 6 -38 16 -94 22 -123 12
-57 2 -105 -35 -169 l-19 -33 -623 0 c-405 0 -626 -4 -630 -10 -4 -6 11 -10
37 -10 24 0 68 -7 98 -15 65 -18 85 -18 50 -2 -21 10 7 12 155 15 98 1 185 0
192 -2 7 -3 13 -19 13 -37 l0 -31 -112 4 c-62 2 -122 8 -133 12 -16 6 -17 6
-5 -3 11 -8 -95 -11 -382 -11 l-398 0 0 120 c0 66 2 120 4 120 2 0 33 -16 70
-35 37 -19 75 -35 84 -34 9 0 1 6 -20 14 -42 15 -83 40 -115 69 -23 19 -23 21
-23 328 0 169 4 308 8 308 5 0 14 -18 21 -41 20 -68 132 -170 183 -169 7 1 -5
10 -27 21 -54 27 -110 84 -135 137 -33 69 -64 275 -45 294 8 8 217 -104 274
-146 89 -66 151 -143 151 -189 0 -31 -83 -137 -107 -137 -8 0 -12 -4 -8 -9 3
-5 -8 -30 -23 -55 -16 -25 -37 -66 -47 -92 -32 -85 9 -155 121 -208 l56 -27
-4 -64 c-1 -36 0 -65 5 -65 4 0 7 -16 7 -35 0 -24 5 -35 15 -35 13 0 14 73 12
568 l-2 567 719 -3 c504 -2 724 -6 733 -13z m844 9 c-1 -5 -1 -258 -1 -563 0
-548 0 -555 -20 -555 -20 0 -20 7 -20 558 0 307 3 562 7 566 9 8 34 4 34 -6z
m-505 -136 c0 -37 2 -131 4 -210 2 -98 -1 -147 -9 -155 -8 -8 -11 46 -11 218
0 125 3 225 7 221 4 -4 8 -37 9 -74z m-1817 -547 c1 -257 6 -248 -85 -195 -59
33 -94 82 -94 129 0 37 47 137 88 187 68 85 84 104 87 104 2 0 4 -101 4 -225z
m1991 -500 c0 -43 -1 -44 -35 -51 -41 -7 -43 -15 -14 -53 24 -33 19 -51 -17
-51 -24 0 -24 1 -24 100 l0 100 45 0 45 0 0 -45z m198 -37 c-5 -15 -58 -24
-58 -10 0 15 12 22 38 22 14 0 22 -5 20 -12z m-7208 -223 c0 -130 -4 -205 -10
-205 -6 0 -10 75 -10 205 0 130 4 205 10 205 6 0 10 -75 10 -205z m7010 184
c0 -18 -2 -19 -15 -9 -8 7 -15 16 -15 21 0 5 7 9 15 9 9 0 15 -9 15 -21z m144
2 c6 -10 -28 -21 -59 -20 -16 0 -13 4 10 14 36 17 42 18 49 6z m-100 -16 c3
-9 0 -15 -9 -15 -8 0 -15 7 -15 15 0 8 4 15 9 15 5 0 11 -7 15 -15z m156 -15
c-8 -5 -24 -9 -35 -9 l-20 0 20 9 c11 5 27 9 35 9 13 1 13 0 0 -9z m-71 -14
c-10 -10 -79 -24 -79 -16 0 8 22 14 69 19 8 0 12 -1 10 -3z m-134 -76 c0 -22
-4 -25 -40 -25 -33 0 -40 3 -40 20 0 12 9 22 25 26 40 12 55 6 55 -21z m50 10
c-3 -5 -10 -10 -16 -10 -5 0 -9 5 -9 10 0 6 7 10 16 10 8 0 12 -4 9 -10z"/>
<path d="M7787 2093 c-15 -14 -7 -43 12 -43 23 0 35 36 14 44 -18 7 -18 7 -26
-1z"/>
<path d="M7875 2064 c29 -15 45 -31 45 -47 0 -5 -14 3 -31 17 -17 14 -36 26
-42 26 -6 0 -2 -7 10 -15 25 -17 27 -60 3 -75 -8 -5 -11 -10 -6 -10 6 0 20 10
33 22 13 12 26 18 30 14 5 -4 -5 -19 -20 -32 -15 -13 -23 -24 -17 -24 14 0 70
55 70 68 0 16 -69 72 -88 72 -11 0 -6 -6 13 -16z"/>
<path d="M643 1463 c-12 -32 -43 -43 -125 -43 -56 0 -46 -20 10 -21 79 -2 103
-11 117 -44 l13 -30 12 31 c12 34 40 44 122 44 20 0 40 5 43 10 4 6 -8 10 -28
10 -62 0 -127 13 -127 24 0 7 -6 20 -13 31 -13 17 -15 16 -24 -12z"/>
<path d="M6170 1719 c-12 -8 -9 -9 12 -5 24 6 29 2 43 -30 14 -34 14 -38 -6
-65 -37 -52 -90 -68 -82 -24 3 13 0 39 -6 57 -10 28 -9 35 6 47 16 12 16 13
-7 7 -14 -3 -34 -6 -45 -6 -19 -1 -19 -2 1 -10 14 -5 25 -24 32 -52 16 -62 -5
-89 -84 -105 l-59 -12 61 5 62 6 -14 -51 c-16 -64 -19 -68 -56 -87 -35 -18
-58 -13 -58 14 0 10 -18 43 -40 72 -22 29 -40 55 -40 57 0 2 19 1 43 -2 33 -4
36 -3 12 3 -52 14 -115 54 -115 72 0 4 10 10 23 13 12 3 47 15 77 27 51 19 52
20 15 15 -21 -4 -52 -13 -67 -21 -15 -8 -38 -14 -53 -14 -32 0 -32 -8 3 -45
51 -54 102 -127 96 -136 -3 -5 -16 -9 -30 -9 -29 0 -84 -26 -84 -40 0 -16 22
-12 34 6 12 16 91 36 101 26 3 -3 5 -16 5 -29 0 -17 -6 -23 -22 -24 -16 -1
-12 -4 12 -10 19 -5 48 -6 63 -3 30 6 72 25 74 34 1 3 6 18 12 33 6 16 11 38
11 50 0 37 14 51 38 38 11 -6 27 -11 34 -10 7 0 1 5 -14 11 -38 13 -35 25 10
43 20 8 47 28 59 42 l22 28 36 -35 c19 -19 45 -49 58 -67 12 -18 29 -33 37
-33 24 -1 -20 -30 -44 -30 -12 0 -69 -14 -128 -32 -78 -23 -108 -37 -111 -50
-3 -10 -14 -18 -25 -18 -11 0 -22 -7 -26 -15 -3 -8 -11 -15 -18 -15 -7 0 -27
-13 -45 -30 l-32 -30 -29 38 c-16 20 -32 45 -35 55 -4 9 -14 17 -23 17 -12 0
-8 -10 16 -42 61 -82 83 -118 89 -150 8 -37 2 -37 126 -9 56 12 78 20 57 20
-34 1 -34 1 -27 41 4 26 2 49 -8 68 -21 43 -6 70 48 84 25 7 45 15 45 19 0 4
13 12 29 17 33 12 36 10 99 -92 32 -51 38 -67 25 -63 -10 3 -62 22 -116 42
-55 19 -106 35 -115 35 -10 -1 28 -15 83 -34 55 -18 111 -38 125 -46 l25 -13
-40 -18 c-22 -10 -51 -18 -65 -19 -18 -2 -20 -4 -7 -7 10 -3 39 2 64 11 26 9
59 16 75 16 31 0 36 11 13 30 -24 20 -106 160 -100 171 4 5 17 9 30 9 29 0 86
31 82 45 -2 5 -13 12 -25 15 -29 7 -150 148 -154 179 -2 19 -9 27 -28 29 -14
1 -32 -3 -40 -9z m-70 -395 c14 -35 12 -87 -3 -108 -12 -17 -95 -42 -105 -31
-3 3 -7 29 -10 59 l-4 54 43 26 c55 32 67 32 79 0z"/>
<path d="M6010 1680 c-20 -6 -21 -8 -5 -8 11 0 29 3 40 8 25 11 -1 11 -35 0z"/>
<path d="M6223 1503 c9 -2 23 -2 30 0 6 3 -1 5 -18 5 -16 0 -22 -2 -12 -5z"/>
<path d="M6288 1493 c7 -3 16 -2 19 1 4 3 -2 6 -13 5 -11 0 -14 -3 -6 -6z"/>
<path d="M6650 1333 c-9 -26 -18 -32 -51 -37 -133 -20 -131 -19 -44 -30 73
-10 81 -13 93 -39 l14 -29 18 30 c17 27 25 30 92 38 62 6 68 9 43 15 -16 5
-51 11 -78 14 -41 6 -49 10 -61 38 l-14 32 -12 -32z"/>
<path d="M5538 1293 c6 -2 18 -2 25 0 6 3 1 5 -13 5 -14 0 -19 -2 -12 -5z"/>
<path d="M6198 1213 c6 -2 18 -2 25 0 6 3 1 5 -13 5 -14 0 -19 -2 -12 -5z"/>
<path d="M7348 1163 c6 -2 18 -2 25 0 6 3 1 5 -13 5 -14 0 -19 -2 -12 -5z"/>
<path d="M5458 793 c7 -3 16 -2 19 1 4 3 -2 6 -13 5 -11 0 -14 -3 -6 -6z"/>
<path d="M5543 783 c9 -2 23 -2 30 0 6 3 -1 5 -18 5 -16 0 -22 -2 -12 -5z"/>
<path d="M5985 660 c11 -5 27 -9 35 -9 9 0 8 4 -5 9 -11 5 -27 9 -35 9 -9 0
-8 -4 5 -9z"/>
<path d="M5648 1273 c6 -2 18 -2 25 0 6 3 1 5 -13 5 -14 0 -19 -2 -12 -5z"/>
<path d="M4284 4627 c-17 -10 -19 -88 -2 -105 7 -7 23 -12 38 -11 l25 1 -25 7
c-22 6 -25 13 -26 54 l-2 47 260 0 c227 0 259 -2 254 -15 -3 -8 -1 -15 4 -15
11 0 13 -30 4 -54 -3 -9 -15 -16 -25 -16 -10 0 -19 -4 -19 -9 0 -11 60 7 61
17 5 58 5 83 -1 92 -8 13 -523 20 -546 7z"/>
<path d="M4373 4593 c31 -2 83 -2 115 0 31 2 5 3 -58 3 -63 0 -89 -1 -57 -3z"/>
<path d="M4633 4593 c32 -2 81 -2 110 0 29 2 3 3 -58 3 -60 0 -84 -1 -52 -3z"/>
<path d="M4526 4561 c-3 -5 1 -14 9 -21 18 -15 68 -5 63 12 -6 17 -29 22 -26
6 2 -7 -4 -13 -12 -13 -8 0 -14 6 -12 13 2 14 -14 17 -22 3z"/>
<path d="M648 4533 c23 -2 59 -2 80 0 20 2 1 4 -43 4 -44 0 -61 -2 -37 -4z"/>
<path d="M518 4523 c7 -3 16 -2 19 1 4 3 -2 6 -13 5 -11 0 -14 -3 -6 -6z"/>
<path d="M838 4523 c7 -3 16 -2 19 1 4 3 -2 6 -13 5 -11 0 -14 -3 -6 -6z"/>
<path d="M478 4513 c7 -3 16 -2 19 1 4 3 -2 6 -13 5 -11 0 -14 -3 -6 -6z"/>
<path d="M878 4513 c7 -3 16 -2 19 1 4 3 -2 6 -13 5 -11 0 -14 -3 -6 -6z"/>
<path d="M4410 4499 c0 -11 -9 -41 -21 -66 -25 -54 -20 -96 17 -155 84 -133
267 -103 319 52 17 50 16 52 -6 108 -13 31 -24 61 -24 66 0 5 -6 11 -12 14
-19 6 -16 -8 12 -66 32 -67 31 -96 -4 -158 -38 -66 -72 -88 -137 -88 -58 0
-90 16 -128 67 -40 52 -44 111 -12 181 30 66 30 66 11 66 -8 0 -15 -9 -15 -21z"/>
<path d="M925 4500 c27 -12 43 -12 25 0 -8 5 -22 9 -30 9 -10 0 -8 -3 5 -9z"/>
<path d="M4477 4503 c-18 -18 0 -23 78 -23 71 0 83 2 79 15 -5 11 -23 15 -78
15 -40 0 -76 -3 -79 -7z"/>
<path d="M1020 4460 c31 -15 75 -47 97 -70 74 -73 74 -75 71 -515 l-3 -390
-27 -41 c-34 -52 -90 -97 -170 -135 -35 -16 -52 -27 -38 -23 53 14 135 60 176
100 82 80 79 62 82 484 3 428 1 443 -71 518 -37 38 -142 103 -164 102 -4 -1
17 -14 47 -30z"/>
<path d="M588 4473 c6 -2 18 -2 25 0 6 3 1 5 -13 5 -14 0 -19 -2 -12 -5z"/>
<path d="M763 4473 c9 -2 23 -2 30 0 6 3 -1 5 -18 5 -16 0 -22 -2 -12 -5z"/>
<path d="M464 4450 c-59 -21 -120 -58 -151 -91 -51 -56 -53 -71 -53 -466 0
-409 1 -413 69 -479 35 -34 119 -79 166 -89 17 -3 4 5 -28 19 -83 35 -135 73
-163 121 -23 40 -24 48 -24 238 l0 197 23 -9 c24 -9 67 2 67 18 0 14 -38 24
-66 17 l-25 -7 3 189 3 189 28 37 c36 47 90 82 169 112 35 12 56 23 48 23 -8
0 -38 -9 -66 -19z"/>
<path d="M838 4463 c7 -3 16 -2 19 1 4 3 -2 6 -13 5 -11 0 -14 -3 -6 -6z"/>
<path d="M930 4429 c69 -32 122 -76 146 -121 11 -22 14 -100 14 -418 l0 -390
-24 -38 c-28 -44 -83 -84 -163 -118 -32 -14 -45 -22 -28 -19 52 11 135 56 171
91 64 64 64 67 64 479 0 410 0 413 -62 472 -35 34 -143 93 -168 92 -8 0 14
-13 50 -30z"/>
<path d="M4520 4439 c-13 -23 -7 -49 11 -49 8 0 8 4 0 14 -10 12 -8 17 8 25
27 15 54 3 48 -21 -4 -12 -1 -18 6 -15 18 6 15 51 -3 59 -30 13 -59 8 -70 -13z"/>
<path d="M4466 4429 c-31 -24 -33 -57 -7 -114 44 -97 127 -108 180 -22 34 56
27 147 -12 147 -5 0 -2 -9 8 -20 22 -24 14 -79 -20 -132 -42 -64 -85 -60 -130
12 -34 53 -33 102 1 129 15 12 22 21 17 21 -6 0 -22 -9 -37 -21z"/>
<path d="M608 4293 c6 -2 18 -2 25 0 6 3 1 5 -13 5 -14 0 -19 -2 -12 -5z"/>
<path d="M738 4293 c6 -2 18 -2 25 0 6 3 1 5 -13 5 -14 0 -19 -2 -12 -5z"/>
<path d="M509 4263 c-31 -16 -63 -42 -76 -62 -22 -33 -23 -41 -23 -308 0 -290
2 -300 50 -341 23 -19 88 -52 102 -52 7 0 -6 9 -30 20 -23 10 -56 34 -72 52
l-30 32 0 290 0 289 39 37 c22 21 59 45 83 53 24 9 36 16 27 16 -8 1 -40 -11
-70 -26z"/>
<path d="M824 4270 c62 -24 103 -63 116 -109 5 -20 10 -144 10 -276 0 -230 -1
-243 -22 -285 -18 -34 -35 -51 -77 -72 -29 -16 -47 -28 -40 -28 8 0 38 14 67
31 83 47 83 51 80 379 l-3 278 -25 27 c-29 31 -111 75 -137 75 -10 -1 4 -10
31 -20z"/>
<path d="M3008 4133 c12 -2 30 -2 40 0 9 3 -1 5 -23 4 -22 0 -30 -2 -17 -4z"/>
<path d="M3078 4113 c7 -3 16 -2 19 1 4 3 -2 6 -13 5 -11 0 -14 -3 -6 -6z"/>
<path d="M2998 4103 c12 -2 30 -2 40 0 9 3 -1 5 -23 4 -22 0 -30 -2 -17 -4z"/>
<path d="M461 3921 c-7 -5 -10 -14 -7 -20 11 -16 26 -13 20 4 -4 11 0 15 16
15 16 0 20 -4 16 -15 -6 -17 9 -20 20 -4 7 12 -13 29 -36 29 -8 0 -21 -4 -29
-9z"/>
<path d="M588 3493 c7 -3 16 -2 19 1 4 3 -2 6 -13 5 -11 0 -14 -3 -6 -6z"/>
<path d="M768 3493 c7 -3 16 -2 19 1 4 3 -2 6 -13 5 -11 0 -14 -3 -6 -6z"/>
<path d="M663 3483 c15 -2 37 -2 50 0 12 2 0 4 -28 4 -27 0 -38 -2 -22 -4z"/>
<path d="M4070 3421 c-12 -30 -43 -41 -122 -41 -21 0 -38 -4 -38 -10 0 -5 13
-10 29 -10 15 0 49 -3 73 -6 38 -5 48 -11 61 -38 l15 -31 12 31 c10 27 17 32
57 38 25 3 59 6 74 6 16 0 29 5 29 10 0 6 -17 10 -37 10 -81 0 -111 11 -122
41 -12 36 -16 36 -31 0z"/>
<path d="M548 3313 c6 -2 18 -2 25 0 6 3 1 5 -13 5 -14 0 -19 -2 -12 -5z"/>
<path d="M803 3313 c9 -2 23 -2 30 0 6 3 -1 5 -18 5 -16 0 -22 -2 -12 -5z"/>
<path d="M648 3303 c23 -2 59 -2 80 0 20 2 1 4 -43 4 -44 0 -61 -2 -37 -4z"/>
<path d="M898 3273 c7 -3 16 -2 19 1 4 3 -2 6 -13 5 -11 0 -14 -3 -6 -6z"/>
<path d="M498 3263 c7 -3 16 -2 19 1 4 3 -2 6 -13 5 -11 0 -14 -3 -6 -6z"/>
<path d="M858 3263 c7 -3 16 -2 19 1 4 3 -2 6 -13 5 -11 0 -14 -3 -6 -6z"/>
<path d="M548 3253 c7 -3 16 -2 19 1 4 3 -2 6 -13 5 -11 0 -14 -3 -6 -6z"/>
<path d="M808 3253 c7 -3 16 -2 19 1 4 3 -2 6 -13 5 -11 0 -14 -3 -6 -6z"/>
<path d="M5304 3245 c-18 -14 -18 -14 8 -15 20 0 26 4 22 15 -7 18 -6 18 -30
0z"/>
<path d="M648 3243 c23 -2 59 -2 80 0 20 2 1 4 -43 4 -44 0 -61 -2 -37 -4z"/>
<path d="M5143 3223 c9 -2 23 -2 30 0 6 3 -1 5 -18 5 -16 0 -22 -2 -12 -5z"/>
<path d="M5078 3213 c6 -2 18 -2 25 0 6 3 1 5 -13 5 -14 0 -19 -2 -12 -5z"/>
<path d="M5028 3203 c7 -3 16 -2 19 1 4 3 -2 6 -13 5 -11 0 -14 -3 -6 -6z"/>
<path d="M4988 3193 c7 -3 16 -2 19 1 4 3 -2 6 -13 5 -11 0 -14 -3 -6 -6z"/>
<path d="M4925 3180 c-13 -5 -14 -9 -5 -9 8 0 24 4 35 9 13 5 14 9 5 9 -8 0
-24 -4 -35 -9z"/>
<path d="M198 3173 c7 -3 16 -2 19 1 4 3 -2 6 -13 5 -11 0 -14 -3 -6 -6z"/>
<path d="M1688 3173 c145 -2 379 -2 520 0 141 1 23 2 -263 2 -286 0 -402 -1
-257 -2z"/>
<path d="M2478 2995 l3 -185 25 0 c19 0 25 -4 20 -15 -5 -13 13 -15 127 -13
l132 2 -117 3 c-65 2 -118 8 -118 13 0 5 64 11 148 13 l147 3 -173 2 -172 2 2
170 c2 94 6 170 11 170 4 0 160 0 347 0 l340 0 0 -170 0 -170 -157 -2 c-149
-2 -151 -2 -38 -5 132 -4 159 -8 135 -23 -11 -7 -5 -10 23 -10 20 0 37 -4 37
-10 0 -5 -46 -11 -102 -13 l-103 -3 112 -2 112 -2 3 -57 c3 -49 6 -58 23 -61
15 -2 17 -1 6 6 -10 8 -14 66 -18 273 l-4 264 -377 3 -377 2 3 -185z m740
-196 c-2 -6 -7 -10 -11 -10 -4 1 -14 1 -22 1 -8 0 -15 5 -15 10 0 6 12 10 26
10 14 0 24 -5 22 -11z"/>
<path d="M233 3150 c-21 -9 -22 -14 -25 -186 -2 -137 0 -181 10 -191 11 -10
128 -13 605 -13 326 0 598 4 606 9 10 7 13 46 13 185 -1 175 -3 196 -24 196
-7 0 -7 -5 1 -14 8 -9 11 -68 9 -187 l-3 -174 -70 -2 c-62 -2 -66 -1 -35 8 19
6 45 20 58 32 21 19 22 29 22 147 0 185 12 179 -370 180 -158 1 -282 6 -285
11 -8 13 -52 11 -61 -2 -3 -6 -16 -8 -27 -5 -12 3 -27 0 -34 -5 -7 -6 -33 -11
-58 -11 -29 -1 -45 -6 -45 -14 0 -9 -30 -13 -109 -16 -151 -4 -151 -5 -151
-159 0 -116 1 -119 25 -135 14 -9 40 -20 58 -24 26 -7 20 -8 -34 -9 -38 -1
-70 4 -77 11 -17 17 -17 344 1 355 6 4 98 10 202 13 l190 6 -185 1 c-102 1
-195 -2 -207 -7z m427 -30 c0 -5 -4 -10 -10 -10 -5 0 -10 5 -10 10 0 6 5 10
10 10 6 0 10 -4 10 -10z m130 0 c0 -5 -5 -10 -11 -10 -5 0 -7 5 -4 10 3 6 8
10 11 10 2 0 4 -4 4 -10z m-70 -82 c0 -45 -2 -79 -5 -76 -7 7 -13 147 -6 153
10 10 11 2 11 -77z m597 71 c15 -5 31 -16 35 -22 4 -7 8 -67 8 -134 0 -166 23
-155 -304 -151 -226 3 -257 5 -273 20 -13 14 -17 40 -20 126 -5 137 2 149 97
161 97 13 424 13 457 0z m-767 -40 c0 -5 23 -20 52 -32 79 -32 43 -31 -57 3
-96 32 -105 34 -105 22 0 -5 54 -26 121 -46 66 -21 118 -40 116 -43 -4 -4
-337 44 -364 52 -18 6 -4 35 21 45 31 13 216 12 216 -1z m120 -7 c40 -32 15
-43 -40 -19 -27 12 -50 25 -50 30 0 15 69 6 90 -11z m-170 -84 l145 -23 -157
-3 c-91 -1 -158 -7 -158 -12 0 -5 65 -11 153 -12 l152 -3 -160 -26 c-88 -15
-163 -25 -167 -22 -10 5 -11 117 -2 126 4 4 16 5 28 2 12 -2 86 -15 166 -27z
m250 -88 c0 -51 -3 -60 -18 -60 -14 0 -17 8 -14 48 4 57 8 72 22 72 6 0 10
-25 10 -60z m-70 15 c0 -2 -53 -21 -117 -41 -65 -20 -130 -43 -144 -52 -34
-19 -95 -9 -110 19 -6 12 -9 22 -7 23 4 3 328 53 356 55 12 0 22 -1 22 -4z
m-90 -71 c-49 -26 -75 -34 -105 -32 -39 3 -37 4 50 35 118 41 135 41 55 -3z
m108 14 c-9 -25 -55 -49 -89 -46 l-34 3 50 27 c54 29 79 35 73 16z m75 -50
c12 -6 36 -15 52 -19 18 -4 -19 -7 -90 -7 -96 0 -112 2 -80 9 22 5 44 14 49
19 13 13 43 13 69 -2z"/>
<path d="M1038 3049 c-56 -21 -35 -69 31 -69 35 0 71 22 71 44 0 6 -64 37 -72
35 -2 0 -15 -5 -30 -10z m46 -15 c28 -11 18 -34 -13 -34 -36 0 -48 15 -24 29
22 13 18 12 37 5z"/>
<path d="M944 3002 c-12 -30 -42 -42 -108 -42 -17 0 -38 -5 -46 -10 -11 -7 -8
-10 16 -10 17 0 52 -3 78 -6 41 -6 49 -11 60 -38 l13 -31 16 32 c16 30 21 32
87 39 69 6 88 24 27 24 -75 0 -105 11 -116 41 -5 16 -11 29 -13 29 -2 0 -8
-13 -14 -28z"/>
<path d="M1348 3153 c12 -2 30 -2 40 0 9 3 -1 5 -23 4 -22 0 -30 -2 -17 -4z"/>
<path d="M1492 3114 c-21 -14 -22 -22 -22 -154 0 -134 1 -140 23 -154 19 -13
89 -15 457 -16 239 0 445 0 458 0 12 0 31 9 42 20 18 18 20 33 20 149 0 188
51 171 -504 171 -393 0 -454 -2 -474 -16z m936 -16 c15 -15 17 -224 2 -233 -8
-5 -8 -11 0 -20 9 -11 6 -17 -13 -30 -20 -13 -49 -15 -158 -13 -129 3 -134 4
-137 25 -3 19 2 22 35 26 21 2 -41 4 -138 5 l-176 2 5 -31 4 -30 -165 3 c-173
3 -204 11 -177 43 8 10 9 15 1 15 -16 0 -15 237 2 243 6 3 212 6 457 6 335 1
449 -2 458 -11z m-504 -277 c6 -10 -33 -23 -46 -15 -4 3 -8 9 -8 15 0 12 47
12 54 0z m76 -1 c0 -5 -7 -10 -16 -10 -8 0 -12 5 -9 10 3 6 10 10 16 10 5 0 9
-4 9 -10z m94 1 c3 -4 3 -11 0 -14 -8 -7 -44 4 -44 14 0 12 37 12 44 0z"/>
<path d="M1614 3066 c-36 -16 -74 -61 -74 -88 0 -11 13 -32 28 -48 68 -68 234
-67 302 2 36 36 46 35 66 -4 l17 -33 14 33 c10 25 19 32 41 32 17 0 37 -9 48
-21 84 -95 334 -64 334 41 0 59 -73 100 -177 100 -73 0 -145 -27 -164 -61 -6
-12 -20 -19 -39 -19 -24 0 -32 6 -43 33 l-14 32 -17 -32 c-19 -38 -36 -42 -54
-12 -33 52 -191 78 -268 45z m161 -7 c42 -11 85 -40 85 -59 0 -6 -15 -10 -34
-10 -19 0 -38 -4 -41 -10 -4 -6 8 -10 29 -10 42 0 52 -12 28 -32 -33 -29 -63
-39 -120 -39 -65 -1 -102 11 -132 41 -39 39 -15 90 55 115 49 17 74 18 130 4z
m508 -3 c21 -8 47 -22 58 -32 27 -24 22 -71 -11 -96 -53 -39 -177 -39 -229 0
-37 27 -36 40 1 45 l33 3 -32 8 c-18 5 -33 12 -33 16 0 26 90 69 145 69 17 0
47 -6 68 -13z"/>
<path d="M1568 2853 c23 -2 61 -2 85 0 23 2 4 4 -43 4 -47 0 -66 -2 -42 -4z"/>
<path d="M1768 2853 c12 -2 32 -2 45 0 12 2 2 4 -23 4 -25 0 -35 -2 -22 -4z"/>
<path d="M2283 2853 c26 -2 67 -2 90 0 23 2 2 3 -48 3 -49 0 -68 -1 -42 -3z"/>
<path d="M2597 3084 c-11 -11 -8 -62 3 -69 6 -3 10 2 10 12 1 17 1 17 14 1 19
-26 23 -22 22 20 -1 29 -5 38 -21 40 -12 2 -24 0 -28 -4z"/>
<path d="M2727 3083 c-11 -10 -8 -73 2 -73 5 0 12 12 14 28 l4 27 2 -27 c1
-31 21 -39 21 -9 0 11 5 23 10 26 6 4 10 -5 10 -19 0 -14 5 -26 10 -26 6 0 10
14 10 30 0 28 -3 30 -36 30 -21 0 -33 4 -29 10 7 11 -8 14 -18 3z"/>
<path d="M3033 3059 c4 -13 7 -30 7 -36 0 -7 4 -13 9 -13 14 0 7 63 -8 68 -10
3 -12 -2 -8 -19z"/>
<path d="M2664 3056 c-9 -24 4 -48 23 -44 12 2 18 12 18 28 0 29 -32 41 -41
16z"/>
<path d="M2822 3030 c2 -35 5 -40 22 -38 16 2 22 12 24 41 3 34 1 37 -23 37
-24 0 -26 -3 -23 -40z m28 10 c0 -5 -4 -10 -10 -10 -5 0 -10 5 -10 10 0 6 5
10 10 10 6 0 10 -4 10 -10z"/>
<path d="M2887 3063 c-4 -3 -7 -17 -7 -30 0 -16 6 -23 19 -23 18 0 35 35 25
52 -6 10 -28 11 -37 1z"/>
<path d="M2941 3036 l1 -31 9 26 c8 21 15 26 31 21 18 -4 18 -6 4 -14 -20 -11
-12 -28 15 -28 14 0 19 7 19 29 0 28 -2 30 -40 29 -38 0 -40 -2 -39 -32z"/>
<path d="M3074 3056 c-9 -24 4 -48 23 -44 12 2 18 12 18 28 0 29 -32 41 -41
16z"/>
<path d="M3130 3040 c0 -16 5 -30 10 -30 6 0 10 6 10 14 0 8 3 21 6 30 4 11 1
16 -10 16 -11 0 -16 -9 -16 -30z"/>
<path d="M2487 2783 c-21 -20 -4 -33 42 -33 34 0 51 -4 55 -15 7 -19 62 -20
69 -1 4 9 24 16 49 19 24 2 -13 4 -81 5 -105 2 -122 4 -117 17 5 15 -5 20 -17
8z m143 -43 c0 -5 -7 -10 -15 -10 -8 0 -15 5 -15 10 0 6 7 10 15 10 8 0 15 -4
15 -10z"/>
<path d="M2998 2783 c23 -2 61 -2 85 0 23 2 4 4 -43 4 -47 0 -66 -2 -42 -4z"/>
<path d="M1873 2672 c-12 -7 -16 -25 -14 -55 1 -14 8 -18 29 -15 30 3 42 38
22 64 -14 16 -20 17 -37 6z m23 -49 c-6 -14 -9 -15 -16 -4 -11 19 -1 46 13 32
5 -5 7 -18 3 -28z"/>
<path d="M843 2644 c-4 -11 1 -22 12 -30 17 -13 17 -14 2 -14 -9 0 -17 -5 -17
-11 0 -6 10 -9 23 -7 18 2 22 9 21 38 0 38 -29 55 -41 24z"/>
<path d="M991 2620 c0 -29 2 -40 8 -31 6 9 11 10 15 2 12 -19 28 -13 18 7 -5
9 -7 23 -4 31 3 10 0 12 -11 8 -10 -4 -17 0 -20 11 -3 9 -5 -3 -6 -28z"/>
<path d="M1930 2645 c0 -11 5 -27 10 -35 9 -13 11 -13 20 0 5 8 10 24 10 35 0
17 -2 17 -10 5 -9 -13 -11 -13 -20 0 -8 12 -10 12 -10 -5z"/>
<path d="M1990 2645 c-17 -20 -6 -45 20 -45 17 0 21 5 18 27 -4 31 -20 40 -38
18z"/>
<path d="M2047 2653 c-10 -10 -8 -53 2 -53 5 0 11 10 14 23 4 22 4 22 15 -3
11 -25 11 -25 11 8 1 25 -3 32 -17 32 -10 0 -22 -3 -25 -7z"/>
<path d="M900 2611 c0 -17 5 -31 10 -31 6 0 10 11 10 24 0 14 -4 28 -10 31 -6
4 -10 -7 -10 -24z"/>
<path d="M931 2608 c1 -24 3 -27 6 -10 2 12 8 22 13 22 5 0 11 -10 13 -22 3
-17 5 -14 6 10 1 26 -3 32 -19 32 -16 0 -20 -6 -19 -32z"/>
<path d="M3288 2460 c2 -132 6 -180 15 -180 9 0 11 42 9 170 l-3 170 476 0
476 0 -3 -170 c-2 -128 0 -170 9 -170 9 0 13 48 15 180 l3 180 -500 0 -500 0
3 -180z"/>
<path d="M3537 2543 c-4 -3 -7 -19 -7 -35 0 -35 25 -47 48 -23 16 16 16 17 -5
10 -19 -5 -23 -2 -23 15 0 16 5 20 15 16 9 -3 15 0 15 9 0 15 -31 21 -43 8z"/>
<path d="M3721 2514 c-1 -32 3 -41 17 -41 9 0 20 5 24 10 4 7 12 6 23 -3 15
-12 19 -12 30 4 26 34 -13 64 -43 34 -9 -9 -12 -9 -12 0 0 7 -6 12 -14 12 -8
0 -17 6 -19 13 -3 6 -6 -6 -6 -29z m29 -14 c0 -5 -4 -10 -10 -10 -5 0 -10 5
-10 10 0 6 5 10 10 10 6 0 10 -4 10 -10z m60 0 c0 -5 -4 -10 -10 -10 -5 0 -10
5 -10 10 0 6 5 10 10 10 6 0 10 -4 10 -10z"/>
<path d="M3960 2541 c0 -6 -16 -11 -35 -11 -32 0 -35 -2 -35 -30 0 -34 20 -42
21 -7 l0 22 11 -22 c17 -35 52 -24 53 16 0 18 -3 35 -7 37 -4 3 -8 0 -8 -5z
m0 -41 c0 -5 -4 -10 -10 -10 -5 0 -10 5 -10 10 0 6 5 10 10 10 6 0 10 -4 10
-10z"/>
<path d="M3601 2502 c-1 -29 2 -33 21 -30 15 2 23 11 25 31 2 15 -1 27 -7 27
-5 0 -10 -9 -10 -20 0 -27 -18 -25 -23 3 -3 15 -5 12 -6 -11z"/>
<path d="M3661 2488 c0 -24 3 -37 6 -30 2 6 11 12 18 12 16 0 26 25 19 45 -4
8 -15 15 -25 15 -16 0 -19 -7 -18 -42z m29 12 c0 -5 -4 -10 -10 -10 -5 0 -10
5 -10 10 0 6 5 10 10 10 6 0 10 -4 10 -10z"/>
<path d="M3839 2515 c-1 -8 -2 -21 -3 -27 -1 -7 9 -14 22 -14 18 -1 22 4 22
27 0 22 -5 29 -20 29 -11 0 -21 -7 -21 -15z"/>
<path d="M3358 2273 c12 -2 32 -2 45 0 12 2 2 4 -23 4 -25 0 -35 -2 -22 -4z"/>
<path d="M4163 2273 c15 -2 37 -2 50 0 12 2 0 4 -28 4 -27 0 -38 -2 -22 -4z"/>
<path d="M3518 2263 c23 -2 59 -2 80 0 20 2 1 4 -43 4 -44 0 -61 -2 -37 -4z"/>
<path d="M3968 2263 c23 -2 59 -2 80 0 20 2 1 4 -43 4 -44 0 -61 -2 -37 -4z"/>
<path d="M7790 1785 c-58 -7 -89 -13 -70 -14 60 -2 110 -13 104 -22 -10 -17
13 -9 51 16 20 15 40 24 42 21 3 -2 0 -27 -6 -55 -7 -34 -8 -82 -1 -146 9
-103 4 -165 -14 -165 -6 0 -20 7 -30 15 -23 17 -36 19 -36 5 0 -5 6 -10 14
-10 8 0 24 -9 37 -21 l24 -21 -25 6 -24 5 26 -22 c15 -12 28 -33 30 -47 3 -25
3 -25 -77 -23 l-80 1 89 -9 c49 -6 89 -9 90 -7 2 2 -1 95 -6 208 -5 131 -4
215 2 234 6 16 10 37 10 47 0 22 2 22 -150 4z"/>
<path d="M7613 1773 c9 -2 23 -2 30 0 6 3 -1 5 -18 5 -16 0 -22 -2 -12 -5z"/>
<path d="M3319 1463 c-14 -34 -31 -42 -94 -44 -88 -2 -92 -15 -6 -23 80 -7 84
-9 94 -37 14 -37 21 -37 37 0 11 29 15 30 93 37 86 7 84 21 -3 24 -61 2 -80
11 -95 46 l-13 29 -13 -32z"/>
<path d="M7637 1303 c18 -2 50 -2 70 0 21 2 7 4 -32 4 -38 0 -55 -2 -38 -4z"/>
<path d="M7896 1253 c-4 -5 -71 -13 -149 -20 l-142 -11 140 4 c77 3 148 8 159
11 17 5 18 1 11 -33 -5 -22 -7 -105 -6 -186 1 -82 -1 -148 -6 -148 -4 1 -19 7
-33 15 -14 8 -32 14 -40 14 -8 0 -1 -7 16 -14 17 -8 37 -21 45 -31 13 -15 12
-16 -11 -10 l-25 7 26 -15 c17 -10 28 -26 31 -46 5 -30 4 -30 -46 -31 l-51 -1
59 -10 c32 -5 59 -8 60 -6 2 2 -1 93 -6 203 -6 142 -5 212 3 242 6 23 9 49 6
58 -7 16 -29 20 -41 8z"/>
<path d="M7563 1233 c9 -2 23 -2 30 0 6 3 -1 5 -18 5 -16 0 -22 -2 -12 -5z"/>
<path d="M7593 753 c26 -2 67 -2 90 0 23 2 2 3 -48 3 -49 0 -68 -1 -42 -3z"/>
<path d="M260 410 l0 -70 135 0 135 0 0 70 0 70 -135 0 -135 0 0 -70z"/>
</g>
</svg>
